<svg xmlns="http://www.w3.org/2000/svg" class="icon icon-tabler icon-tabler-2fa" width="24" height="24" viewBox="0 0 24 24" stroke-width="2" stroke="currentColor" fill="none" stroke-linecap="round" stroke-linejoin="round">
  <symbol id="bold" viewBox="0 0 32 32" stroke-width="1.4">
    <path stroke="none" d="M0 0h24v24H0z" fill="none"/>
    <path d="M7 5h6a3.5 3.5 0 0 1 0 7h-6z" />
    <path d="M13 12h1a3.5 3.5 0 0 1 0 7h-7v-7" />  
  </symbol>  
    
  <symbol id="strikethrough" viewBox="0 0 32 32" stroke-width="1.4">   
    <path stroke="none" d="M0 0h24v24H0z" fill="none"/>
    <line x1="5" y1="12" x2="19" y2="12" />
    <path d="M16 6.5a4 2 0 0 0 -4 -1.5h-1a3.5 3.5 0 0 0 0 7" />
    <path d="M16.5 16a3.5 3.5 0 0 1 -3.5 3h-1.5a4 2 0 0 1 -4 -1.5" />
  </symbol>
 
  <symbol id="italic" viewBox="0 0 32 32" stroke-width="1.4">
    <path stroke="none" d="M0 0h24v24H0z" fill="none"/>
    <line x1="11" y1="5" x2="17" y2="5" />
    <line x1="7" y1="19" x2="13" y2="19" />
    <line x1="14" y1="5" x2="10" y2="19" />
  </symbol> 
    
  <symbol id="h3" viewBox="0 0 32 32" stroke-width="1.4">
    <path stroke="none" d="M0 0h24v24H0z" fill="none"/>
    <line x1="3" y1="5" x2="3" y2="19" />
    <line x1="3" y1="12" x2="12" y2="12" />
    <line x1="12" y1="5" x2="12" y2="19" />
    <path d="M16 11.5a2.5 2.5 0 1 1 2.5 2.5a2.5 2.5 0 1 1 -2.5 2.5" />
  </symbol> 

  <symbol id="quota" viewBox="0 0 32 32" stroke-width="1.4">
    <path stroke="none" d="M0 0h24v24H0z" fill="none"/>
    <path d="M4 21v-13a3 3 0 0 1 3 -3h10a3 3 0 0 1 3 3v6a3 3 0 0 1 -3 3h-9l-4 4" />
    <line x1="8" y1="9" x2="16" y2="9" />
    <line x1="8" y1="13" x2="14" y2="13" />
  </symbol>   
    
  <symbol id="code" viewBox="0 0 32 32" stroke-width="1.4">
    <path stroke="none" d="M0 0h24v24H0z" fill="none"/>
    <polyline points="7 8 3 12 7 16" />
    <polyline points="17 8 21 12 17 16" />
    <line x1="14" y1="4" x2="10" y2="20" />
  </symbol>   
    
  <symbol id="cut" viewBox="0 0 32 32" stroke-width="1.4">
    <path stroke="none" d="M0 0h24v24H0z" fill="none"/>
    <circle cx="7" cy="17" r="3" />
    <circle cx="17" cy="17" r="3" />
    <line x1="9.15" y1="14.85" x2="18" y2="4" />
    <line x1="6" y1="4" x2="14.85" y2="14.85" />
  </symbol> 

  <symbol id="photo" viewBox="0 0 32 32" stroke-width="1.4">
    <path stroke="none" d="M0 0h24v24H0z" fill="none"/>
    <line x1="15" y1="8" x2="15.01" y2="8" />
    <rect x="4" y="4" width="16" height="16" rx="3" />
    <path d="M4 15l4 -4a3 5 0 0 1 3 0l5 5" />
    <path d="M14 14l1 -1a3 5 0 0 1 3 0l2 2" />
  </symbol> 
    
  <symbol id="plus" viewBox="0 0 32 32" stroke-width="1.4">
    <path stroke="none" d="M0 0h24v24H0z" fill="none"/>
    <line x1="12" y1="5" x2="12" y2="19" />
    <line x1="5" y1="12" x2="19" y2="12" />
  </symbol> 
    
  <symbol id="bell" viewBox="0 0 32 32" stroke-width="1.4">
    <path stroke="none" d="M0 0h24v24H0z" fill="none"/>
    <path d="M10 5a2 2 0 0 1 4 0a7 7 0 0 1 4 6v3a4 4 0 0 0 2 3h-16a4 4 0 0 0 2 -3v-3a7 7 0 0 1 4 -6" />
    <path d="M9 17v1a3 3 0 0 0 6 0v-1" />
  </symbol> 
    
  <symbol id="star" viewBox="0 0 32 32" stroke-width="1.4">
    <path stroke="none" d="M0 0h24v24H0z" fill="none"/>
    <path d="M12 17.75l-6.172 3.245l1.179 -6.873l-5 -4.867l6.9 -1l3.086 -6.253l3.086 6.253l6.9 1l-5 4.867l1.179 6.873z" />
  </symbol>   
    
  <symbol id="eye" viewBox="0 0 32 32" stroke-width="1.4">
    <path stroke="none" d="M0 0h24v24H0z" fill="none"/>
    <circle cx="12" cy="12" r="2" />
    <path d="M22 12c-2.667 4.667 -6 7 -10 7s-7.333 -2.333 -10 -7c2.667 -4.667 6 -7 10 -7s7.333 2.333 10 7" />
  </symbol>  
    
  <symbol id="message" viewBox="0 0 32 32" stroke-width="1.4"> 
    <path stroke="none" d="M0 0h24v24H0z" fill="none"/>
    <path d="M4 21v-13a3 3 0 0 1 3 -3h10a3 3 0 0 1 3 3v6a3 3 0 0 1 -3 3h-9l-4 4" />
    <line x1="8" y1="9" x2="16" y2="9" />
    <line x1="8" y1="13" x2="14" y2="13" />
  </symbol>  
    
  <symbol id="arrow-up" viewBox="0 0 32 32" stroke-width="1.4"> 
    <path stroke="none" d="M0 0h24v24H0z" fill="none"/>
    <line x1="12" y1="5" x2="12" y2="19" />
    <line x1="18" y1="11" x2="12" y2="5" />
    <line x1="6" y1="11" x2="12" y2="5" />
  </symbol>  
    
  <symbol id="arrow-down" viewBox="0 0 32 32" stroke-width="1.4"> 
    <path stroke="none" d="M0 0h24v24H0z" fill="none"/>
    <line x1="12" y1="5" x2="12" y2="19" />
    <line x1="18" y1="13" x2="12" y2="19" />
    <line x1="6" y1="13" x2="12" y2="19" />
  </symbol> 

  <symbol id="chevrons-down" viewBox="0 0 32 32" stroke-width="1.4"> 
    <path stroke="none" d="M0 0h24v24H0z" fill="none"/>
    <polyline points="6 9 12 15 18 9" />
  </symbol>   

  <symbol id="chevrons-right" viewBox="0 0 32 32" stroke-width="1.4"> 
    <path stroke="none" d="M0 0h24v24H0z" fill="none"/>
    <polyline points="7 7 12 12 7 17" />
    <polyline points="13 7 18 12 13 17" />
  </symbol>      
    
  <symbol id="chevron-left" viewBox="0 0 32 32" stroke-width="1.4"> 
    <path stroke="none" d="M0 0h24v24H0z" fill="none"/>
    <polyline points="15 6 9 12 15 18" />
  </symbol>    
  
  <symbol id="chevron-right" viewBox="0 0 32 32" stroke-width="1.4"> 
    <path stroke="none" d="M0 0h24v24H0z" fill="none"/>
    <polyline points="9 6 15 12 9 18" />
  </symbol>  
    
  <symbol id="settings" viewBox="0 0 32 32" stroke-width="1.4">  
    <path stroke="none" d="M0 0h24v24H0z" fill="none"/>
     <path d="M10.325 4.317c.426 -1.756 2.924 -1.756 3.35 0a1.724 1.724 0 0 0 2.573 1.066c1.543 -.94 3.31 .826 2.37 2.37a1.724 1.724 0 0 0 1.065 2.572c1.756 .426 1.756 2.924 0 3.35a1.724 1.724 0 0 0 -1.066 2.573c.94 1.543 -.826 3.31 -2.37 2.37a1.724 1.724 0 0 0 -2.572 1.065c-.426 1.756 -2.924 1.756 -3.35 0a1.724 1.724 0 0 0 -2.573 -1.066c-1.543 .94 -3.31 -.826 -2.37 -2.37a1.724 1.724 0 0 0 -1.065 -2.572c-1.756 -.426 -1.756 -2.924 0 -3.35a1.724 1.724 0 0 0 1.066 -2.573c-.94 -1.543 .826 -3.31 2.37 -2.37c1 .608 2.296 .07 2.572 -1.065z" />
     <circle cx="12" cy="12" r="3" />
  </symbol> 

  <symbol id="user" viewBox="0 0 32 32" stroke-width="1.4">    
    <path stroke="none" d="M0 0h24v24H0z" fill="none"/>
    <circle cx="12" cy="7" r="4" />
    <path d="M6 21v-2a4 4 0 0 1 4 -4h4a4 4 0 0 1 4 4v2" />
  </symbol> 
    
  <symbol id="ad" viewBox="0 0 32 32" stroke-width="1.4">  
    <path stroke="none" d="M0 0h24v24H0z" fill="none"/>
    <rect x="3" y="5" width="18" height="14" rx="2" />
    <path d="M7 15v-4a2 2 0 0 1 4 0v4" />
    <line x1="7" y1="13" x2="11" y2="13" />
    <path d="M17 9v6h-1.5a1.5 1.5 0 1 1 1.5 -1.5" />
  </symbol>  
    
  <symbol id="devices" viewBox="0 0 32 32" stroke-width="1.4">  
    <path stroke="none" d="M0 0h24v24H0z" fill="none"/>
    <rect x="13" y="8" width="8" height="12" rx="1" />
    <path d="M18 8v-3a1 1 0 0 0 -1 -1h-13a1 1 0 0 0 -1 1v12a1 1 0 0 0 1 1h9" />
    <line x1="16" y1="9" x2="18" y2="9" />
  </symbol>   
     
  <symbol id="arrow-bar-to-right" viewBox="0 0 32 32" stroke-width="1.4">  
    <path stroke="none" d="M0 0h24v24H0z" fill="none"/>
    <line x1="14" y1="12" x2="4" y2="12" />
    <line x1="14" y1="12" x2="10" y2="16" />
    <line x1="14" y1="12" x2="10" y2="8" />
    <line x1="20" y1="4" x2="20" y2="20" />
  </symbol> 

  <symbol id="lock-open" viewBox="0 0 32 32" stroke-width="1.4">  
    <path stroke="none" d="M0 0h24v24H0z" fill="none"/>
    <rect x="5" y="11" width="14" height="10" rx="2" />
    <circle cx="12" cy="16" r="1" />
    <path d="M8 11v-5a4 4 0 0 1 8 0" />
  </symbol>   
    
  <symbol id="lock-off" viewBox="0 0 32 32" stroke-width="1.4">  
    <path stroke="none" d="M0 0h24v24H0z" fill="none"/>
    <line x1="3" y1="3" x2="21" y2="21" />
    <path d="M19 19a2 2 0 0 1 -2 2h-10a2 2 0 0 1 -2 -2v-6a2 2 0 0 1 2 -2h4m4 0h2a2 2 0 0 1 2 2v2" />
    <circle cx="12" cy="16" r="1" />
    <path d="M8 11v-3m.712 -3.278a4 4 0 0 1 7.288 2.278v4" />
  </symbol> 
    
  <symbol id="book" viewBox="0 0 32 32" stroke-width="1.4">  
    <path stroke="none" d="M0 0h24v24H0z" fill="none"/>
    <path d="M3 19a9 9 0 0 1 9 0a9 9 0 0 1 9 0" />
    <path d="M3 6a9 9 0 0 1 9 0a9 9 0 0 1 9 0" />
    <line x1="3" y1="6" x2="3" y2="19" />
    <line x1="12" y1="6" x2="12" y2="19" />
    <line x1="21" y1="6" x2="21" y2="19" />
  </symbol>   
    
  <symbol id="chart-line" viewBox="0 0 32 32" stroke-width="1.4">    
    <path stroke="none" d="M0 0h24v24H0z" fill="none"/>
    <line x1="4" y1="19" x2="20" y2="19" />
    <polyline points="4 15 8 9 12 11 16 6 20 10" />
  </symbol>   
    
  <symbol id="layers-intersect" viewBox="0 0 32 32" stroke-width="1.4">   
    <path stroke="none" d="M0 0h24v24H0z" fill="none"/>
    <rect x="8" y="4" width="12" height="12" rx="2" />
    <rect x="4" y="8" width="12" height="12" rx="2" />
  </symbol> 
    
  <symbol id="artboard" viewBox="0 0 32 32" stroke-width="1.4">  
    <path stroke="none" d="M0 0h24v24H0z" fill="none"/>
    <rect x="8" y="8" width="8" height="8" rx="1" />
    <line x1="3" y1="8" x2="4" y2="8" />
    <line x1="3" y1="16" x2="4" y2="16" />
    <line x1="8" y1="3" x2="8" y2="4" />
    <line x1="16" y1="3" x2="16" y2="4" />
    <line x1="20" y1="8" x2="21" y2="8" />
    <line x1="20" y1="16" x2="21" y2="16" />
    <line x1="8" y1="20" x2="8" y2="21" />
    <line x1="16" y1="20" x2="16" y2="21" /> 
  </symbol>  
  
  <symbol id="bulb" viewBox="0 0 32 32" stroke-width="1.4">
    <path stroke="none" d="M0 0h24v24H0z" fill="none"/>
    <path d="M3 12h1m8 -9v1m8 8h1m-15.4 -6.4l.7 .7m12.1 -.7l-.7 .7" />
    <path d="M9 16a5 5 0 1 1 6 0a3.5 3.5 0 0 0 -1 3a2 2 0 0 1 -4 0a3.5 3.5 0 0 0 -1 -3" />
    <line x1="9.7" y1="17" x2="14.3" y2="17" />
  </symbol>  

  <symbol id="bulb-off" viewBox="0 0 32 32" stroke-width="1.4">
    <path stroke="none" d="M0 0h24v24H0z" fill="none"/>
    <path d="M9 16a5 5 0 1 1 6 0a3.5 3.5 0 0 0 -1 3a2 2 0 0 1 -4 0a3.5 3.5 0 0 0 -1 -3" />
    <line x1="9.7" y1="17" x2="14.3" y2="17" />
  </symbol>    

  <symbol id="moon" viewBox="0 0 32 32" stroke-width="1.4">
    <path stroke="none" d="M0 0h24v24H0z" fill="none"/>
    <path d="M12 3c0.132 0 .263 0 .393 0a7.5 7.5 0 0 0 7.92 12.446a9 9 0 1 1 -8.313 -12.454z" />
  </symbol>      
  
  <symbol id="sun" viewBox="0 0 32 32" stroke-width="1.4">
    <path stroke="none" d="M0 0h24v24H0z" fill="none"/>
    <circle cx="12" cy="12" r="4" />
    <path d="M3 12h1m8 -9v1m8 8h1m-9 8v1m-6.4 -15.4l.7 .7m12.1 -.7l-.7 .7m0 11.4l.7 .7m-12.1 -.7l-.7 .7" />
  </symbol>  

  <symbol id="edit" viewBox="0 0 32 32" stroke-width="1.4">
    <path stroke="none" d="M0 0h24v24H0z" fill="none"/>
    <path d="M9 7h-3a2 2 0 0 0 -2 2v9a2 2 0 0 0 2 2h9a2 2 0 0 0 2 -2v-3" />
    <path d="M9 15h3l8.5 -8.5a1.5 1.5 0 0 0 -3 -3l-8.5 8.5v3" />
    <line x1="16" y1="5" x2="19" y2="8" />
  </symbol> 
  
  <symbol id="trash" viewBox="0 0 32 32" stroke-width="1.4">
    <path stroke="none" d="M0 0h24v24H0z" fill="none"/>
    <line x1="4" y1="7" x2="20" y2="7" />
    <line x1="10" y1="11" x2="10" y2="17" />
    <line x1="14" y1="11" x2="14" y2="17" />
    <path d="M5 7l1 12a2 2 0 0 0 2 2h8a2 2 0 0 0 2 -2l1 -12" />
    <path d="M9 7v-3a1 1 0 0 1 1 -1h4a1 1 0 0 1 1 1v3" />
  </symbol>   

  <symbol id="discord" viewBox="0 0 32 32" stroke-width="1.4">
  <path stroke="none" d="M0 0h24v24H0z" fill="none"/>
  <circle cx="9" cy="12" r="1" />
  <circle cx="15" cy="12" r="1" />
  <path d="M7.5 7.5c3.5-1 5.5-1 9 0" />
  <path d="M7 16.5c3.5 1 6.5 1 10 0" />
  <path d="M15.5 17c0 1 1.5 3 2 3c1.5 0 2.833 -1.667 3.5 -3c.667 -1.667 .5 -5.833 -1.5 -11.5c-1.457 -1.015 -3 -1.34 -4.5 -1.5l-1 2.5" />
  <path d="M8.5 17c0 1 -1.356 3 -1.832 3c-1.429 0 -2.698 -1.667 -3.333 -3c-.635 -1.667 -.476 -5.833 1.428 -11.5c1.388 -1.015 2.782 -1.34 4.237 -1.5l1 2.5" />
  </symbol>

  <symbol id="bookmark" viewBox="0 0 32 32" stroke-width="1.4">
    <path stroke="none" d="M0 0h24v24H0z" fill="none"/>
    <path d="M9 4h6a2 2 0 0 1 2 2v14l-5-3l-5 3v-14a2 2 0 0 1 2 -2" />
  </symbol>
  
  <symbol id="bookmark-off" viewBox="0 0 32 32" stroke-width="1.4">
      <path stroke="none" d="M0 0h24v24H0z" fill="none"/>
      <line x1="3" y1="3" x2="21" y2="21" />
      <path d="M17 17v3l-5 -3l-5 3v-13m1.178 -2.818c.252 -.113 .53 -.176 .822 -.176h6a2 2 0 0 1 2 2v7" />
  </symbol>
  
  <symbol id="vk" viewBox="0 0 32 32" stroke-width="1.4">
      <path stroke="none" d="M0 0h24v24H0z" fill="none"/>
      <path d="M10 6h2v12c-4.5 -1 -8 -6.5 -9 -12" />
      <path d="M20 6c-1 2 -3 5 -5 6h-3" />
      <path d="M20 18c-1 -2 -3 -5 -5 -6" />
  </symbol> 
</svg> 





