<?xml version="1.0" standalone="no"?>
<!DOCTYPE svg PUBLIC "-//W3C//DTD SVG 20010904//EN"
 "http://www.w3.org/TR/2001/REC-SVG-20010904/DTD/svg10.dtd">
<svg version="1.0" xmlns="http://www.w3.org/2000/svg"
 width="946.000000pt" height="812.000000pt" viewBox="0 0 946.000000 812.000000"
 preserveAspectRatio="xMidYMid meet">

<g transform="translate(0.000000,812.000000) scale(0.100000,-0.100000)"
fill="#4fa9ff" stroke="none">
<path d="M6288 7914 c-15 -8 -45 -45 -67 -82 -46 -78 -94 -127 -171 -173 -128
-77 -180 -139 -180 -218 0 -57 17 -83 78 -117 57 -33 82 -61 81 -94 0 -34 -10
-45 -114 -125 -49 -37 -178 -157 -285 -265 -181 -183 -421 -408 -558 -523 -79
-67 -158 -109 -287 -154 -109 -38 -111 -38 -265 -38 -189 1 -265 14 -598 102
-136 36 -278 74 -317 84 -155 41 -618 129 -735 140 -76 7 -212 9 -350 6 -210
-5 -235 -8 -375 -40 -179 -41 -305 -88 -440 -164 -147 -83 -210 -130 -373
-283 -256 -239 -348 -345 -487 -560 -37 -58 -77 -116 -90 -130 -28 -32 -186
-293 -204 -340 -8 -19 -30 -66 -48 -103 -54 -110 -152 -374 -183 -499 -23 -86
-70 -328 -91 -463 -9 -52 -13 -192 -13 -405 0 -288 2 -340 21 -455 60 -358
198 -806 328 -1065 102 -203 336 -541 469 -679 92 -95 252 -215 341 -257 131
-60 275 -104 429 -129 297 -50 317 -54 399 -97 67 -35 85 -50 113 -94 19 -29
34 -56 34 -59 0 -21 111 -184 158 -233 125 -129 246 -181 373 -161 35 5 73 14
84 19 90 41 198 85 347 140 268 98 250 94 543 95 143 0 330 4 416 9 193 11
245 2 429 -69 156 -61 236 -80 410 -99 69 -7 140 -21 157 -29 17 -9 45 -39 63
-67 18 -27 38 -50 46 -50 24 0 118 61 168 108 26 26 61 74 77 107 27 54 29 66
23 125 -7 75 -62 254 -93 304 -12 18 -40 51 -64 73 -39 36 -55 42 -177 72 -74
18 -191 50 -260 71 -387 121 -846 210 -978 189 -26 -4 -49 -5 -50 -4 -2 2 36
64 85 139 161 246 224 377 277 576 36 135 44 196 51 358 9 224 50 330 172 443
70 64 182 125 303 165 84 27 90 27 430 35 378 8 442 15 670 75 136 36 338 105
375 128 11 7 94 52 185 101 349 185 584 346 825 564 32 29 74 60 91 67 38 16
173 20 347 12 99 -5 129 -3 190 14 77 21 227 89 304 138 65 41 63 42 276 -26
70 -22 87 -13 87 44 0 26 -7 94 -16 152 -9 58 -18 119 -20 137 -11 80 -96 132
-215 133 -50 0 -99 7 -140 21 -117 38 -212 11 -281 -81 -43 -59 -117 -95 -241
-119 -87 -17 -115 -18 -240 -9 -221 16 -293 8 -423 -45 -199 -82 -239 -92
-300 -79 -121 25 -189 81 -215 175 -23 86 25 233 183 561 185 385 227 442 386
524 112 58 201 83 317 89 90 5 117 1 265 -32 323 -72 441 -81 525 -40 55 27
81 81 65 130 -23 69 12 79 171 45 121 -25 190 -25 275 1 73 23 132 59 202 122
40 37 42 43 42 94 0 46 2 54 14 44 8 -6 19 -25 26 -41 7 -17 17 -30 22 -30 24
0 86 79 107 134 71 192 15 343 -230 616 -148 165 -231 245 -355 342 -109 86
-148 111 -401 266 -277 169 -583 272 -968 328 -112 16 -122 19 -145 47 -80 97
-147 155 -188 167 -54 14 -67 10 -139 -46 -48 -38 -62 -44 -88 -38 -52 10 -70
30 -99 103 -32 83 -66 119 -150 161 -65 33 -107 37 -148 14z m1593 -938 c44
-30 92 -105 87 -138 -4 -27 -43 -37 -150 -37 -85 -1 -112 9 -170 67 -54 52
-59 74 -23 98 75 49 189 54 256 10z"/>
</g>
</svg>
