<svg xmlns="http://www.w3.org/2000/svg" xmlns:xlink="http://www.w3.org/1999/xlink" version="1.1">
  <symbol viewBox="0 0 24 24" id="github">
    <path stroke="none" d="M0 0h24v24H0z" fill="none"/><path d="M9 19c-4.3 1.4 -4.3 -2.5 -6 -3m12 5v-3.5c0 -1 .1 -1.4 -.5 -2c2.8 -.3 5.5 -1.4 5.5 -6a4.6 4.6 0 0 0 -1.3 -3.2a4.2 4.2 0 0 0 -.1 -3.2s-1.1 -.3 -3.5 1.3a12.3 12.3 0 0 0 -6.2 0c-2.4 -1.6 -3.5 -1.3 -3.5 -1.3a4.2 4.2 0 0 0 -.1 3.2a4.6 4.6 0 0 0 -1.3 3.2c0 4.6 2.7 5.7 5.5 6c-.6 .6 -.6 1.2 -.5 2v3.5" />
  </symbol>
  <symbol viewBox="0 0 24 24" id="discord">
    <path d="M18.8943 4.34399C17.5183 3.71467 16.057 3.256 14.5317 3C14.3396 3.33067 14.1263 3.77866 13.977 4.13067C12.3546 3.89599 10.7439 3.89599 9.14391 4.13067C8.99457 3.77866 8.77056 3.33067 8.58922 3C7.05325 3.256 5.59191 3.71467 4.22552 4.34399C1.46286 8.41865 0.716188 12.3973 1.08952 16.3226C2.92418 17.6559 4.69486 18.4666 6.4346 19C6.86126 18.424 7.24527 17.8053 7.57594 17.1546C6.9466 16.92 6.34927 16.632 5.77327 16.2906C5.9226 16.184 6.07194 16.0667 6.21061 15.9493C9.68793 17.5387 13.4543 17.5387 16.889 15.9493C17.0383 16.0667 17.177 16.184 17.3263 16.2906C16.7503 16.632 16.153 16.92 15.5236 17.1546C15.8543 17.8053 16.2383 18.424 16.665 19C18.4036 18.4666 20.185 17.6559 22.01 16.3226C22.4687 11.7787 21.2836 7.83202 18.8943 4.34399ZM8.05593 13.9013C7.01058 13.9013 6.15725 12.952 6.15725 11.7893C6.15725 10.6267 6.98925 9.67731 8.05593 9.67731C9.11191 9.67731 9.97588 10.6267 9.95454 11.7893C9.95454 12.952 9.11191 13.9013 8.05593 13.9013ZM15.065 13.9013C14.0196 13.9013 13.1652 12.952 13.1652 11.7893C13.1652 10.6267 13.9983 9.67731 15.065 9.67731C16.121 9.67731 16.985 10.6267 16.9636 11.7893C16.9636 12.952 16.1317 13.9013 15.065 13.9013Z" stroke-linejoin="round"/>
  </symbol> 
  <symbol viewBox="0 0 24 24" id="telegram">
    <path stroke="none" d="M0 0h24v24H0z" fill="none"/><path d="M15 10l-4 4l6 6l4 -16l-18 7l4 2l2 6l3 -4" />
  </symbol> 
  <symbol viewBox="0 0 24 24" id="vk">
   <path clip-rule="evenodd" d="m4.2653 4.2653c-1.2653 1.2653-1.2653 3.30177-1.2653 7.3747v.72c0 4.0729 0 6.1094 1.2653 7.3747s3.30176 1.2653 7.3747 1.2653h.72c4.0729 0 6.1094 0 7.3747-1.2653s1.2653-3.3018 1.2653-7.3747v-.72c0-4.07293 0-6.1094-1.2653-7.3747s-3.3018-1.2653-7.3747-1.2653h-.72c-4.07294 0-6.1094 0-7.3747 1.2653zm1.7347 4.2347c.09636 4.6823 2.55576 7.5 6.6095 7.5h.2351v-2.6787c1.4764.1499 2.5773 1.2536 3.0268 2.6787h2.1286c-.5775-2.1318-2.0747-3.3105-3.0052-3.7608.9298-.5569 2.2458-1.9071 2.5557-3.7392h-1.9365c-.4064 1.48991-1.6152 2.8401-2.7701 2.9683v-2.9683h-1.9675v5.1967c-1.19737-.2997-2.75931-1.7572-2.82331-5.1967z" fill="currentColor" fill-rule="evenodd"/>
  </symbol>
  <symbol viewBox="0 0 24 24" id="ok">
    <path d="M10.867 7.245a1.613 1.613 0 0 1 2.283 0 1.605 1.605 0 0 1 0 2.277 1.613 1.613 0 0 1-2.283 0 1.605 1.605 0 0 1-.475-1.139c0-.443.192-.846.475-1.138Z"/><path fill-rule="evenodd" d="M3.396 3.397C2 4.804 2 7.075 2 11.598v.804c0 4.533 0 6.794 1.406 8.201C4.813 22 7.083 22 11.603 22h.804c4.52 0 6.8 0 8.197-1.397C22 19.196 22 16.925 22 12.402v-.804c0-4.523 0-6.804-1.396-8.201C19.197 2 16.927 2 12.407 2h-.804c-4.53 0-6.79 0-8.207 1.397Zm8.602 8.533a3.547 3.547 0 0 0 3.545-3.537 3.547 3.547 0 0 0-3.545-3.536c-.98 0-1.868.403-2.505 1.038a3.494 3.494 0 0 0-1.04 2.498c0 .988.404 1.864 1.04 2.499a3.565 3.565 0 0 0 2.505 1.038Zm4.788 1.43-1.04-1.42a.17.17 0 0 0-.253-.02c-.98.836-2.192 1.38-3.495 1.38s-2.504-.544-3.494-1.38a.187.187 0 0 0-.253.02l-1.04 1.42a.17.17 0 0 0 .02.222 7.504 7.504 0 0 0 2.96 1.44l-2.202 3.869c-.061.11.02.252.141.252h2.151c.071 0 .132-.04.152-.111l1.535-3.425 1.535 3.425c.02.06.081.11.152.11h2.151c.131 0 .202-.13.141-.251l-2.201-3.869c1.06-.252 2.08-.715 2.959-1.44.131-.06.141-.151.08-.222Z" clip-rule="evenodd"/>
  </symbol>
  <symbol viewBox="0 0 24 24" id="tw">
    <path stroke="none" d="M0 0h24v24H0z" fill="none"/>
  <path d="M22 4.01c-1 .49 -1.98 .689 -3 .99c-1.121 -1.265 -2.783 -1.335 -4.38 -.737s-2.643 2.06 -2.62 3.737v1c-3.245 .083 -6.135 -1.395 -8 -4c0 0 -4.182 7.433 4 11c-1.872 1.247 -3.739 2.088 -6 2c3.308 1.803 6.913 2.423 10.034 1.517c3.58 -1.04 6.522 -3.723 7.651 -7.742a13.84 13.84 0 0 0 .497 -3.753c0 -.249 1.51 -2.772 1.818 -4.013z" />
  </symbol>
  <symbol viewBox="0 0 24 24" id="fb">
    <g id="Page-2" stroke="none" stroke-width="1" fill="none" fill-rule="evenodd">
        <g id="logo_facebook_24">
            <rect id="Rectangle-530" x="0" y="0" width="24" height="24"></rect>
            <path d="M3,5 L3,19 C3,20.1045695 3.8954305,21 5,21 L10.997,21 L10.997,14.9925 L8.995,14.9925 L8.995,11.991 L10.9975,11.991 L10.9975,9.959 C10.9975,7.763 12.4665356,6.00836182 15.0363598,6.00836182 C15.9743598,6.00836182 17.2635,6.137 17.4985,6.1685 L17.3998015,8.96400023 L15.7698005,8.92498779 C14.7800706,8.96400045 13.9870005,9.72391895 13.9870005,10.4669189 L13.987,11.991 L16.993,11.991 L16.662,14.9925 L13.987,14.9925 L13.987,21 L19,21 C20.1045695,21 21,20.1045695 21,19 L21,5 C21,3.8954305 20.1045695,3 19,3 L5,3 C3.8954305,3 3,3.8954305 3,5 Z" id="Mask" fill="currentColor"></path>
        </g>
    </g>
  </symbol>
  <symbol viewBox="0 0 24 24" id="copy">
    <path fill-rule="evenodd" d="M4 12.3V12c0-1.47.005-2.547.075-3.403.074-.904.216-1.482.454-1.949a4.85 4.85 0 0 1 2.12-2.12c.466-.237 1.045-.379 1.948-.453C9.51 4.001 10.675 4 12.3 4h4.512a2.073 2.073 0 0 0-.174-.49 2.4 2.4 0 0 0-1.048-1.048 2.439 2.439 0 0 0-.931-.239 13.48 13.48 0 0 0-1.026-.023H12.26c-1.576 0-2.814 0-3.81.081-1.014.083-1.856.255-2.619.644A6.65 6.65 0 0 0 2.925 5.83c-.389.763-.56 1.605-.644 2.62-.081.995-.081 2.233-.081 3.809v1.373c0 .392 0 .738.023 1.025.025.306.081.623.239.931a2.4 2.4 0 0 0 1.048 1.05c.162.082.326.136.49.173V12.3ZM10.08 6h-.035c-.52 0-.964 0-1.329.03-.382.03-.755.097-1.112.276a2.9 2.9 0 0 0-1.298 1.298c-.179.357-.246.73-.277 1.112C6 9.081 6 9.524 6 10.046v7.909c0 .52 0 .964.03 1.329.03.382.097.755.276 1.112a2.9 2.9 0 0 0 1.298 1.298c.357.179.73.246 1.112.277.365.029.808.029 1.33.029h6.909c.52 0 .964 0 1.329-.03.383-.03.755-.097 1.112-.276a2.9 2.9 0 0 0 1.298-1.298c.179-.357.246-.73.277-1.112.029-.365.029-.808.029-1.33v-7.909c0-.52 0-.964-.03-1.329-.03-.382-.097-.755-.276-1.112a2.9 2.9 0 0 0-1.298-1.298c-.357-.179-.73-.246-1.112-.277C17.919 6 17.476 6 16.954 6H10.08ZM8.408 7.916c.065-.032.179-.07.452-.093a17.65 17.65 0 0 1 1.22-.023h6.84c.565 0 .936 0 1.22.023.273.022.387.06.452.093a1.1 1.1 0 0 1 .492.492c.032.065.07.179.093.452.022.284.023.655.023 1.22v7.84c0 .565 0 .936-.023 1.22-.023.273-.06.387-.093.452a1.1 1.1 0 0 1-.492.492c-.065.032-.179.07-.452.093a17.65 17.65 0 0 1-1.22.023h-6.84c-.565 0-.936 0-1.22-.023-.273-.023-.387-.06-.452-.093a1.1 1.1 0 0 1-.492-.492c-.032-.065-.07-.18-.093-.452a17.057 17.057 0 0 1-.023-1.22v-7.84c0-.565 0-.936.023-1.22.022-.273.06-.387.093-.452a1.1 1.1 0 0 1 .492-.492Z" clip-rule="evenodd"/>
  </symbol>
</svg>