<svg xmlns="http://www.w3.org/2000/svg" class="icon icon-tabler icon-tabler-2fa" width="24" height="24" viewBox="0 0 24 24" stroke-width="2" stroke="currentColor" fill="none" stroke-linecap="round" stroke-linejoin="round">
  <symbol id="bold" viewBox="0 0 32 32" stroke-width="1.4">
    <path stroke="none" d="M0 0h24v24H0z" fill="none"/>
    <path d="M7 5h6a3.5 3.5 0 0 1 0 7h-6z" />
    <path d="M13 12h1a3.5 3.5 0 0 1 0 7h-7v-7" />  
  </symbol>  
  <symbol id="plus" viewBox="0 0 32 32" stroke-width="1.4">
    <path stroke="none" d="M0 0h24v24H0z" fill="none"/>
    <line x1="12" y1="5" x2="12" y2="19" />
    <line x1="5" y1="12" x2="19" y2="12" />
  </symbol> 
   <symbol id="star" viewBox="0 0 32 32" stroke-width="1.4">
    <path stroke="none" d="M0 0h24v24H0z" fill="none"/>
    <path d="M12 17.75l-6.172 3.245l1.179 -6.873l-5 -4.867l6.9 -1l3.086 -6.253l3.086 6.253l6.9 1l-5 4.867l1.179 6.873z" />
  </symbol>   
  <symbol id="eye" viewBox="0 0 32 32" stroke-width="1.4">
    <path stroke="none" d="M0 0h24v24H0z" fill="none"/>
    <circle cx="12" cy="12" r="2" />
    <path d="M22 12c-2.667 4.667 -6 7 -10 7s-7.333 -2.333 -10 -7c2.667 -4.667 6 -7 10 -7s7.333 2.333 10 7" />
  </symbol>  
  <symbol id="message" viewBox="0 0 32 32" stroke-width="1.4"> 
 
  <path stroke="none" d="M0 0h24v24H0z" fill="none"></path>
  <path d="M21 14l-3 -3h-7a1 1 0 0 1 -1 -1v-6a1 1 0 0 1 1 -1h9a1 1 0 0 1 1 1v10"></path>
  <path d="M14 15v2a1 1 0 0 1 -1 1h-7l-3 3v-10a1 1 0 0 1 1 -1h2"></path>
 
  </symbol>  
  <symbol id="chevrons-down" viewBox="0 0 32 32" stroke-width="1.4"> 
    <path stroke="none" d="M0 0h24v24H0z" fill="none"/>
    <polyline points="6 9 12 15 18 9" />
  </symbol>   
  <symbol id="settings" viewBox="0 0 32 32" stroke-width="1.4">  
    <path stroke="none" d="M0 0h24v24H0z" fill="none"/>
     <path d="M10.325 4.317c.426 -1.756 2.924 -1.756 3.35 0a1.724 1.724 0 0 0 2.573 1.066c1.543 -.94 3.31 .826 2.37 2.37a1.724 1.724 0 0 0 1.065 2.572c1.756 .426 1.756 2.924 0 3.35a1.724 1.724 0 0 0 -1.066 2.573c.94 1.543 -.826 3.31 -2.37 2.37a1.724 1.724 0 0 0 -2.572 1.065c-.426 1.756 -2.924 1.756 -3.35 0a1.724 1.724 0 0 0 -2.573 -1.066c-1.543 .94 -3.31 -.826 -2.37 -2.37a1.724 1.724 0 0 0 -1.065 -2.572c-1.756 -.426 -1.756 -2.924 0 -3.35a1.724 1.724 0 0 0 1.066 -2.573c-.94 -1.543 .826 -3.31 2.37 -2.37c1 .608 2.296 .07 2.572 -1.065z" />
     <circle cx="12" cy="12" r="3" />
  </symbol> 
  <symbol id="user" viewBox="0 0 32 32" stroke-width="1.4">    
    <path stroke="none" d="M0 0h24v24H0z" fill="none"/>
    <circle cx="12" cy="7" r="4" />
    <path d="M6 21v-2a4 4 0 0 1 4 -4h4a4 4 0 0 1 4 4v2" />
  </symbol> 
  <symbol id="users" viewBox="0 0 32 32" stroke-width="1.4"> 
  <path stroke="none" d="M0 0h24v24H0z" fill="none"></path>
  <circle cx="9" cy="7" r="4"></circle>
  <path d="M3 21v-2a4 4 0 0 1 4 -4h4a4 4 0 0 1 4 4v2"></path>
  <path d="M16 3.13a4 4 0 0 1 0 7.75"></path>
  <path d="M21 21v-2a4 4 0 0 0 -3 -3.85"></path>
  </symbol> 
  
  <symbol id="info" viewBox="0 0 32 32" stroke-width="1.4"> 
    <path stroke="none" d="M0 0h24v24H0z" fill="none"></path>
  <line x1="12" y1="8" x2="12.01" y2="8"></line>
  <rect x="4" y="4" width="16" height="16" rx="2"></rect>
  <polyline points="11 12 12 12 12 16 13 16"></polyline>
   </symbol> 
<symbol id="menu" viewBox="0 0 32 32" stroke-width="1.4"> 
  <path stroke="none" d="M0 0h24v24H0z" fill="none"></path>
  <line x1="4" y1="6" x2="20" y2="6"></line>
  <line x1="4" y1="12" x2="20" y2="12"></line>
  <line x1="4" y1="18" x2="20" y2="18"></line>
</symbol>  
  <symbol id="ad" viewBox="0 0 32 32" stroke-width="1.4">  
    <path stroke="none" d="M0 0h24v24H0z" fill="none"/>
    <rect x="3" y="5" width="18" height="14" rx="2" />
    <path d="M7 15v-4a2 2 0 0 1 4 0v4" />
    <line x1="7" y1="13" x2="11" y2="13" />
    <path d="M17 9v6h-1.5a1.5 1.5 0 1 1 1.5 -1.5" />
  </symbol>  
  <symbol id="devices" viewBox="0 0 32 32" stroke-width="1.4">  
    <path stroke="none" d="M0 0h24v24H0z" fill="none"/>
    <rect x="13" y="8" width="8" height="12" rx="1" />
    <path d="M18 8v-3a1 1 0 0 0 -1 -1h-13a1 1 0 0 0 -1 1v12a1 1 0 0 0 1 1h9" />
    <line x1="16" y1="9" x2="18" y2="9" />
  </symbol>   
  <symbol id="arrow-bar-to-right" viewBox="0 0 32 32" stroke-width="1.4">  
    <path stroke="none" d="M0 0h24v24H0z" fill="none"/>
    <line x1="14" y1="12" x2="4" y2="12" />
    <line x1="14" y1="12" x2="10" y2="16" />
    <line x1="14" y1="12" x2="10" y2="8" />
    <line x1="20" y1="4" x2="20" y2="20" />
  </symbol> 
  <symbol id="arrow-bar-to-left" viewBox="0 0 32 32" stroke-width="1.4">  
   <path stroke="none" d="M0 0h24v24H0z" fill="none"></path>
   <line x1="10" y1="12" x2="20" y2="12"></line>
   <line x1="10" y1="12" x2="14" y2="16"></line>
   <line x1="10" y1="12" x2="14" y2="8"></line>
   <line x1="4" y1="4" x2="4" y2="20"></line>
  </symbol> 
  <symbol id="closed" viewBox="0 0 32 32" stroke-width="1.4">  
    <path stroke="none" d="M0 0h24v24H0z" fill="none"></path>
    <line x1="18" y1="6" x2="6" y2="18"></line>
    <line x1="6" y1="6" x2="18" y2="18"></line>
  </symbol> 
  <symbol id="lock" viewBox="0 0 32 32" stroke-width="1.4">  
    <path stroke="none" d="M0 0h24v24H0z" fill="none"/>
    <rect x="5" y="11" width="14" height="10" rx="2" />
    <circle cx="12" cy="16" r="1" />
    <path d="M8 11v-4a4 4 0 0 1 8 0v4" />  
  </symbol> 
  <symbol id="book" viewBox="0 0 32 32" stroke-width="1.4">  
    <path stroke="none" d="M0 0h24v24H0z" fill="none"/>
    <path d="M3 19a9 9 0 0 1 9 0a9 9 0 0 1 9 0" />
    <path d="M3 6a9 9 0 0 1 9 0a9 9 0 0 1 9 0" />
    <line x1="3" y1="6" x2="3" y2="19" />
    <line x1="12" y1="6" x2="12" y2="19" />
    <line x1="21" y1="6" x2="21" y2="19" />
  </symbol>   
  <symbol id="bulb" viewBox="0 0 32 32" stroke-width="1.4">
    <path stroke="none" d="M0 0h24v24H0z" fill="none"/>
    <path d="M3 12h1m8 -9v1m8 8h1m-15.4 -6.4l.7 .7m12.1 -.7l-.7 .7" />
    <path d="M9 16a5 5 0 1 1 6 0a3.5 3.5 0 0 0 -1 3a2 2 0 0 1 -4 0a3.5 3.5 0 0 0 -1 -3" />
    <line x1="9.7" y1="17" x2="14.3" y2="17" />
  </symbol>  
  <symbol id="bulb-off" viewBox="0 0 32 32" stroke-width="1.4">
    <path stroke="none" d="M0 0h24v24H0z" fill="none"/>
    <path d="M9 16a5 5 0 1 1 6 0a3.5 3.5 0 0 0 -1 3a2 2 0 0 1 -4 0a3.5 3.5 0 0 0 -1 -3" />
    <line x1="9.7" y1="17" x2="14.3" y2="17" />
  </symbol>    
  <symbol id="moon" viewBox="0 0 32 32" stroke-width="1.4">
    <path stroke="none" d="M0 0h24v24H0z" fill="none"/>
    <path d="M12 3c0.132 0 .263 0 .393 0a7.5 7.5 0 0 0 7.92 12.446a9 9 0 1 1 -8.313 -12.454z" />
  </symbol>      
  <symbol id="sun" viewBox="0 0 32 32" stroke-width="1.4">
    <path stroke="none" d="M0 0h24v24H0z" fill="none"/>
    <circle cx="12" cy="12" r="4" />
    <path d="M3 12h1m8 -9v1m8 8h1m-9 8v1m-6.4 -15.4l.7 .7m12.1 -.7l-.7 .7m0 11.4l.7 .7m-12.1 -.7l-.7 .7" />
  </symbol>  
  <symbol id="edit" viewBox="0 0 32 32" stroke-width="1.4">
    <path stroke="none" d="M0 0h24v24H0z" fill="none"/>
    <path d="M9 7h-3a2 2 0 0 0 -2 2v9a2 2 0 0 0 2 2h9a2 2 0 0 0 2 -2v-3" />
    <path d="M9 15h3l8.5 -8.5a1.5 1.5 0 0 0 -3 -3l-8.5 8.5v3" />
    <line x1="16" y1="5" x2="19" y2="8" />
  </symbol> 
  <symbol id="trash" viewBox="0 0 32 32" stroke-width="1.4">
    <path stroke="none" d="M0 0h24v24H0z" fill="none"/>
    <line x1="4" y1="7" x2="20" y2="7" />
    <line x1="10" y1="11" x2="10" y2="17" />
    <line x1="14" y1="11" x2="14" y2="17" />
    <path d="M5 7l1 12a2 2 0 0 0 2 2h8a2 2 0 0 0 2 -2l1 -12" />
    <path d="M9 7v-3a1 1 0 0 1 1 -1h4a1 1 0 0 1 1 1v3" />
  </symbol>   
  <symbol id="bookmark" viewBox="0 0 32 32" stroke-width="1.4">
    <path stroke="none" d="M0 0h24v24H0z" fill="none"/>
    <path d="M9 4h6a2 2 0 0 1 2 2v14l-5-3l-5 3v-14a2 2 0 0 1 2 -2" />
  </symbol>
  <symbol id="bookmark-off" viewBox="0 0 32 32" stroke-width="1.4">
      <path stroke="none" d="M0 0h24v24H0z" fill="none"/>
      <line x1="3" y1="3" x2="21" y2="21" />
      <path d="M17 17v3l-5 -3l-5 3v-13m1.178 -2.818c.252 -.113 .53 -.176 .822 -.176h6a2 2 0 0 1 2 2v7" />
  </symbol>
  <symbol id="mail" viewBox="0 0 32 32" stroke-width="1.4">
      <path stroke="none" d="M0 0h24v24H0z" fill="none"/>
      <rect x="3" y="5" width="18" height="14" rx="2" />
      <polyline points="3 7 12 13 21 7" />
  </symbol> 
  <symbol id="link" viewBox="0 0 32 32" stroke-width="1.4">
    <path stroke="none" d="M0 0h24v24H0z" fill="none"/>
    <path d="M10 14a3.5 3.5 0 0 0 5 0l4 -4a3.5 3.5 0 0 0 -5 -5l-.5 .5" />
    <path d="M14 10a3.5 3.5 0 0 0 -5 0l-4 4a3.5 3.5 0 0 0 5 5l.5 -.5" />
  </symbol>
  <symbol id="chat" viewBox="0 0 32 32" stroke-width="1.4">
    <path stroke="none" d="M0 0h24v24H0z" fill="none"></path>
    <path d="M17.802 17.292s.077 -.055 .2 -.149c1.843 -1.425 2.998 -3.49 2.998 -5.789c0 -4.286 -4.03 -7.764 -8.998 -7.764c-4.97 0 -9.002 3.478 -9.002 7.764c0 4.288 4.03 7.646 9 7.646c.424 0 1.12 -.028 2.088 -.084c1.262 .82 3.104 1.493 4.716 1.493c.499 0 .734 -.41 .414 -.828c-.486 -.596 -1.156 -1.551 -1.416 -2.29z"></path>
    <path d="M7.5 13.5c2.5 2.5 6.5 2.5 9 0"></path>
  </symbol>
</svg> 