<svg width="0" height="0" class="hidden">
  <symbol xmlns="http://www.w3.org/2000/svg" viewBox="0 0 24 24" id="plus">
    <line x1="12" y1="5" x2="12" y2="19"></line><line x1="5" y1="12" x2="19" y2="12"></line>
  </symbol>
  <symbol xmlns="http://www.w3.org/2000/svg" viewBox="0 0 24 24" id="bell">
    <path d="M18 8A6 6 0 0 0 6 8c0 7-3 9-3 9h18s-3-2-3-9"></path><path d="M13.73 21a2 2 0 0 1-3.46 0"></path>
  </symbol>
  <symbol xmlns="http://www.w3.org/2000/svg" viewBox="0 0 24 24" id="sun">
    <circle cx="12" cy="12" r="5"></circle><line x1="12" y1="1" x2="12" y2="3"></line><line x1="12" y1="21" x2="12" y2="23"></line><line x1="4.22" y1="4.22" x2="5.64" y2="5.64"></line><line x1="18.36" y1="18.36" x2="19.78" y2="19.78"></line><line x1="1" y1="12" x2="3" y2="12"></line><line x1="21" y1="12" x2="23" y2="12"></line><line x1="4.22" y1="19.78" x2="5.64" y2="18.36"></line><line x1="18.36" y1="5.64" x2="19.78" y2="4.22"></line>
  </symbol>
  <symbol xmlns="http://www.w3.org/2000/svg" viewBox="0 0 24 24" id="bookmark">
    <path d="M19 21l-7-5-7 5V5a2 2 0 0 1 2-2h10a2 2 0 0 1 2 2z"></path>
  </symbol>
  <symbol xmlns="http://www.w3.org/2000/svg" viewBox="0 0 24 24" id="gift">
    <polyline points="20 12 20 22 4 22 4 12"></polyline><rect x="2" y="7" width="20" height="5"></rect><line x1="12" y1="22" x2="12" y2="7"></line><path d="M12 7H7.5a2.5 2.5 0 0 1 0-5C11 2 12 7 12 7z"></path><path d="M12 7h4.5a2.5 2.5 0 0 0 0-5C13 2 12 7 12 7z"></path>
  </symbol>
  <symbol xmlns="http://www.w3.org/2000/svg" viewBox="0 0 24 24" id="folder">
    <path d="M22 19a2 2 0 0 1-2 2H4a2 2 0 0 1-2-2V5a2 2 0 0 1 2-2h5l2 3h9a2 2 0 0 1 2 2z"></path>
  </symbol>
  <symbol xmlns="http://www.w3.org/2000/svg" viewBox="0 0 24 24" id="tool">
    <path d="M14.7 6.3a1 1 0 0 0 0 1.4l1.6 1.6a1 1 0 0 0 1.4 0l3.77-3.77a6 6 0 0 1-7.94 7.94l-6.91 6.91a2.12 2.12 0 0 1-3-3l6.91-6.91a6 6 0 0 1 7.94-7.94l-3.76 3.76z"></path>
  </symbol>
  <symbol xmlns="http://www.w3.org/2000/svg" viewBox="0 0 24 24" id="facets">
    <rect x="9" y="9" width="13" height="13" rx="2" ry="2"></rect><path d="M5 15H4a2 2 0 0 1-2-2V4a2 2 0 0 1 2-2h9a2 2 0 0 1 2 2v1"></path>
  </symbol>
  <symbol xmlns="http://www.w3.org/2000/svg" viewBox="0 0 24 24" id="heart">
    <path d="M20.84 4.61a5.5 5.5 0 0 0-7.78 0L12 5.67l-1.06-1.06a5.5 5.5 0 0 0-7.78 7.78l1.06 1.06L12 21.23l7.78-7.78 1.06-1.06a5.5 5.5 0 0 0 0-7.78z"></path>
  </symbol>
  <symbol xmlns="http://www.w3.org/2000/svg" viewBox="0 0 24 24" id="edit">
    <path d="M17 3a2.828 2.828 0 1 1 4 4L7.5 20.5 2 22l1.5-5.5L17 3z"></path>
  </symbol>
  <symbol xmlns="http://www.w3.org/2000/svg" viewBox="0 0 24 24" id="calendar">
    <rect x="3" y="4" width="18" height="18" rx="2" ry="2"></rect><line x1="16" y1="2" x2="16" y2="6"></line><line x1="8" y1="2" x2="8" y2="6"></line><line x1="3" y1="10" x2="21" y2="10"></line>
  </symbol>
  <symbol xmlns="http://www.w3.org/2000/svg" viewBox="0 0 24 24" id="home">
    <path d="M3 9l9-7 9 7v11a2 2 0 0 1-2 2H5a2 2 0 0 1-2-2z"></path><polyline points="9 22 9 12 15 12 15 22"></polyline>
  </symbol>
  <symbol xmlns="http://www.w3.org/2000/svg" viewBox="0 0 24 24" id="mail">
    <path d="M4 4h16c1.1 0 2 .9 2 2v12c0 1.1-.9 2-2 2H4c-1.1 0-2-.9-2-2V6c0-1.1.9-2 2-2z"></path><polyline points="22,6 12,13 2,6"></polyline>
  </symbol>
  <symbol xmlns="http://www.w3.org/2000/svg" viewBox="0 0 24 24" id="eye">
    <path d="M1 12s4-8 11-8 11 8 11 8-4 8-11 8-11-8-11-8z"></path><circle cx="12" cy="12" r="3"></circle>
  </symbol>
  <symbol xmlns="http://www.w3.org/2000/svg" viewBox="0 0 24 24" id="message-circle">
    <path d="M21 11.5a8.38 8.38 0 0 1-.9 3.8 8.5 8.5 0 0 1-7.6 4.7 8.38 8.38 0 0 1-3.8-.9L3 21l1.9-5.7a8.38 8.38 0 0 1-.9-3.8 8.5 8.5 0 0 1 4.7-7.6 8.38 8.38 0 0 1 3.8-.9h.5a8.48 8.48 0 0 1 8 8v.5z"></path>
  </symbol>
  <symbol xmlns="http://www.w3.org/2000/svg" viewBox="0 0 24 24" id="menu">
    <line x1="3" y1="12" x2="21" y2="12"></line><line x1="3" y1="6" x2="21" y2="6"></line><line x1="3" y1="18" x2="21" y2="18"></line>
  </symbol>
  <symbol xmlns="http://www.w3.org/2000/svg" viewBox="0 0 24 24" id="more-horizontal">
    <circle cx="12" cy="12" r="1"></circle><circle cx="19" cy="12" r="1"></circle><circle cx="5" cy="12" r="1"></circle>
  </symbol>
  <symbol xmlns="http://www.w3.org/2000/svg" viewBox="0 0 24 24" id="monitor">
    <rect x="2" y="3" width="20" height="14" rx="2" ry="2"></rect><line x1="8" y1="21" x2="16" y2="21"></line><line x1="12" y1="17" x2="12" y2="21"></line>
  </symbol>
  <symbol xmlns="http://www.w3.org/2000/svg" viewBox="0 0 24 24" id="users">
    <path d="M17 21v-2a4 4 0 0 0-4-4H5a4 4 0 0 0-4 4v2"></path><circle cx="9" cy="7" r="4"></circle><path d="M23 21v-2a4 4 0 0 0-3-3.87"></path><path d="M16 3.13a4 4 0 0 1 0 7.75"></path>
  </symbol>
  <symbol xmlns="http://www.w3.org/2000/svg" viewBox="0 0 24 24" id="user">
    <path d="M20 21v-2a4 4 0 0 0-4-4H8a4 4 0 0 0-4 4v2"></path><circle cx="12" cy="7" r="4"></circle>
  </symbol>
  <symbol xmlns="http://www.w3.org/2000/svg" viewBox="0 0 24 24" id="link">
    <path d="M10 13a5 5 0 0 0 7.54.54l3-3a5 5 0 0 0-7.07-7.07l-1.72 1.71"></path><path d="M14 11a5 5 0 0 0-7.54-.54l-3 3a5 5 0 0 0 7.07 7.07l1.71-1.71"></path>
  </symbol>
  <symbol xmlns="http://www.w3.org/2000/svg" viewBox="0 0 24 24" id="hash">
    <line x1="4" y1="9" x2="20" y2="9"></line><line x1="4" y1="15" x2="20" y2="15"></line><line x1="10" y1="3" x2="8" y2="21"></line><line x1="16" y1="3" x2="14" y2="21"></line>
  </symbol>
  <symbol xmlns="http://www.w3.org/2000/svg" viewBox="0 0 24 24" id="info">
    <path stroke="none" d="M0 0h24v24H0z" fill="none"/><path d="M13 12h1c1 0 1 1 2.016 3.527c.984 2.473 .984 3.473 1.984 3.473h1" />
  <path d="M12 19c1.5 0 3 -2 4 -3.5s2.5 -3.5 4 -3.5" /><path d="M3 12h1l3 8l3 -16h10" />
  </symbol>
  <symbol xmlns="http://www.w3.org/2000/svg" viewBox="0 0 24 24" id="answers">
    <path d="M21 15a2 2 0 0 1-2 2H7l-4 4V5a2 2 0 0 1 2-2h14a2 2 0 0 1 2 2z"></path>
  </symbol>
  <symbol xmlns="http://www.w3.org/2000/svg" viewBox="0 0 24 24" id="comments">
    <path d="M21 11.5a8.38 8.38 0 0 1-.9 3.8 8.5 8.5 0 0 1-7.6 4.7 8.38 8.38 0 0 1-3.8-.9L3 21l1.9-5.7a8.38 8.38 0 0 1-.9-3.8 8.5 8.5 0 0 1 4.7-7.6 8.38 8.38 0 0 1 3.8-.9h.5a8.48 8.48 0 0 1 8 8v.5z"></path>
  </symbol>
  <symbol xmlns="http://www.w3.org/2000/svg" viewBox="0 0 24 24" id="book">
    <path d="M4 19.5A2.5 2.5 0 0 1 6.5 17H20"></path><path d="M6.5 2H20v20H6.5A2.5 2.5 0 0 1 4 19.5v-15A2.5 2.5 0 0 1 6.5 2z"></path>
  </symbol>
  <symbol xmlns="http://www.w3.org/2000/svg" viewBox="0 0 24 24" id="post">
    <path d="M14 2H6a2 2 0 0 0-2 2v16a2 2 0 0 0 2 2h12a2 2 0 0 0 2-2V8z"></path><polyline points="14 2 14 8 20 8"></polyline><line x1="16" y1="13" x2="8" y2="13"></line><line x1="16" y1="17" x2="8" y2="17"></line><polyline points="10 9 9 9 8 9"></polyline>
  </symbol>
  <symbol xmlns="http://www.w3.org/2000/svg" viewBox="0 0 24 24" id="css">
    <path stroke="none" d="M0 0h24v24H0z" fill="none"/><path d="M20 4l-2 14.5l-6 2l-6 -2l-2 -14.5z" /><path d="M8.5 8h7l-4.5 4h4l-.5 3.5l-2.5 .75l-2.5 -.75l-.1 -.5" />
  </symbol>
  <symbol xmlns="http://www.w3.org/2000/svg" viewBox="0 0 24 24" id="search">
    <circle cx="11" cy="11" r="8"></circle><line x1="21" y1="21" x2="16.65" y2="16.65"></line>
  </symbol>
  <symbol xmlns="http://www.w3.org/2000/svg" viewBox="0 0 24 24" id="award">
    <circle cx="12" cy="8" r="7"></circle><polyline points="8.21 13.89 7 23 12 20 17 23 15.79 13.88"></polyline>
  </symbol>
  <symbol xmlns="http://www.w3.org/2000/svg" viewBox="0 0 24 24" id="activity">
    <polyline points="22 12 18 12 15 21 9 3 6 12 2 12"></polyline>
  </symbol>
  <symbol xmlns="http://www.w3.org/2000/svg" viewBox="0 0 24 24" id="flag">
    <path d="M4 15s1-1 4-1 5 2 8 2 4-1 4-1V3s-1 1-4 1-5-2-8-2-4 1-4 1z"></path><line x1="4" y1="22" x2="4" y2="15"></line>
  </symbol>
  <symbol xmlns="http://www.w3.org/2000/svg" viewBox="0 0 24 24" id="circle">
    <path stroke="none" d="M0 0h24v24H0z" fill="none"/><circle cx="12" cy="12" r="9" />
  </symbol>
  <symbol xmlns="http://www.w3.org/2000/svg" viewBox="0 0 24 24" id="trash">
    <polyline points="3 6 5 6 21 6"></polyline><path d="M19 6v14a2 2 0 0 1-2 2H7a2 2 0 0 1-2-2V6m3 0V4a2 2 0 0 1 2-2h4a2 2 0 0 1 2 2v2"></path>
  </symbol>
  <symbol xmlns="http://www.w3.org/2000/svg" viewBox="0 0 24 24" id="trash-2">
    <polyline points="3 6 5 6 21 6"></polyline><path d="M19 6v14a2 2 0 0 1-2 2H7a2 2 0 0 1-2-2V6m3 0V4a2 2 0 0 1 2-2h4a2 2 0 0 1 2 2v2"></path><line x1="10" y1="11" x2="10" y2="17"></line><line x1="14" y1="11" x2="14" y2="17"></line>
  </symbol>
  <symbol xmlns="http://www.w3.org/2000/svg" viewBox="0 0 24 24" id="corner-down-right">
    <polyline points="15 10 20 15 15 20"></polyline><path d="M4 4v7a4 4 0 0 0 4 4h12"></path>
  </symbol>
  <symbol xmlns="http://www.w3.org/2000/svg" viewBox="0 0 24 24" id="git-merge">
    <circle cx="18" cy="18" r="3"></circle><circle cx="6" cy="6" r="3"></circle><path d="M6 21V9a9 9 0 0 0 9 9"></path>
  </symbol>
  <symbol xmlns="http://www.w3.org/2000/svg" viewBox="0 0 24 24" id="anchor">
    <circle cx="12" cy="5" r="3"></circle><line x1="12" y1="22" x2="12" y2="8"></line><path d="M5 12H2a10 10 0 0 0 20 0h-3"></path>
  </symbol>
  <symbol xmlns="http://www.w3.org/2000/svg" viewBox="0 0 24 24" id="settings">
    <circle cx="12" cy="12" r="3"></circle><path d="M19.4 15a1.65 1.65 0 0 0 .33 1.82l.06.06a2 2 0 0 1 0 2.83 2 2 0 0 1-2.83 0l-.06-.06a1.65 1.65 0 0 0-1.82-.33 1.65 1.65 0 0 0-1 1.51V21a2 2 0 0 1-2 2 2 2 0 0 1-2-2v-.09A1.65 1.65 0 0 0 9 19.4a1.65 1.65 0 0 0-1.82.33l-.06.06a2 2 0 0 1-2.83 0 2 2 0 0 1 0-2.83l.06-.06a1.65 1.65 0 0 0 .33-1.82 1.65 1.65 0 0 0-1.51-1H3a2 2 0 0 1-2-2 2 2 0 0 1 2-2h.09A1.65 1.65 0 0 0 4.6 9a1.65 1.65 0 0 0-.33-1.82l-.06-.06a2 2 0 0 1 0-2.83 2 2 0 0 1 2.83 0l.06.06a1.65 1.65 0 0 0 1.82.33H9a1.65 1.65 0 0 0 1-1.51V3a2 2 0 0 1 2-2 2 2 0 0 1 2 2v.09a1.65 1.65 0 0 0 1 1.51 1.65 1.65 0 0 0 1.82-.33l.06-.06a2 2 0 0 1 2.83 0 2 2 0 0 1 0 2.83l-.06.06a1.65 1.65 0 0 0-.33 1.82V9a1.65 1.65 0 0 0 1.51 1H21a2 2 0 0 1 2 2 2 2 0 0 1-2 2h-.09a1.65 1.65 0 0 0-1.51 1z"></path>
  </symbol>
  <symbol xmlns="http://www.w3.org/2000/svg" viewBox="0 0 24 24" id="stop">
    <path stroke="none" d="M0 0h24v24H0z" fill="none"/><path d="M8 13v-7.5a1.5 1.5 0 0 1 3 0v6.5" /><path d="M11 5.5v-2a1.5 1.5 0 1 1 3 0v8.5" />
    <path d="M14 5.5a1.5 1.5 0 0 1 3 0v6.5" /><path d="M17 7.5a1.5 1.5 0 0 1 3 0v8.5a6 6 0 0 1 -6 6h-2h.208a6 6 0 0 1 -5.012 -2.7a69.74 69.74 0 0 1 -.196 -.3c-.312 -.479 -1.407 -2.388 -3.286 -5.728a1.5 1.5 0 0 1 .536 -2.022a1.867 1.867 0 0 1 2.28 .28l1.47 1.47" />
  </symbol>
  <symbol xmlns="http://www.w3.org/2000/svg" viewBox="0 0 24 24" id="github">
    <path stroke="none" d="M0 0h24v24H0z" fill="none"/><path d="M9 19c-4.3 1.4 -4.3 -2.5 -6 -3m12 5v-3.5c0 -1 .1 -1.4 -.5 -2c2.8 -.3 5.5 -1.4 5.5 -6a4.6 4.6 0 0 0 -1.3 -3.2a4.2 4.2 0 0 0 -.1 -3.2s-1.1 -.3 -3.5 1.3a12.3 12.3 0 0 0 -6.2 0c-2.4 -1.6 -3.5 -1.3 -3.5 -1.3a4.2 4.2 0 0 0 -.1 3.2a4.6 4.6 0 0 0 -1.3 3.2c0 4.6 2.7 5.7 5.5 6c-.6 .6 -.6 1.2 -.5 2v3.5" />
  </symbol>
  <symbol xmlns="http://www.w3.org/2000/svg" viewBox="0 0 24 24" id="discord">
    <path stroke="none" d="M0 0h24v24H0z" fill="none"/><circle cx="9" cy="12" r="1" /><circle cx="15" cy="12" r="1" />
    <path d="M7.5 7.5c3.5 -1 5.5 -1 9 0" /><path d="M7 16.5c3.5 1 6.5 1 10 0" /><path d="M15.5 17c0 1 1.5 3 2 3c1.5 0 2.833 -1.667 3.5 -3c.667 -1.667 .5 -5.833 -1.5 -11.5c-1.457 -1.015 -3 -1.34 -4.5 -1.5l-1 2.5" /><path d="M8.5 17c0 1 -1.356 3 -1.832 3c-1.429 0 -2.698 -1.667 -3.333 -3c-.635 -1.667 -.476 -5.833 1.428 -11.5c1.388 -1.015 2.782 -1.34 4.237 -1.5l1 2.5" />
  </symbol> 
  <symbol xmlns="http://www.w3.org/2000/svg" viewBox="0 0 24 24" id="vk">
    <path stroke="none" d="M0 0h24v24H0z" fill="none"/><path d="M14 19h-4a8 8 0 0 1 -8 -8v-5h4v5a4 4 0 0 0 4 4h0v-9h4v4.5l.03 -.004a4.531 4.531 0 0 0 3.97 -4.496h4l-.342 1.711a6.858 6.858 0 0 1 -3.658 4.789h0a5.34 5.34 0 0 1 3.566 4.111l.434 2.389h0h-4a4.531 4.531 0 0 0 -3.97 -4.496v4.5z" />
  </symbol>
  <symbol xmlns="http://www.w3.org/2000/svg" viewBox="0 0 24 24" id="bold">
    <path stroke="none" d="M0 0h24v24H0z" fill="none"/><path d="M7 5h6a3.5 3.5 0 0 1 0 7h-6z" /><path d="M13 12h1a3.5 3.5 0 0 1 0 7h-7v-7" />
  </symbol>
  <symbol xmlns="http://www.w3.org/2000/svg" viewBox="0 0 24 24" id="italic">
    <path stroke="none" d="M0 0h24v24H0z" fill="none"/><line x1="11" y1="5" x2="17" y2="5" /><line x1="7" y1="19" x2="13" y2="19" /><line x1="14" y1="5" x2="10" y2="19" />
  </symbol>
  <symbol xmlns="http://www.w3.org/2000/svg" viewBox="0 0 24 24" id="strikethrough">
    <path stroke="none" d="M0 0h24v24H0z" fill="none"/><line x1="5" y1="12" x2="19" y2="12" /><path d="M16 6.5a4 2 0 0 0 -4 -1.5h-1a3.5 3.5 0 0 0 0 7h2a3.5 3.5 0 0 1 0 7h-1.5a4 2 0 0 1 -4 -1.5" />
  </symbol>
  <symbol xmlns="http://www.w3.org/2000/svg" viewBox="0 0 24 24" id="quote">
    <path stroke="none" d="M0 0h24v24H0z" fill="none"/><path d="M10 11h-4a1 1 0 0 1 -1 -1v-3a1 1 0 0 1 1 -1h3a1 1 0 0 1 1 1v6c0 2.667 -1.333 4.333 -4 5" /><path d="M19 11h-4a1 1 0 0 1 -1 -1v-3a1 1 0 0 1 1 -1h3a1 1 0 0 1 1 1v6c0 2.667 -1.333 4.333 -4 5" />
  </symbol>
  <symbol xmlns="http://www.w3.org/2000/svg" viewBox="0 0 24 24" id="code">
    <path stroke="none" d="M0 0h24v24H0z" fill="none"/><polyline points="7 8 3 12 7 16" /><polyline points="17 8 21 12 17 16" /><line x1="14" y1="4" x2="10" y2="20" />
  </symbol>
  <symbol xmlns="http://www.w3.org/2000/svg" viewBox="0 0 24 24" id="camera">
    <path stroke="none" d="M0 0h24v24H0z" fill="none"/><path d="M5 7h1a2 2 0 0 0 2 -2a1 1 0 0 1 1 -1h6a1 1 0 0 1 1 1a2 2 0 0 0 2 2h1a2 2 0 0 1 2 2v9a2 2 0 0 1 -2 2h-14a2 2 0 0 1 -2 -2v-9a2 2 0 0 1 2 -2" /><circle cx="12" cy="13" r="3" />
  </symbol>
  <symbol xmlns="http://www.w3.org/2000/svg" viewBox="0 0 24 24" id="layout-columns">
    <path stroke="none" d="M0 0h24v24H0z" fill="none"/><rect x="4" y="4" width="16" height="16" rx="2" /><line x1="12" y1="4" x2="12" y2="20" />
  </symbol>
  <symbol xmlns="http://www.w3.org/2000/svg" viewBox="0 0 24 24" id="arrow-up">
    <line x1="12" y1="19" x2="12" y2="5"></line><polyline points="5 12 12 5 19 12"></polyline>
  </symbol>
  <symbol xmlns="http://www.w3.org/2000/svg" viewBox="0 0 24 24" id="mic">
    <path d="M12 1a3 3 0 0 0-3 3v8a3 3 0 0 0 6 0V4a3 3 0 0 0-3-3z"></path><path d="M19 10v2a7 7 0 0 1-14 0v-2"></path><line x1="12" y1="19" x2="12" y2="23"></line><line x1="8" y1="23" x2="16" y2="23"></line>
  </symbol>
  <symbol xmlns="http://www.w3.org/2000/svg" viewBox="0 0 24 24" id="x-octagon">
    <polygon points="7.86 2 16.14 2 22 7.86 22 16.14 16.14 22 7.86 22 2 16.14 2 7.86 7.86 2"></polygon><line x1="15" y1="9" x2="9" y2="15"></line><line x1="9" y1="9" x2="15" y2="15"></line>
  </symbol>
  <symbol xmlns="http://www.w3.org/2000/svg" viewBox="0 0 24 24" id="closed">
    <path stroke="none" d="M0 0h24v24H0z" fill="none"/><path d="M12 3a12 12 0 0 0 8.5 3a12 12 0 0 1 -8.5 15a12 12 0 0 1 -8.5 -15a12 12 0 0 0 8.5 -3" /><circle cx="12" cy="11" r="1" /><line x1="12" y1="12" x2="12" y2="14.5" />
  </symbol>
  <symbol xmlns="http://www.w3.org/2000/svg" viewBox="0 0 24 24" id="arrows-maximize">
    <path stroke="none" d="M0 0h24v24H0z" fill="none"/><polyline points="16 4 20 4 20 8" /><line x1="14" y1="10" x2="20" y2="4" /><polyline points="8 20 4 20 4 16" /><line x1="4" y1="20" x2="10" y2="14" /><polyline points="16 20 20 20 20 16" /><line x1="14" y1="14" x2="20" y2="20" /><polyline points="8 4 4 4 4 8" /><line x1="4" y1="4" x2="10" y2="10" />
  </symbol>
  <symbol xmlns="http://www.w3.org/2000/svg" viewBox="0 0 24 24" id="cut">
    <path stroke="none" d="M0 0h24v24H0z" fill="none"/><circle cx="7" cy="17" r="3" /><circle cx="17" cy="17" r="3" /><line x1="9.15" y1="14.85" x2="18" y2="4" /><line x1="6" y1="4" x2="14.85" y2="14.85" />
  </symbol>
  <symbol xmlns="http://www.w3.org/2000/svg" viewBox="0 0 24 24" id="lock">
    <path stroke="none" d="M0 0h24v24H0z" fill="none"/><rect x="5" y="11" width="14" height="10" rx="2" /><circle cx="12" cy="16" r="1" /><path d="M8 11v-4a4 4 0 0 1 8 0v4" />
  </symbol>
  <symbol xmlns="http://www.w3.org/2000/svg" viewBox="0 0 24 24" id="eyeglass">
    <path stroke="none" d="M0 0h24v24H0z" fill="none"/><path d="M8 4h-2l-3 10" /><path d="M16 4h2l3 10" /><line x1="10" y1="16" x2="14" y2="16" /><path d="M21 16.5a3.5 3.5 0 0 1 -7 0v-2.5h7v2.5" /><path d="M10 16.5a3.5 3.5 0 0 1 -7 0v-2.5h7v2.5" />
  </symbol>
</svg>
