<svg width="0" height="0" class="hidden">
  <symbol xmlns="http://www.w3.org/2000/svg" viewBox="0 0 24 24" id="bug">
    <path d="M10.5 10.4a.9.9 0 0 1 .9-.9h1.2a.9.9 0 1 1 0 1.8h-1.2a.9.9 0 0 1-.9-.9Zm0 5a.9.9 0 0 1 .9-.9h1.2a.9.9 0 1 1 0 1.8h-1.2a.9.9 0 0 1-.9-.9Z"/><path fill-rule="evenodd" d="M3 8a.9.9 0 0 1 .9-.9h2.275a6.937 6.937 0 0 1 1.77-1.883l-1.681-1.68a.9.9 0 0 1 1.272-1.273l2.065 2.064A6.886 6.886 0 0 1 12 3.9c.844 0 1.652.151 2.399.428l2.065-2.064a.9.9 0 0 1 1.272 1.272l-1.68 1.681a6.937 6.937 0 0 1 1.77 1.883H20.1a.9.9 0 1 1 0 1.8h-1.465c.173.604.265 1.241.265 1.9v1.3h3.2a.9.9 0 1 1 0 1.8h-3.2V15c0 .732-.114 1.438-.325 2.1H20.1a.9.9 0 1 1 0 1.8h-2.407a6.893 6.893 0 0 1-5.693 3 6.893 6.893 0 0 1-5.693-3H3.9a.9.9 0 0 1 0-1.8h1.525A6.896 6.896 0 0 1 5.1 15v-1.1H1.9a.9.9 0 0 1 0-1.8h3.2v-1.3c0-.659.092-1.296.265-1.9H3.9A.9.9 0 0 1 3 8Zm3.9 2.8a5.1 5.1 0 1 1 10.2 0V15a5.1 5.1 0 0 1-10.2 0v-4.2Z" clip-rule="evenodd"/><path fill-rule="evenodd" d="M10.5 10.4a.9.9 0 0 1 .9-.9h1.2a.9.9 0 1 1 0 1.8h-1.2a.9.9 0 0 1-.9-.9Zm0 5a.9.9 0 0 1 .9-.9h1.2a.9.9 0 1 1 0 1.8h-1.2a.9.9 0 0 1-.9-.9Z" clip-rule="evenodd"/>
  </symbol>
  <symbol xmlns="http://www.w3.org/2000/svg" viewBox="0 0 24 24" id="plus">
    <g id="Page-2" stroke="none" stroke-width="1" fill="none" fill-rule="evenodd">
        <g id="add_24">
            <rect id="Bounds" x="0" y="0" width="24" height="24"></rect>
            <path d="M13.000006,11 L19.5,11 C20.0522847,11 20.5,11.4477153 20.5,12 C20.5,12.5522847 20.0522847,13 19.5,13 L13.000006,13 L13.000006,19.500084 C13.000006,20.0523464 12.5523089,20.5000435 12.0000465,20.5000435 C12.000032,20.5000435 12.0000175,20.5000435 12.000003,20.5000435 C11.4477096,20.5000195 11,20.0522904 11,19.499997 L11,13 L4.5,13 C3.94771525,13 3.5,12.5522847 3.5,12 C3.5,11.4477153 3.94771525,11 4.5,11 L11,11 L11,4.50000301 C11,3.9477166 11.4477166,3.5 12.000003,3.5 C12.5522894,3.5 13.000006,3.9477166 13.000006,4.50000301 L13.000006,11 Z" id="Mask" fill="currentColor"></path>
        </g>
    </g>
  </symbol>
  <symbol xmlns="http://www.w3.org/2000/svg" viewBox="0 0 24 24" id="write">
     <g id="Page-2" stroke="none" stroke-width="1" fill="none" fill-rule="evenodd">
        <g id="write_24">
            <polygon id="Shape" points="0 0 24 0 24 24 0 24"></polygon>
            <path d="M14.1882588,6.27301517 L17.7278487,9.81260506 L9.10415743,18.4354891 C8.33089999,19.2086803 7.3795132,19.7800394 6.33365949,20.0993225 L3.43116121,20.9854108 C3.2548849,21.0392252 3.06835948,20.9399503 3.01454502,20.763674 C2.99515549,20.700161 2.99515549,20.6323075 3.01454502,20.5687946 L3.90054461,17.6665868 C4.21988422,16.620548 4.79138805,15.6690125 5.5647823,14.8956845 L14.1882588,6.27301517 Z M15.2489686,5.21240463 L17.017722,3.44381677 C17.6035158,2.85807317 18.5532282,2.85809351 19.1389969,3.4438622 L20.5573573,4.86204088 C21.1431438,5.44782732 21.1431438,6.39757479 20.5573573,6.98336123 C20.5573422,6.98337637 20.5573271,6.98339152 20.5573119,6.98340666 L18.7885585,8.75199452 L15.2489686,5.21240463 Z" id="Mask" fill="currentColor"></path>
        </g>
    </g>
  </symbol>
  
  <symbol xmlns="http://www.w3.org/2000/svg" viewBox="0 0 24 24" id="donate">
	<path fill="currentColor" fill-rule="evenodd" d="M4.929 4.929C6.7375 3.1203 9.2387 2 12 2c2.7612 0 5.2624 1.1203 7.0711 2.929C20.8797 6.7376 22 9.2389 22 12c0 2.7612-1.1203 5.2624-2.9289 7.0711C17.2624 20.8798 14.7612 22 12 22c-2.7612 0-5.2624-1.1202-7.071-2.9289C3.1202 17.2624 2 14.7612 2 12c0-2.7611 1.1203-5.2624 2.929-7.071ZM12 3.8c-2.2646 0-4.3134.9169-5.7983 2.4017C4.7168 7.6867 3.8 9.7355 3.8 12s.9168 4.3134 2.4017 5.7983C7.6867 19.2832 9.7354 20.2 12 20.2s4.3134-.9168 5.7983-2.4017C19.2832 16.3134 20.2 14.2646 20.2 12s-.9168-4.3133-2.4017-5.7983C16.3134 4.717 14.2646 3.8 12 3.8Z" clip-rule="evenodd"/><path fill="currentColor" fill-rule="evenodd" d="M12 6.0047c.6868 0 1.3141.3893 1.6181 1.0042l.7839 1.5857 1.753.2543a1.8035 1.8035 0 0 1 1.4566 1.226 1.7992 1.7992 0 0 1-.4566 1.8466l-1.2684 1.2344.2994 1.7429a1.8002 1.8002 0 0 1-.7178 1.7619 1.807 1.807 0 0 1-1.9003.1371L12 15.9749l-1.5679.8229a1.807 1.807 0 0 1-1.9003-.1371 1.8001 1.8001 0 0 1-.7179-1.7619l.2995-1.7429-1.2685-1.2344a1.7993 1.7993 0 0 1-.4566-1.8466 1.8036 1.8036 0 0 1 1.4567-1.226l1.753-.2543.7839-1.5857A1.8047 1.8047 0 0 1 12 6.0047Zm0 1.8014 1.2038 2.435 2.6917.3905-1.9478 1.8954.4598 2.6763L12 13.9397l-2.4076 1.2636.4598-2.6763-1.9477-1.8954 2.6917-.3905L12 7.8061Z" clip-rule="evenodd"/>
   </symbol>
   
  <symbol xmlns="http://www.w3.org/2000/svg" viewBox="0 0 24 24" id="bell">
    <path d="M12.004 2.1c4.015 0 6.896 3.278 6.896 7.532v1.6c0 .228.193.531.72 1.075l.27.275c1.082 1.097 1.51 1.729 1.51 2.745 0 .445-.052.791-.268 1.206-.456.878-1.423 1.367-2.869 1.367l-1.912.001c-.629 2.332-2.13 3.6-4.351 3.6-2.245 0-3.754-1.295-4.371-3.675l.019.074H5.737c-1.488 0-2.466-.502-2.902-1.41-.191-.398-.235-.72-.235-1.163 0-1.016.428-1.648 1.51-2.745l.27-.275c.527-.544.72-.847.72-1.076v-1.6C5.1 5.38 7.988 2.1 12.004 2.1Zm2.462 15.802H9.534C9.99 19.148 10.776 19.7 12 19.7c1.224 0 2.01-.552 2.466-1.798ZM12.004 3.9C9.036 3.9 6.9 6.327 6.9 9.632v1.6c0 .852-.39 1.463-1.228 2.328-.073.075-.142.146-.281.286-.747.758-.991 1.118-.991 1.481 0 .192.014.292.057.382.107.224.433.391 1.28.391h12.526c.82 0 1.153-.169 1.272-.397.05-.095.065-.197.065-.376 0-.363-.244-.723-.99-1.48-.14-.141-.209-.212-.282-.287-.839-.865-1.228-1.476-1.228-2.329v-1.6c0-3.307-2.13-5.731-5.096-5.731Z"/>
  </symbol>
  <symbol xmlns="http://www.w3.org/2000/svg" viewBox="0 0 24 24" id="sun">
    <path d="M12.002 1a.9.9 0 0 1 .9.9v2.2a.9.9 0 0 1-1.8 0V1.9a.9.9 0 0 1 .9-.9Zm.002 18a.9.9 0 0 1 .9.9v2.2a.9.9 0 0 1-1.8 0v-2.2a.9.9 0 0 1 .9-.9ZM4.661 8.884a.9.9 0 0 0 .9-1.559L3.355 6.128a.9.9 0 0 0-.9 1.559L4.66 8.884Zm17.223 8.663a.9.9 0 0 1-1.23.33l-2.205-1.193a.9.9 0 1 1 .9-1.56l2.205 1.193a.9.9 0 0 1 .33 1.23Zm-3.43-10.23a.9.9 0 1 0 .9 1.56l2.198-1.197a.9.9 0 1 0-.9-1.558l-2.198 1.195ZM2.128 17.547a.9.9 0 0 1 .33-1.23l2.191-1.2a.9.9 0 0 1 .9 1.559l-2.19 1.2a.9.9 0 0 1-1.23-.33Z M12.004 7a4.99 4.99 0 0 0-3.536 1.464A4.983 4.983 0 0 0 7.003 12c0 1.38.56 2.63 1.465 3.536A4.987 4.987 0 0 0 12.004 17c1.382 0 2.632-.56 3.537-1.464A4.983 4.983 0 0 0 17.006 12c0-1.38-.56-2.63-1.465-3.536A4.987 4.987 0 0 0 12.004 7ZM9.741 9.737a3.186 3.186 0 0 1 2.263-.937c.885 0 1.683.356 2.264.937.581.581.938 1.379.938 2.263 0 .884-.357 1.682-.938 2.263a3.186 3.186 0 0 1-2.264.937 3.186 3.186 0 0 1-2.263-.937A3.183 3.183 0 0 1 8.803 12c0-.884.357-1.682.938-2.263Z" clip-rule="evenodd"/>
  </symbol>
  <symbol xmlns="http://www.w3.org/2000/svg" viewBox="0 0 24 24" id="bookmark">
    <path clip-rule="evenodd" d="m11.0834 3h1.8332c1.0561-.00001 1.9034-.00001 2.5887.05597.7041.05753 1.316.17864 1.8799.46599.9011.45913 1.6337 1.19173 2.0928 2.09282.2874.56396.4085 1.1758.466 1.87994.056.68525.056 1.53261.056 2.58868v7.6146c0 .7726 0 1.4144-.0454 1.9136-.045.4941-.145 1.0268-.4816 1.4539-.4585.5817-1.1552.9254-1.8959.9353-.5437.0072-1.0273-.2376-1.4468-.5026-.4238-.2677-.9331-.6582-1.5462-1.1284l-1.6172-1.2401c-.6073-.4657-.7136-.5262-.7973-.5486-.1111-.0297-.2281-.0297-.3392 0-.0837.0224-.1899.0829-.7973.5486l-1.6172 1.2401c-.61313.4702-1.12241.8607-1.54624 1.1284-.41949.265-.9031.5098-1.44679.5026-.74067-.0099-1.43732-.3536-1.89585-.9353-.33658-.4271-.43657-.9598-.48157-1.4539-.04548-.4992-.04547-1.141-.04545-1.9136v-7.6146c-.00001-1.05606-.00001-1.90343.05597-2.58868.05753-.70414.17864-1.31598.46599-1.87994.45913-.90109 1.19173-1.63369 2.09282-2.09282.56396-.28735 1.1758-.40846 1.87994-.46599.68525-.05598 1.53258-.05598 2.58868-.05597zm-2.4421 1.84999c-.59282.04844-.94142.13927-1.20934.27578-.56239.28655-1.01963.7438-1.30619 1.30619-.13651.26792-.22734.61651-.27577 1.20934-.0493.60333-.05 1.37708-.05 2.4809v7.5314c0 .8283.0009 1.3871.03802 1.7947.03771.414.10276.503.10276.503.12241.1554.30832.247.50605.2496 0 0 .11014-.0026.4616-.2245.346-.2186.78999-.5579 1.44732-1.062l1.58208-1.2131c.03379-.0259.06737-.0518.10077-.0775.4385-.3377.8488-.6536 1.3262-.7814.4161-.1115.8543-.1115 1.2704 0 .4774.1278.8877.4437 1.3262.7814.0334.0257.067.0516.1008.0775l1.5821 1.2131c.6573.5041 1.1013.8434 1.4473 1.062.3514.2219.4617.2245.4617.2245.1977-.0026.3836-.0943.506-.2497 0 0 .065-.0889.1027-.5029.0371-.4076.038-.9664.038-1.7947v-7.5314c0-1.10382-.0007-1.87757-.05-2.4809-.0484-.59283-.1393-.94142-.2758-1.20934-.2865-.56239-.7438-1.01964-1.3062-1.30619-.2679-.13651-.6165-.22734-1.2093-.27578-.6033-.04929-1.3771-.04999-2.4809-.04999h-1.7556c-1.1038 0-1.87757.0007-2.4809.04999z" fill="currentColor" fill-rule="evenodd"/>
  </symbol>
  <symbol xmlns="http://www.w3.org/2000/svg" viewBox="0 0 24 24" id="copy">
    <path fill-rule="evenodd" d="M4 12.3V12c0-1.47.005-2.547.075-3.403.074-.904.216-1.482.454-1.949a4.85 4.85 0 0 1 2.12-2.12c.466-.237 1.045-.379 1.948-.453C9.51 4.001 10.675 4 12.3 4h4.512a2.073 2.073 0 0 0-.174-.49 2.4 2.4 0 0 0-1.048-1.048 2.439 2.439 0 0 0-.931-.239 13.48 13.48 0 0 0-1.026-.023H12.26c-1.576 0-2.814 0-3.81.081-1.014.083-1.856.255-2.619.644A6.65 6.65 0 0 0 2.925 5.83c-.389.763-.56 1.605-.644 2.62-.081.995-.081 2.233-.081 3.809v1.373c0 .392 0 .738.023 1.025.025.306.081.623.239.931a2.4 2.4 0 0 0 1.048 1.05c.162.082.326.136.49.173V12.3ZM10.08 6h-.035c-.52 0-.964 0-1.329.03-.382.03-.755.097-1.112.276a2.9 2.9 0 0 0-1.298 1.298c-.179.357-.246.73-.277 1.112C6 9.081 6 9.524 6 10.046v7.909c0 .52 0 .964.03 1.329.03.382.097.755.276 1.112a2.9 2.9 0 0 0 1.298 1.298c.357.179.73.246 1.112.277.365.029.808.029 1.33.029h6.909c.52 0 .964 0 1.329-.03.383-.03.755-.097 1.112-.276a2.9 2.9 0 0 0 1.298-1.298c.179-.357.246-.73.277-1.112.029-.365.029-.808.029-1.33v-7.909c0-.52 0-.964-.03-1.329-.03-.382-.097-.755-.276-1.112a2.9 2.9 0 0 0-1.298-1.298c-.357-.179-.73-.246-1.112-.277C17.919 6 17.476 6 16.954 6H10.08ZM8.408 7.916c.065-.032.179-.07.452-.093a17.65 17.65 0 0 1 1.22-.023h6.84c.565 0 .936 0 1.22.023.273.022.387.06.452.093a1.1 1.1 0 0 1 .492.492c.032.065.07.179.093.452.022.284.023.655.023 1.22v7.84c0 .565 0 .936-.023 1.22-.023.273-.06.387-.093.452a1.1 1.1 0 0 1-.492.492c-.065.032-.179.07-.452.093a17.65 17.65 0 0 1-1.22.023h-6.84c-.565 0-.936 0-1.22-.023-.273-.023-.387-.06-.452-.093a1.1 1.1 0 0 1-.492-.492c-.032-.065-.07-.18-.093-.452a17.057 17.057 0 0 1-.023-1.22v-7.84c0-.565 0-.936.023-1.22.022-.273.06-.387.093-.452a1.1 1.1 0 0 1 .492-.492Z" clip-rule="evenodd"/>
  </symbol>
  <symbol xmlns="http://www.w3.org/2000/svg" viewBox="0 0 24 24" id="rss">
    <g id="Page-2" stroke="none" stroke-width="1" fill="none" fill-rule="evenodd">
        <g id="followers_24">
            <polygon id="Shape" points="0 0 24 0 24 24 0 24"></polygon>
            <path d="M4.83814008,5.02919906 C5.109433,5.04214786 5.33254937,5.05735095 5.5074892,5.07480833 C12.5438641,5.77697354 18.1482047,11.3417425 18.9113734,18.3599775 C18.9337183,18.5654653 18.9529506,18.8323842 18.9690702,19.1607341 L18.969109,19.1607322 C18.9907746,19.6020499 18.6505793,19.9773721 18.2092615,19.9990376 C18.196195,19.9996791 18.1831148,20 18.1700325,20 L16.7679281,20.0000105 C16.3431162,20.0000105 15.9923811,19.6679839 15.969118,19.2438094 C15.9537992,18.9644906 15.9356245,18.7368496 15.914594,18.5608866 C15.2483494,12.9863994 10.7605116,8.58585581 5.14581927,8.05399445 C5.03982293,8.04395377 4.9106277,8.03494716 4.75823359,8.02697464 L4.7582321,8.02700318 C4.33321271,8.00476821 4,7.65366775 4,7.22806715 L4.00000974,5.82827962 C4.00000974,5.3864572 4.35817758,5.02828936 4.8,5.02828936 C4.81271879,5.02828936 4.82543576,5.02859268 4.83814008,5.02919906 Z M4.85727954,10.0599174 C5.23665994,10.087152 5.44618056,10.1037232 5.48584139,10.109631 C9.71963121,10.7402843 13.0869279,14.0247654 13.8414773,18.2168203 C13.8831912,18.4485705 13.9189162,18.7556235 13.9486524,19.1379792 L13.9486438,19.1379798 C13.9829013,19.5784728 13.6535825,19.9633341 13.2130896,19.9975916 C13.1924523,19.9991966 13.1717604,20 13.1510608,20 L11.8967479,19.9999504 C11.481355,19.9999504 11.1350791,19.6820088 11.0997036,19.268125 C11.085979,19.1075515 11.0704048,18.9727626 11.052981,18.8637585 C10.5681127,15.8304087 8.17344635,13.4344872 5.140725,12.9477372 C5.13365806,12.9466029 4.99907517,12.9356788 4.73697632,12.9149648 L4.73697593,12.9149696 C4.32088626,12.8820855 4,12.5348386 4,12.1174515 L4.00003916,10.8578249 C4.00003916,10.4160187 4.35819383,10.0578641 4.8,10.0578641 C4.81911158,10.0578641 4.83821702,10.0585489 4.85727954,10.0599174 Z M8.1189656,20 L4.8,20 C4.3581722,20 4,19.6418278 4,19.2 L4.00004446,15.87618 C4.00004446,15.4343768 4.35819675,15.0762245 4.8,15.0762245 C4.84713704,15.0762245 4.89418184,15.0803908 4.94058525,15.0886747 C4.95911746,15.091983 4.97690727,15.0953564 4.99395468,15.0987949 C6.89271353,15.4817714 8.40179689,16.9404907 8.85793317,18.811681 C8.87631712,18.8870968 8.89341828,18.9750551 8.90923665,19.0755558 L8.90929499,19.0755466 C8.97799606,19.5120335 8.67984676,19.9215693 8.2433599,19.9902703 C8.20221164,19.9967469 8.16062042,20 8.1189656,20 Z" id="Mask" fill="currentColor"></path>
        </g>
    </g>
  </symbol>
  <symbol xmlns="http://www.w3.org/2000/svg" viewBox="0 0 24 24" id="gift">
    <path fill-rule="evenodd" d="M13.012 2.229a2.344 2.344 0 0 0-2.02 0c-.47.233-.763.667-.979 1.054-.222.399-.462.935-.748 1.574L8.107 7.452l-1.15-.687c-.679-.405-1.24-.74-1.69-.958-.427-.206-.958-.416-1.507-.316a2.2 2.2 0 0 0-1.603 1.243c-.234.507-.162 1.073-.068 1.538.099.491.284 1.117.507 1.875l1.24 4.204c.066.227.1.341.127.457.05.219.082.441.096.666.007.118.007.237.007.474 0 .53 0 .981.03 1.352.032.389.101.767.286 1.13a2.9 2.9 0 0 0 1.267 1.267c.362.184.74.254 1.13.286.37.03.821.017 1.351.017h7.742c.53 0 .981.013 1.352-.017.389-.032.767-.102 1.13-.286a2.9 2.9 0 0 0 1.267-1.268c.184-.362.254-.74.285-1.13.03-.37.03-.821.03-1.35 0-.235 0-.352.007-.468.014-.227.046-.452.098-.673.026-.114.059-.226.125-.45l1.241-4.211c.224-.758.408-1.384.508-1.875.094-.465.165-1.031-.069-1.538a2.2 2.2 0 0 0-1.602-1.243c-.55-.1-1.08.11-1.508.316-.45.219-1.01.553-1.689.958l-1.15.687-1.159-2.595c-.286-.64-.525-1.175-.748-1.574-.216-.387-.508-.82-.978-1.054Zm5.125 13.683H5.866c0 .575 0 .953.024 1.241.023.278.062.393.096.46a1.1 1.1 0 0 0 .48.48c.066.033.182.073.46.096.288.023.665.024 1.24.024h7.67c.575 0 .953-.001 1.241-.024.278-.023.393-.063.459-.096a1.1 1.1 0 0 0 .48-.48c.034-.067.074-.182.096-.46.024-.288.025-.666.025-1.24ZM11.602 4.13c.185-.314.64-.286.817.031.178.32.385.78.693 1.47l1.554 3.48a.9.9 0 0 0 1.284.406l1.982-1.184c.725-.433.953-.58 1.589-.906l.022-.01c.326-.166.68.14.607.499-.081.404-.243.954-.481 1.764l-1.307 4.432H5.642L4.334 9.68a42.01 42.01 0 0 1-.482-1.764c-.09-.362.294-.65.63-.489.37.18.863.473 1.589.906l1.982 1.184a.9.9 0 0 0 1.283-.406l1.554-3.48c.308-.69.515-1.15.693-1.47l.018-.03Z" clip-rule="evenodd"/>
  </symbol>
  <symbol xmlns="http://www.w3.org/2000/svg" viewBox="0 0 24 24" id="grid">
    <path fill-rule="evenodd" d="M16.159 2.985h1.492c.24 0 .517 0 .759.02.278.022.665.08 1.068.285A2.8 2.8 0 0 1 20.7 4.514c.206.403.263.79.286 1.068.02.242.02.518.02.759v.088c0 .24 0 .517-.02.76-.023.278-.08.664-.286 1.067a2.8 2.8 0 0 1-1.223 1.224c-.403.205-.79.263-1.068.285-.242.02-.519.02-.76.02h-1.536c-.24 0-.517 0-.759-.02a2.816 2.816 0 0 1-1.068-.285 2.8 2.8 0 0 1-1.223-1.224 2.816 2.816 0 0 1-.286-1.068 9.686 9.686 0 0 1-.02-.759v-.088c0-.24 0-.517.02-.76.023-.277.08-.664.286-1.067a2.8 2.8 0 0 1 1.223-1.224c.403-.205.79-.263 1.068-.285.242-.02.519-.02.76-.02h.044Zm-1.491 2.346c-.11.214-.11.494-.11 1.054s0 .84.11 1.054a1 1 0 0 0 .437.437c.213.11.493.11 1.054.11h1.447c.56 0 .84 0 1.054-.11a1 1 0 0 0 .437-.437c.11-.214.11-.494.11-1.054s0-.84-.11-1.054a1 1 0 0 0-.437-.437c-.213-.109-.494-.109-1.054-.109H16.16c-.56 0-.84 0-1.054.11a1 1 0 0 0-.437.436Zm2.938 5.869h-1.492c-.24 0-.517 0-.759.02-.278.022-.665.08-1.068.285a2.8 2.8 0 0 0-1.223 1.224c-.206.403-.263.79-.286 1.068-.02.242-.02.518-.02.759v3.091c0 .24 0 .517.02.76.023.277.08.664.286 1.067a2.8 2.8 0 0 0 1.223 1.224c.403.205.79.263 1.068.285.242.02.519.02.76.02h1.536c.24 0 .517 0 .759-.02.278-.022.665-.08 1.068-.285a2.8 2.8 0 0 0 1.223-1.224c.206-.403.263-.79.286-1.068.02-.242.02-.518.02-.759v-3.091c0-.24 0-.517-.02-.76a2.817 2.817 0 0 0-.286-1.067 2.8 2.8 0 0 0-1.223-1.224 2.815 2.815 0 0 0-1.068-.285 9.687 9.687 0 0 0-.76-.02h-.044Zm-3.047 3.4c0-.56 0-.84.109-1.054a1 1 0 0 1 .437-.437c.213-.109.493-.109 1.054-.109h1.447c.56 0 .84 0 1.054.109a1 1 0 0 1 .437.437c.11.214.11.494.11 1.054v3.003c0 .56 0 .84-.11 1.054a.999.999 0 0 1-.437.437c-.213.109-.494.109-1.054.109H16.16c-.56 0-.84 0-1.054-.11a.999.999 0 0 1-.437-.436c-.11-.214-.11-.494-.11-1.054V14.6Zm-6.704-.398H6.36c-.24 0-.517 0-.76.02-.277.023-.664.08-1.067.286a2.8 2.8 0 0 0-1.224 1.223c-.205.403-.263.79-.285 1.068-.02.242-.02.519-.02.76v.088c0 .24 0 .517.02.76.022.277.08.664.285 1.067a2.8 2.8 0 0 0 1.224 1.224c.403.205.79.263 1.068.285.242.02.518.02.759.02h1.539c.24 0 .517 0 .76-.02.277-.022.664-.08 1.067-.285a2.8 2.8 0 0 0 1.224-1.224c.205-.403.263-.79.285-1.068.02-.242.02-.519.02-.76v-.088c0-.24 0-.517-.02-.759a2.816 2.816 0 0 0-.285-1.068 2.8 2.8 0 0 0-1.224-1.223 2.817 2.817 0 0 0-1.068-.286 9.687 9.687 0 0 0-.759-.02h-.044Zm-3.051 3.4c0-.56 0-.84.109-1.054a1 1 0 0 1 .437-.437c.214-.109.494-.109 1.054-.109h1.45c.56 0 .84 0 1.055.11a1 1 0 0 1 .437.436c.109.214.109.494.109 1.055 0 .56 0 .84-.11 1.054a1 1 0 0 1-.436.437c-.214.109-.494.109-1.054.109H6.404c-.56 0-.84 0-1.054-.11a1 1 0 0 1-.437-.436c-.109-.214-.109-.494-.109-1.054Zm3.053-14.6H6.36c-.24 0-.517 0-.76.02-.277.022-.664.08-1.067.285A2.8 2.8 0 0 0 3.309 4.53c-.205.403-.263.79-.285 1.067-.02.242-.02.519-.02.76V9.44c0 .24 0 .517.02.76.022.277.08.664.285 1.067a2.8 2.8 0 0 0 1.224 1.224c.403.205.79.263 1.068.286.242.02.518.02.759.02H7.9c.24 0 .517 0 .76-.02.277-.023.664-.08 1.067-.286a2.8 2.8 0 0 0 1.224-1.224c.205-.403.263-.79.285-1.067.02-.243.02-.52.02-.76V6.357c0-.24 0-.518-.02-.76a2.815 2.815 0 0 0-.285-1.067 2.8 2.8 0 0 0-1.224-1.224A2.817 2.817 0 0 0 8.66 3.02 9.712 9.712 0 0 0 7.901 3h-.044ZM4.804 6.4c0-.56 0-.84.109-1.054a1 1 0 0 1 .437-.437c.214-.11.494-.11 1.054-.11h1.453c.56 0 .84 0 1.054.11a1 1 0 0 1 .437.437c.109.214.109.494.109 1.054v2.995c0 .56 0 .84-.109 1.054a1 1 0 0 1-.437.437c-.214.11-.494.11-1.054.11H6.404c-.56 0-.84 0-1.054-.11a1 1 0 0 1-.437-.437c-.109-.214-.109-.494-.109-1.054V6.401Z" clip-rule="evenodd"/>
  </symbol>
  <symbol xmlns="http://www.w3.org/2000/svg" viewBox="0 0 24 24" id="chart">
    <g fill="currentColor"><path d="m16.0001 4.00458c.4971 0 .9.40294.9.9v15.20002c0 .497-.4029.9-.9.9s-.9-.403-.9-.9v-15.20002c0-.49706.4029-.9.9-.9z"/><path d="m4.0001 6.00232c.49706 0 .9.40294.9.9v13.19768c0 .4971-.40294.9-.9.9s-.9-.4029-.9-.9v-13.19768c0-.49706.40294-.9.9-.9z"/><path d="m8.0001 9.00403c.49705 0 .9.40294.9.9v10.19997c0 .4971-.40295.9-.9.9-.49706 0-.9-.4029-.9-.9v-10.19997c0-.49706.40294-.9.9-.9z"/><path d="m12.9001 16.9023c0-.497-.4029-.9-.9-.9s-.9.403-.9.9v3.2c0 .4971.4029.9.9.9s.9-.4029.9-.9z"/><path d="m20.9001 13.9046c0-.4971-.4029-.9-.9-.9s-.9.4029-.9.9v6.2c0 .497.4029.9.9.9s.9-.403.9-.9z"/></g>
  </symbol>
  <symbol xmlns="http://www.w3.org/2000/svg" viewBox="0 0 24 24" id="folder">
    <path fill-rule="evenodd" d="M8.424 3.05C8.18 3 7.93 3 7.67 3h-.094c-.767 0-1.395 0-1.907.04-.528.04-1.007.128-1.457.345A3.9 3.9 0 0 0 2.385 5.21c-.217.45-.304.929-.345 1.457C2 7.18 2 7.808 2 8.575v5.763c0 .808 0 1.469.044 2.006.045.556.142 1.058.381 1.527a3.9 3.9 0 0 0 1.704 1.704c.47.239.971.336 1.527.381C6.193 20 6.854 20 7.662 20h8.676c.808 0 1.469 0 2.006-.044.556-.045 1.058-.142 1.526-.381a3.9 3.9 0 0 0 1.705-1.704c.239-.47.336-.971.381-1.527.044-.537.044-1.198.044-2.006v-3.476c0-.808 0-1.469-.044-2.006-.045-.556-.142-1.058-.381-1.527a3.9 3.9 0 0 0-1.704-1.704c-.47-.239-.971-.336-1.527-.381-.537-.044-1.198-.044-2.006-.044h-4.432c-.374 0-.427-.005-.469-.014a.6.6 0 0 1-.161-.06c-.038-.022-.08-.053-.361-.3L9.718 3.773c-.195-.172-.382-.337-.6-.46a2.4 2.4 0 0 0-.694-.262ZM7.611 4.8c.356 0 .406.004.446.013a.6.6 0 0 1 .173.065c.035.02.076.05.343.285L9.77 6.218c.206.181.403.355.633.482a2.4 2.4 0 0 0 .646.244c.258.057.52.056.794.056H16.3c.855 0 1.442 0 1.897.038.445.036.684.103.856.19a2.1 2.1 0 0 1 .918.919c.088.172.155.411.191.856l.014.197H3.8v-.589c0-.812 0-1.37.034-1.803.033-.423.094-.652.173-.818a2.1 2.1 0 0 1 .983-.983c.166-.08.395-.14.818-.173.433-.033.99-.034 1.803-.034ZM3.8 11v3.3c0 .855 0 1.442.038 1.897.036.445.103.684.19.856a2.1 2.1 0 0 0 .919.918c.172.088.411.155.856.191.455.037 1.042.038 1.897.038h8.6c.855 0 1.442 0 1.897-.038.445-.036.684-.103.856-.19a2.1 2.1 0 0 0 .918-.919c.088-.172.155-.411.191-.856.037-.455.038-1.042.038-1.897V11H3.8Z" clip-rule="evenodd"/>
  </symbol>
  <symbol xmlns="http://www.w3.org/2000/svg" viewBox="0 0 24 24" id="tool">
    <path fill-rule="evenodd" d="M2.88 16.766a2.997 2.997 0 0 1 0-4.24l2.138-2.137a.634.634 0 0 0 .161-.595A6.747 6.747 0 0 1 11.75 1.5c.829 0 1.622.149 2.355.422.38.14.457.623.17.91l-2.6 2.612a.6.6 0 0 0-.174.423V7.9a.6.6 0 0 0 .6.6h2.029a.6.6 0 0 0 .423-.175l2.616-2.603c.287-.286.769-.21.91.17a6.747 6.747 0 0 1-7.858 8.921.633.633 0 0 0-.592.162l-2.15 2.145a3.003 3.003 0 0 1-4.244 0l-.355-.355Zm8.87-3.278a5.247 5.247 0 0 0 5.245-5.478L15.61 9.39a2.1 2.1 0 0 1-1.48.61H12.1A2.1 2.1 0 0 1 10 7.9V5.867a2.1 2.1 0 0 1 .612-1.481l1.374-1.38A5.247 5.247 0 0 0 6.64 9.45a2.133 2.133 0 0 1-.56 2l-2.14 2.136a1.497 1.497 0 0 0 0 2.118l.356.355a1.503 1.503 0 0 0 2.124 0l2.149-2.146a2.133 2.133 0 0 1 1.99-.562c.382.089.78.136 1.192.136Z" clip-rule="evenodd"/>
  </symbol>
  <symbol xmlns="http://www.w3.org/2000/svg" viewBox="0 0 24 24" id="heart">
    <g fill="none" fill-rule="evenodd"><path d="m0 0h24v24h-24z"/><path d="m15.9917661 4.00598639c-1.4512572.06381954-2.7528378.63734974-3.8807615 1.69352968l-.1170046.11348393-.1217387-.11798918c-1.2097042-1.11895527-2.59765643-1.69501082-4.1378863-1.69501082-3.15721928 0-5.734375 2.56026711-5.734375 5.71723077 0 3.08739613 1.12733021 4.55158593 6.1824232 8.54579203l2.6880261 2.0976966c.6640984.5175766 1.595003.5175766 2.2591014 0l2.364151-1.8425419.9331971-.739746c4.537758-3.6344487 5.5731012-5.1024461 5.5731012-8.06120073 0-3.15696366-2.5771557-5.71723077-5.734375-5.71723077zm.2738589 1.79401361c2.1657463 0 3.934375 1.75703851 3.934375 3.91723077l-.0049456.29359773c-.0758635 2.1566106-1.0618798 3.3412167-5.5090124 6.8522432l-2.6629899 2.077908c-.0135531.0105628-.0325511.0105628-.0461042 0l-2.364151-1.8425419-.87380424-.6918068c-4.1422161-3.3089485-4.93899266-4.4398737-4.93899266-6.68940023 0-2.16019226 1.76862868-3.91723077 3.934375-3.91723077 1.33291866 0 2.5064001.61758252 3.5693984 1.91524626.3624536.44246813 1.040304.43901393 1.3982294-.00712513 1.0369185-1.29247556 2.2067195-1.90812113 3.5636222-1.90812113z" fill="currentColor" fill-rule="nonzero"/></g>
  </symbol>
  <symbol xmlns="http://www.w3.org/2000/svg" viewBox="0 0 24 24" id="edit">
    <path fill-rule="evenodd" d="m14.26 7.478-9.038 9.037a1.1 1.1 0 0 0-.322.778V19a.1.1 0 0 0 .1.1h1.707a1.1 1.1 0 0 0 .778-.322l9.037-9.037-2.263-2.263Zm1.272-1.273 2.263 2.263 1.131-1.131a.6.6 0 0 0 0-.849l-1.414-1.414a.6.6 0 0 0-.849 0l-1.13 1.131ZM3.95 15.242 15.391 3.801a2.4 2.4 0 0 1 3.394 0l1.414 1.414a2.4 2.4 0 0 1 0 3.394L8.758 20.051a2.9 2.9 0 0 1-2.05.849H5A1.9 1.9 0 0 1 3.1 19v-1.707a2.9 2.9 0 0 1 .85-2.05Z" clip-rule="evenodd"/>
  </symbol>
  <symbol xmlns="http://www.w3.org/2000/svg" viewBox="0 0 24 24" id="calendar">
    <path fill-rule="evenodd" d="M8 1.5a.9.9 0 0 1 .9.9V3h6.2v-.6a.9.9 0 1 1 1.8 0v.653c.628.053 1.183.164 1.698.427a4.4 4.4 0 0 1 1.922 1.922c.267.523.377 1.087.43 1.726.05.62.05 1.386.05 2.334v5.076c0 .948 0 1.714-.05 2.334-.053.64-.163 1.203-.43 1.726a4.4 4.4 0 0 1-1.922 1.922c-.523.267-1.087.377-1.726.43-.62.05-1.386.05-2.334.05H9.462c-.948 0-1.714 0-2.334-.05-.64-.053-1.203-.163-1.726-.43a4.4 4.4 0 0 1-1.922-1.922c-.267-.523-.377-1.087-.43-1.726C3 16.252 3 15.486 3 14.538V9.462c0-.948 0-1.714.05-2.334.053-.64.163-1.203.43-1.726A4.4 4.4 0 0 1 5.402 3.48c.515-.263 1.07-.374 1.698-.427V2.4a.9.9 0 0 1 .9-.9Zm-.9 3.361c-.422.046-.68.12-.88.222A2.6 2.6 0 0 0 5.083 6.22c-.115.226-.195.527-.238 1.054-.037.444-.043.991-.045 1.726h14.4c-.002-.735-.008-1.282-.045-1.726-.043-.527-.123-.828-.238-1.054a2.6 2.6 0 0 0-1.137-1.137c-.2-.102-.458-.176-.88-.222V5.6a.9.9 0 0 1-1.8 0v-.8H8.9v.8a.9.9 0 1 1-1.8 0v-.739ZM19.2 10.8H4.8v3.7c0 .995 0 1.687.045 2.226.043.527.123.828.238 1.054a2.6 2.6 0 0 0 1.137 1.137c.226.115.527.195 1.055.238.538.044 1.23.045 2.225.045h5c.995 0 1.687 0 2.226-.045.527-.043.828-.123 1.054-.238a2.6 2.6 0 0 0 1.137-1.137c.115-.226.195-.527.238-1.055.044-.538.045-1.23.045-2.225v-3.7Z" clip-rule="evenodd"/>
  </symbol>
  <symbol xmlns="http://www.w3.org/2000/svg" viewBox="0 0 24 24" id="home">
    <path fill-rule="evenodd" d="M12.185 4.85a.6.6 0 0 0-.37 0c-.014.005-.07.025-.218.151-.157.133-.35.325-.658.632L5.574 11c-.377.376-.457.465-.512.555a1.1 1.1 0 0 0-.132.318c-.024.102-.03.222-.03.754V17.6c0 .435 0 .707.017.912.016.194.042.248.048.26a.6.6 0 0 0 .263.263c.012.006.066.032.26.048.205.016.477.017.912.017h2.7v-3.2a2.9 2.9 0 0 1 5.8 0v3.2h2.7c.435 0 .707 0 .912-.017.194-.016.248-.042.26-.048a.6.6 0 0 0 .263-.263c.006-.012.032-.066.047-.26.017-.205.018-.477.018-.912v-4.975c0-.531-.006-.65-.03-.753a1.098 1.098 0 0 0-.132-.318c-.055-.09-.136-.179-.512-.555l-5.365-5.366c-.308-.307-.5-.499-.658-.632-.148-.126-.204-.146-.218-.15Zm-.927-1.711a2.4 2.4 0 0 1 1.484 0c.329.107.592.291.826.49.22.186.465.431.742.708l5.39 5.39.055.056c.291.29.537.535.718.83.159.26.276.543.347.838.08.337.08.684.08 1.095v5.087c0 .392 0 .738-.023 1.026-.025.305-.081.622-.239.93a2.4 2.4 0 0 1-1.048 1.05 2.44 2.44 0 0 1-.931.238c-.288.023-.634.023-1.026.023H14.19a1.089 1.089 0 0 1-1.089-1.089V15.9a1.1 1.1 0 0 0-2.2 0v3.911c0 .602-.487 1.089-1.089 1.089H6.367c-.392 0-.738 0-1.025-.023a2.448 2.448 0 0 1-.932-.238 2.4 2.4 0 0 1-1.048-1.05c-.158-.308-.214-.625-.239-.93-.023-.288-.023-.634-.023-1.026v-5.087c0-.411 0-.758.08-1.095a2.9 2.9 0 0 1 .347-.838c.181-.295.427-.54.718-.83l.056-.057 5.39-5.389c.276-.277.52-.522.74-.708.235-.199.498-.383.827-.49Z" clip-rule="evenodd"/>
  </symbol>
  <symbol xmlns="http://www.w3.org/2000/svg" viewBox="0 0 24 24" id="mail">
    <path clip-rule="evenodd" d="m7.79998 4.10001h-.0377-.00003c-.80804-.00001-1.46889-.00002-2.00596.04386-.55591.04542-1.05799.1423-1.52688.38121-.73383.37391-1.33045.97053-1.70436 1.70436-.23891.46889-.33579.97097-.38121 1.52688-.04388.53708-.04387 1.19792-.04386 2.00597v.00002.0377 4.39999.0377c-.00001.8081-.00002 1.4689.04386 2.006.04542.5559.1423 1.058.38121 1.5269.37391.7338.97053 1.3304 1.70436 1.7043.46889.2389.97097.3358 1.52688.3812.53708.0439 1.19793.0439 2.00598.0439h.03771 8.40002.0377c.808 0 1.4689 0 2.006-.0439.5559-.0454 1.058-.1423 1.5268-.3812.7339-.3739 1.3305-.9705 1.7044-1.7043.2389-.4689.3358-.971.3812-1.5269.0439-.5371.0439-1.1979.0439-2.006v-.0377-4.39999-.03771c0-.80805 0-1.4689-.0439-2.00598-.0454-.55591-.1423-1.05799-.3812-1.52688-.3739-.73383-.9705-1.33045-1.7044-1.70436-.4688-.23891-.9709-.33579-1.5268-.38121-.5371-.04388-1.198-.04387-2.006-.04386h-.0377zm-2.41937 1.91216c.13557-.03135.30416-.05646.52226-.07428.45511-.03718 1.04218-.03788 1.89711-.03788h8.40002c.8549 0 1.442.0007 1.8971.03788.2181.01782.3867.04293.5222.07428l-4.009 3.50792c-.5778.50561-.9734.85091-1.3029 1.09731-.3204.2396-.5242.3431-.7005.3953-.3962.1171-.8177.1171-1.2138 0-.1763-.0522-.3802-.1557-.7006-.3953-.3294-.2464-.72503-.5917-1.30283-1.09731zm-1.33024 1.22783c-.04953.15568-.08794.36224-.11251.6629-.03718.45511-.03788 1.04218-.03788 1.89711v4.39999c0 .8549.0007 1.442.03788 1.8971.03633.4446.10293.6834.191.8563.20134.3951.5226.7164.91774.9177.17284.0881.41167.1547.85627.191.45511.0372 1.04218.0379 1.89711.0379h8.40002c.8549 0 1.442-.0007 1.8971-.0379.4446-.0363.6834-.1029.8563-.191.3951-.2013.7164-.5226.9177-.9177.0881-.1729.1547-.4117.191-.8563.0372-.4551.0379-1.0422.0379-1.8971v-4.39999c0-.85493-.0007-1.442-.0379-1.89711-.0246-.30066-.063-.50722-.1125-.6629l-4.154 3.6347-.0262.023c-.5452.477-.9926.8685-1.384 1.1612-.4067.3041-.8058.5432-1.2681.6799-.7293.2157-1.5054.2157-2.2347 0-.4622-.1367-.8614-.3758-1.26805-.6799-.39138-.2927-.83881-.6842-1.38393-1.1612l-.02626-.023z" fill="currentColor" fill-rule="evenodd"/>
  </symbol>
  <symbol xmlns="http://www.w3.org/2000/svg" viewBox="0 0 24 24" id="eye">
    <path d="M12 4.6c5.2 0 10.4 4.237 10.4 7.4 0 3.163-5.2 7.4-10.4 7.4S1.6 15.163 1.6 12c0-3.163 5.2-7.4 10.4-7.4Zm0 1.8c-4.278 0-8.6 3.522-8.6 5.6s4.322 5.6 8.6 5.6 8.6-3.522 8.6-5.6-4.322-5.6-8.6-5.6Zm0 2.2a3.4 3.4 0 1 1 0 6.8 3.4 3.4 0 0 1 0-6.8Zm0 1.8a1.6 1.6 0 1 0 0 3.2 1.6 1.6 0 0 0 0-3.2Z"/>
  </symbol>
  <symbol xmlns="http://www.w3.org/2000/svg" viewBox="0 0 24 24" id="message-circle">
    <path d="m7.71303 18.202c.24583-.2883.64592-.3918 1.00073-.2589 1.02493.3841 2.13794.5855 3.28624.5855 4.5017 0 8.1-3.0843 8.1-6.8143s-3.5983-6.81429-8.1-6.81429c-4.50165 0-8.1 3.08429-8.1 6.81429 0 1.283.42282 2.5145 1.2141 3.5859.11499.1557.17673.3443.17604.5379-.00318.8931-.37662 2.1784-1.1146 3.9153 1.65406-.1846 2.82129-.7113 3.53749-1.5514zm-4.32377 3.4133c-.91454.0358-1.59393-.9434-1.20893-1.795.77539-1.7153 1.20256-2.9739 1.29209-3.7241-.89153-1.3122-1.37242-2.8157-1.37242-4.3819 0-4.79098 4.46053-8.61429 9.9-8.61429 5.4395 0 9.9 3.82331 9.9 8.61429 0 4.791-4.4605 8.6143-9.9 8.6143-1.157 0-2.28734-.1728-3.35276-.5059-1.20947 1.116-2.97528 1.703-5.25798 1.7926z" fill="currentColor"/>
  </symbol>
  <symbol xmlns="http://www.w3.org/2000/svg" viewBox="0 0 24 24" id="menu">
    <path d="m21 11h-18c-.55228 0-1 .4477-1 1s.44772 1 1 1h18c.5523 0 1-.4477 1-1s-.4477-1-1-1zm0-7h-18c-.55228 0-1 .44772-1 1s.44772 1 1 1h18c.5523 0 1-.44772 1-1s-.4477-1-1-1zm-18 16h18c.5523 0 1-.4477 1-1s-.4477-1-1-1h-18c-.55228 0-1 .4477-1 1s.44772 1 1 1z" fill="currentColor"/>
  </symbol>
  <symbol xmlns="http://www.w3.org/2000/svg" viewBox="0 0 24 24" id="more-horizontal">
    <g id="Page-2" stroke="none" stroke-width="1" fill="none" fill-rule="evenodd">
        <g id="more_horizontal_24">
            <polygon id="Bounds" points="24 0 0 0 0 24 24 24"></polygon>
            <path d="M18,10 C19.1,10 20,10.9 20,12 C20,13.1 19.1,14 18,14 C16.9,14 16,13.1 16,12 C16,10.9 16.9,10 18,10 L18,10 Z M12,14 C10.9,14 10,13.1 10,12 C10,10.9 10.9,10 12,10 C13.1,10 14,10.9 14,12 C14,13.1 13.1,14 12,14 L12,14 Z M6,14 C4.9,14 4,13.1 4,12 C4,10.9 4.9,10 6,10 C7.1,10 8,10.9 8,12 C8,13.1 7.1,14 6,14 L6,14 Z" id="Mask" fill="currentColor"></path>
        </g>
    </g>
  </symbol>
  <symbol xmlns="http://www.w3.org/2000/svg" viewBox="0 0 24 24" id="monitor">
    <path fill-rule="evenodd" d="M3.1 10.5c0-2.24 0-3.36.436-4.216a4 4 0 0 1 1.748-1.748C6.14 4.1 7.26 4.1 9.5 4.1h5c2.24 0 3.36 0 4.216.436a4 4 0 0 1 1.748 1.748c.436.856.436 1.976.436 4.216s0 3.36-.436 4.216a4 4 0 0 1-1.748 1.748c-.836.426-1.924.436-4.063.436l.55 2.2H17.1a.9.9 0 1 1 0 1.8H6.9a.9.9 0 1 1 0-1.8h1.897l.55-2.2c-2.139 0-3.227-.01-4.063-.436a4 4 0 0 1-1.748-1.748C3.1 13.86 3.1 12.74 3.1 10.5Zm11.4-4.6h-5c-1.15 0-1.904.001-2.48.048-.556.046-.787.125-.919.192a2.2 2.2 0 0 0-.961.961c-.067.132-.146.363-.191.918C4.9 8.596 4.9 9.35 4.9 10.5s.001 1.904.049 2.48c.045.556.124.787.19.919.212.414.548.75.962.961.132.067.363.146.918.192.577.047 1.331.048 2.481.048h5c1.15 0 1.904-.001 2.48-.048.556-.046.787-.125.919-.192a2.2 2.2 0 0 0 .961-.961c.067-.132.146-.363.192-.918.047-.577.048-1.331.048-2.481s-.001-1.904-.049-2.48c-.045-.556-.124-.787-.19-.919a2.2 2.2 0 0 0-.962-.961c-.132-.067-.363-.146-.918-.192-.577-.047-1.331-.048-2.481-.048Zm-3.297 11-.55 2.2h2.694l-.55-2.2h-1.594Z" clip-rule="evenodd"/>
  </symbol>
  <symbol xmlns="http://www.w3.org/2000/svg" viewBox="0 0 24 24" id="reply">
    <g fill="none" fill-rule="evenodd"><path d="m0 0h24v24h-24z"/><path d="m12.227317 3.72539827c1.1157516.07873001 1.9964557 1.00881614 1.9964557 2.14460173l.001 2.11707307.020426.00489936c4.5322886.93898423 7.878574 4.95513877 7.878574 9.69345567 0 .3442757-.0176069.6873469-.0524331 1.0276162-.0830231.8111789-1.1156653 1.1026651-1.6105859.4546237l-.1868061-.2364796c-1.4593169-1.7864465-3.5370153-2.9583156-5.8356845-3.265329l-.2134904-.0257863-.001 2.4943341c0 .480596-.1611979.9475731-.4578297 1.3260345-.7324929.9345598-2.083906 1.0983675-3.0184658.3658747l-7.82367948-6.1320731c-.13624242-.1067846-.25909004-.2296322-.36587464-.3658747-.73249282-.9345598-.56868516-2.2859729.36587464-3.0184657l7.82367948-6.13207312c.3784613-.29663189.8454385-.45782978 1.3262955-.45782978zm-.1535443 1.79460173c-.078279 0-.1542986.02624152-.2159085.07453043l-7.82367948 6.13207307c-.15213765.119243-.17880401.3392405-.05956099.4913782.01738354.022179.03738199.0421774.05956099.0595609l7.82367948 6.1320731c.1521376.119243.3721351.0925767.4913781-.059561.0482889-.06161.0745304-.1376295.0745304-.2159086l.0010001-3.4473341c.0001458-.5027411.4121196-.9078807.9147928-.8996173l.2331478.0038326.342219.0165251c2.2740952.1451443 4.3967381.9871577 6.1185436 2.3658366l.1742967.1436841-.023799-.1353588c-.6428176-3.4154489-3.4349274-6.1053589-6.9683576-6.53625978-.4514826-.05505817-.7909275-.43830709-.7910523-.89313443l-.000791-2.88207308c-.0000001-.19354667-.1567004-.35024701-.3500001-.35024701z" fill="currentColor" fill-rule="nonzero"/></g>
  </symbol>
  <symbol xmlns="http://www.w3.org/2000/svg" viewBox="0 0 24 24" id="users-2">
    <g fill="currentColor"><path clip-rule="evenodd" d="m8.49993 8.09998c0-1.933 1.56697-3.5 3.49997-3.5s3.5 1.567 3.5 3.5c0 1.93302-1.567 3.50002-3.5 3.50002s-3.49997-1.567-3.49997-3.50002zm3.49997 1.7c-.9389 0-1.7-.76112-1.7-1.7 0-.93889.7611-1.7 1.7-1.7s1.7.76111 1.7 1.7c0 .93888-.7611 1.7-1.7 1.7z" fill-rule="evenodd"/><path clip-rule="evenodd" d="m12.0003 13.1c-1.504 0-2.92554.3536-4.00207 1.015-1.07789.6623-1.89792 1.7023-1.89792 3.0397 0 .8095.27847 1.5324.85121 2.0428.55817.4975 1.29385.7025 2.04879.7025h5.99999c.755 0 1.4906-.205 2.0488-.7025.5727-.5104.8512-1.2333.8512-2.0428 0-1.3374-.82-2.3774-1.8979-3.0397-1.0765-.6614-2.4981-1.015-4.0021-1.015zm-4.09999 4.0547c0-.5173.30536-1.0545 1.04017-1.506.73616-.4523 1.81462-.7487 3.05982-.7487s2.3237.2964 3.0598.7487c.7348.4515 1.0402.9887 1.0402 1.506 0 .3859-.1215.5856-.2488.699-.1418.1264-.4061.2463-.8512.2463h-5.99999c-.44506 0-.70938-.1199-.85121-.2463-.12726-.1134-.24879-.3131-.24879-.699z" fill-rule="evenodd"/><path d="m5.90335 13.7c0-.4971-.40295-.9-.90001-.9-2.00675 0-3.95 1.276-3.95 3.3571 0 1.2631.87016 2.7429 2.60711 2.7429.49705 0 .9-.4029.9-.9s-.40295-.9-.9-.9c-.27194 0-.44983-.1042-.57534-.254-.13985-.1669-.23177-.4168-.23177-.6889 0-.731.73929-1.5571 2.15-1.5571.49706 0 .90001-.4029.90001-.9z"/><path d="m6.31446 5.45905c.49206-.0703.94794.2716 1.01824.76366s-.2716.94794-.76366 1.01824c-.60794.08686-1.06887.60664-1.06887 1.22549 0 .67925.555 1.23828 1.25 1.23828.49706 0 .9.40298.9.89998 0 .4971-.40294.9-.9.9-1.67982 0-3.05-1.3556-3.05-3.03826 0-1.53471 1.13964-2.79671 2.61429-3.00739z"/><path d="m18.0965 13.7c0-.4971.403-.9.9-.9 2.0068 0 3.95 1.276 3.95 3.3571 0 1.2631-.8701 2.7429-2.6071 2.7429-.497 0-.9-.4029-.9-.9s.403-.9.9-.9c.2719 0 .4498-.1042.5753-.254.1399-.1669.2318-.4168.2318-.6889 0-.731-.7393-1.5571-2.15-1.5571-.497 0-.9-.4029-.9-.9z"/><path d="m17.6859 5.45905c-.4921-.0703-.948.2716-1.0183.76366s.2716.94794.7637 1.01824c.6079.08686 1.0689.60664 1.0689 1.22549 0 .67925-.555 1.23828-1.25 1.23828-.4971 0-.9.40298-.9.89998 0 .4971.4029.9.9.9 1.6798 0 3.05-1.3556 3.05-3.03826 0-1.53471-1.1397-2.79671-2.6143-3.00739z"/></g>
  </symbol>
  <symbol xmlns="http://www.w3.org/2000/svg" viewBox="0 0 24 24" id="users">
    <path d="M17 13.5c3.688 0 6.9 1.31 6.9 4.257 0 1.554-.644 2.243-1.959 2.243h-5.596c-.543 0-.927-.551-.82-1.084.076-.373.39-.716.77-.716l5.783.002s.022-.297.022-.445c0-1.512-2.318-2.457-5.1-2.457-.472 0-.93.027-1.367.08a.902.902 0 0 1-.85-.398c-.35-.516-.166-1.296.453-1.375A14.065 14.065 0 0 1 17 13.5Zm-10 0c3.688 0 6.9 1.31 6.9 4.257 0 1.554-.644 2.243-1.959 2.243H2.06C.744 20 .1 19.31.1 17.757.1 14.81 3.312 13.5 7 13.5Zm0 1.8c-2.782 0-5.1.945-5.1 2.457 0 .149.02.445.02.445h10.158s.022-.297.022-.445c0-1.512-2.318-2.457-5.1-2.457ZM17 4.2a4.15 4.15 0 0 1 4.15 4.15A4.15 4.15 0 0 1 17 12.5a4.15 4.15 0 0 1-4.15-4.15A4.15 4.15 0 0 1 17 4.2Zm-10 0a4.15 4.15 0 0 1 4.15 4.15A4.15 4.15 0 0 1 7 12.5a4.15 4.15 0 0 1-4.15-4.15A4.15 4.15 0 0 1 7 4.2ZM17 6a2.35 2.35 0 1 0 0 4.7A2.35 2.35 0 1 0 17 6ZM7 6a2.35 2.35 0 1 0 0 4.7A2.35 2.35 0 1 0 7 6Z"/>
  </symbol>
  <symbol xmlns="http://www.w3.org/2000/svg" viewBox="0 0 24 24" id="user">
    <path d="M14.85 7.95A2.849 2.849 0 0 0 12 5.1a2.849 2.849 0 0 0-2.85 2.85A2.849 2.849 0 0 0 12 10.8a2.849 2.849 0 0 0 2.85-2.85Zm1.8 0A4.649 4.649 0 0 1 12 12.6a4.649 4.649 0 0 1-4.65-4.65A4.649 4.649 0 0 1 12 3.3a4.649 4.649 0 0 1 4.65 4.65ZM5.9 18.429c0 .768-.09.671.335.671h11.53c.426 0 .335.097.335-.671 0-1.893-2.778-3.029-6.1-3.029-3.322 0-6.1 1.136-6.1 3.029Zm-1.8 0c0-3.327 3.673-4.829 7.9-4.829s7.9 1.502 7.9 4.829c0 1.735-.685 2.471-2.135 2.471H6.235c-1.45 0-2.135-.736-2.135-2.471Z"/>
  </symbol>
  <symbol xmlns="http://www.w3.org/2000/svg" viewBox="0 0 24 24" id="link">
    <path clip-rule="evenodd" d="m13.4893 4.29306c1.7191-1.71903 4.5062-1.71903 6.2252 0s1.719 4.50614 0 6.22514l-1.0715 1.0716c-.3516.3516-.9217.3516-1.2734 0-.3516-.3517-.3516-.9218 0-1.2734l1.0716-1.0715c1.0158-1.01579 1.0158-2.66272 0-3.67851s-2.6627-1.01579-3.6785 0l-3.5371 3.53703c-1.0158 1.01578-1.0158 2.66268 0 3.67848.3517.3516.3517.9217 0 1.2734-.3516.3516-.9217.3516-1.27329 0-1.71903-1.7191-1.71903-4.50618 0-6.22521zm-.7074 5.65925c.3516-.35162.9217-.35162 1.2734 0 1.719 1.71899 1.719 4.50609 0 6.22519l-3.5371 3.537c-1.719 1.719-4.50611 1.719-6.22514 0s-1.71903-4.5061 0-6.2252l1.1218-1.1218c.35162-.3516.92171-.3516 1.27333 0 .35162.3517.35162.9217 0 1.2734l-1.1218 1.1218c-1.01579 1.0158-1.01579 2.6627 0 3.6785s2.66272 1.0158 3.67851 0l3.537-3.537c1.0158-1.0158 1.0158-2.6628 0-3.6786-.3516-.3516-.3516-.9217 0-1.27329z" fill="currentColor" fill-rule="evenodd"/>
  </symbol>
  <symbol xmlns="http://www.w3.org/2000/svg" viewBox="0 0 24 24" id="hash">
    <path fill-rule="evenodd" d="M11.78 3.194a.998.998 0 0 0-1.958-.391L8.782 8H6a1 1 0 0 0 0 2h2.382l-.8 4H4.5a1 1 0 1 0 0 2h2.681l-.961 4.806a.998.998 0 0 0 1.958.392L9.218 16h3.963l-.961 4.806a.998.998 0 0 0 1.958.392L15.218 16H18a1 1 0 1 0 0-2h-2.382l.8-4H19.5a1 1 0 1 0 0-2h-2.681l.961-4.806a.998.998 0 0 0-1.958-.391L14.782 8h-3.963l.961-4.806ZM14.382 10h-3.963l-.8 4h3.962l.8-4Z" clip-rule="evenodd"/>
  </symbol>
  <symbol xmlns="http://www.w3.org/2000/svg" viewBox="0 0 24 24" id="info">
    <path d="M12 20.105a8.105 8.105 0 1 0 0-16.21 8.105 8.105 0 0 0 0 16.21ZM12 22C6.477 22 2 17.523 2 12S6.477 2 12 2s10 4.477 10 10-4.477 10-10 10Zm0-12.372a1.316 1.316 0 1 1 0-2.632 1.316 1.316 0 0 1 0 2.632Zm-.947 2.822c0-.541.424-.98.947-.98.523 0 .947.439.947.98v3.83c0 .54-.424.98-.947.98-.523 0-.947-.44-.947-.98v-3.83Z"/>
  </symbol>
  <symbol xmlns="http://www.w3.org/2000/svg" viewBox="0 0 24 24" id="comments">
    <g fill="none" fill-rule="evenodd"><path d="m0 0h24v24h-24z"/><path d="m16.8951435 4h-9.790287c-1.15188902 0-1.73913845.1134031-2.3503526.440284-.56424904.30176369-1.01245621.74997086-1.3142199 1.3142199-.3268809.61121415-.440284 1.19846358-.440284 2.3503526v5.790287c0 1.151889.1134031 1.7391385.440284 2.3503526.30176369.564249.74997086 1.0124562 1.3142199 1.3142199l.14089192.0716901c.51700858.2493025 1.04927643.3512717 1.95339541.3665353l.25120877.0020586v2.2148929c0 .4318349.16929521.8464601.47154882 1.1548821l.11661747.108206c.64274583.5416326 1.60416.5156678 2.21671587-.084637l3.46111784-3.393344h3.5291435c1.151889 0 1.7391385-.1134031 2.3503526-.440284.564249-.3017637 1.0124562-.7499709 1.3142199-1.3142199.3268809-.6112141.440284-1.1984636.440284-2.3503526v-5.790287c0-1.15188902-.1134031-1.73913845-.440284-2.3503526-.3017637-.56424904-.7499709-1.01245621-1.3142199-1.3142199-.6112141-.3268809-1.1984636-.440284-2.3503526-.440284zm-9.98348126 1.80107351 9.98348126-.00107351c.8801525 0 1.1866784.05919287 1.5014747.22754776.2505657.13400404.44183.3252683.575834.57583408.1683549.31479627.2275478.62132212.2275478 1.50147466v5.790287l-.004385.3676122c-.0164119.6070517-.0807086.8674964-.2231628 1.1338625-.134004.2505657-.3252683.44183-.575834.575834-.3147963.1683549-.6213222.2275478-1.5014747.2275478h-3.8951435l-.1167662.0076035c-.1925574.025192-.3729777.1122169-.5131695.2496049l-3.4700643 3.3997916v-2.757c0-.4970563-.40294373-.9-.9-.9h-.8951435l-.36761224-.004385c-.6070517-.0164119-.86749634-.0807086-1.13386242-.2231628-.25056578-.134004-.44183004-.3252683-.57583408-.575834-.16835489-.3147963-.22754776-.6213222-.22754776-1.5014747v-5.790287l.004385-.36761224c.01641191-.6070517.08070862-.86749634.22316276-1.13386242.13400404-.25056578.3252683-.44183004.57583408-.57583408.29058118-.15540451.57411536-.21779524 1.3082804-.22647425z" fill="currentColor" fill-rule="nonzero"/></g>
  </symbol>
  <symbol xmlns="http://www.w3.org/2000/svg" viewBox="0 0 24 24" id="book">
    <path fill-rule="evenodd" d="M17.4 3.9H9.8c-.855 0-1.442 0-1.897.038-.445.036-.684.103-.856.19a2.1 2.1 0 0 0-.918.919c-.088.172-.155.411-.191.856C5.9 6.358 5.9 6.945 5.9 7.8v8.516c.34-.14.71-.216 1.1-.216h11.1V4.6c0-.6-.1-.7-.7-.7ZM4.1 7.762c0-.808 0-1.469.044-2.006.045-.556.142-1.058.381-1.527A3.9 3.9 0 0 1 6.23 2.525c.47-.239.971-.336 1.527-.381C8.293 2.1 8.954 2.1 9.762 2.1h7.668c.254 0 .496 0 .7.017.223.018.478.06.733.19a1.9 1.9 0 0 1 .83.83c.13.255.172.51.19.733.017.204.017.446.017.7v11.89c0 .504 0 .756-.098.949a.9.9 0 0 1-.393.393c-.193.098-.445.098-.949.098h-.305c-.076.322-.113.51-.131.699a4.088 4.088 0 0 0 0 .802c.018.188.055.378.131.699H19a.9.9 0 0 1 0 1.8H7A2.9 2.9 0 0 1 4.1 19V7.762ZM16.312 20.1a5.358 5.358 0 0 1-.08-.523 5.89 5.89 0 0 1 0-1.154 5.5 5.5 0 0 1 .08-.523H7a1.1 1.1 0 0 0 0 2.2h9.312Z" clip-rule="evenodd"/>
  </symbol>
  <symbol xmlns="http://www.w3.org/2000/svg" viewBox="0 0 24 24" id="post">
    <path fill-rule="evenodd" d="M12.473 2c.3 0 .586 0 .866.066a2.4 2.4 0 0 1 .694.288c.245.15.447.353.659.565l4.389 4.39c.212.21.415.413.565.658a2.4 2.4 0 0 1 .288.694c.067.28.066.566.066.866v6.012c0 .947 0 1.713-.05 2.333-.053.64-.163 1.203-.43 1.726a4.4 4.4 0 0 1-1.922 1.922c-.523.267-1.087.377-1.726.43-.62.05-1.386.05-2.334.05h-3.076c-.948 0-1.714 0-2.334-.05-.64-.053-1.203-.163-1.726-.43a4.4 4.4 0 0 1-1.922-1.922c-.267-.523-.377-1.087-.43-1.726C4 17.252 4 16.486 4 15.538V8.462c0-.948 0-1.714.05-2.334.053-.64.163-1.203.43-1.726A4.4 4.4 0 0 1 6.402 2.48c.523-.267 1.087-.377 1.726-.43C8.748 2 9.514 2 10.462 2h2.011ZM10.5 3.8H12v2.135c0 .53 0 .981.03 1.352.032.39.102.768.286 1.13a2.9 2.9 0 0 0 1.267 1.267c.362.184.741.254 1.13.286.37.03.822.03 1.352.03H18.2v5.5c0 .995 0 1.687-.045 2.226-.043.527-.123.828-.238 1.054a2.6 2.6 0 0 1-1.137 1.137c-.226.115-.527.195-1.055.238-.538.044-1.23.045-2.225.045h-3c-.995 0-1.687 0-2.226-.045-.527-.043-.828-.123-1.054-.238a2.6 2.6 0 0 1-1.137-1.137c-.115-.226-.195-.527-.238-1.055-.044-.538-.045-1.23-.045-2.225v-7c0-.995 0-1.687.045-2.225.043-.528.123-.829.238-1.055A2.6 2.6 0 0 1 7.22 4.083c.226-.115.527-.195 1.054-.238C8.813 3.8 9.505 3.8 10.5 3.8Zm3.3.773L17.427 8.2H16.1c-.575 0-.952 0-1.24-.024-.278-.023-.393-.062-.46-.096a1.1 1.1 0 0 1-.48-.48c-.034-.066-.073-.182-.096-.46A17.426 17.426 0 0 1 13.8 5.9V4.573ZM7.997 17.104a.9.9 0 0 1 .9-.9h3.199a.9.9 0 1 1 0 1.8H8.897a.9.9 0 0 1-.9-.9Zm.9-4.106a.9.9 0 1 0 0 1.8h5.197a.9.9 0 0 0 0-1.8H8.897Z" clip-rule="evenodd"/>
  </symbol>
  <symbol xmlns="http://www.w3.org/2000/svg" viewBox="0 0 24 24" id="css">
    <path fill-rule="evenodd" d="M5 5a9.872 9.872 0 0 1 7-2.9c2.734 0 5.21 1.11 7 2.9a9.872 9.872 0 0 1 2.9 7c0 1.933-.61 3.282-1.77 4.041-1.073.702-2.416.763-3.654.631-.444-.047-.888-.096-1.332-.142-.657-.045-.948.14-1.063.28-.116.14-.244.46-.077 1.096.052.197.109.378.172.58l.105.339A2.384 2.384 0 0 1 12 21.9 9.872 9.872 0 0 1 5 19a9.872 9.872 0 0 1-2.9-7c0-2.734 1.11-5.21 2.9-7Zm7-1.1c-2.237 0-4.26.906-5.728 2.372A8.072 8.072 0 0 0 3.9 12c0 2.237.906 4.26 2.372 5.727A8.072 8.072 0 0 0 12 20.1a.584.584 0 0 0 .559-.753 25.023 25.023 0 0 0-.083-.267 16 16 0 0 1-.213-.717c-.256-.976-.18-1.964.431-2.701.61-.738 1.567-.997 2.573-.928.056.004.462.048 1.198.127l.204.022c1.075.115 1.92.016 2.475-.348.486-.318.956-.98.956-2.535 0-2.237-.906-4.26-2.372-5.728A8.072 8.072 0 0 0 12 3.9Z" clip-rule="evenodd"/><path d="M13 7.4a1.4 1.4 0 1 1 2.8 0 1.4 1.4 0 0 1-2.8 0Zm2.75 4a1.4 1.4 0 1 1 2.8 0 1.4 1.4 0 0 1-2.8 0Zm-10.3 0a1.4 1.4 0 1 1 2.8 0 1.4 1.4 0 0 1-2.8 0ZM8 7.4a1.4 1.4 0 1 1 2.8 0 1.4 1.4 0 0 1-2.8 0Z"/>
  </symbol>
  <symbol xmlns="http://www.w3.org/2000/svg" viewBox="0 0 24 24" id="search">
    <path fill-rule="evenodd" clip-rule="evenodd" d="M10.75 3.5C6.74594 3.5 3.5 6.74594 3.5 10.75C3.5 14.7541 6.74594 18 10.75 18C12.4277 18 13.9722 17.4302 15.2007 16.4735L19.4636 20.7364C19.8151 21.0879 20.3849 21.0879 20.7364 20.7364C21.0878 20.3849 21.0878 19.8151 20.7364 19.4636L16.4735 15.2007C17.4302 13.9722 18 12.4277 18 10.75C18 6.74594 14.7541 3.5 10.75 3.5ZM10.75 5.3C7.74005 5.3 5.3 7.74005 5.3 10.75C5.3 13.76 7.74005 16.2 10.75 16.2C13.76 16.2 16.2 13.76 16.2 10.75C16.2 7.74005 13.76 5.3 10.75 5.3Z" fill="currentColor"/>
  </symbol>
  <symbol xmlns="http://www.w3.org/2000/svg" viewBox="0 0 24 24" id="award">
    <path clip-rule="evenodd" d="m16.8895 2.25652c-.4607-.15781-.967-.15725-1.5695-.15658h-6.63997c-.60257-.00067-1.1088-.00123-1.5695.15658-.89253.30573-1.63548 1.11005-1.86955 2.02399-.07119.27793-.08729.55459-.07947.84726-.46182-.06665-.93719-.01179-1.37075.16163-.9916.39663-1.69075 1.37018-1.69075 2.71062 0 2.35918 2.09361 4.52598 4.70935 4.85648.61345 1.3408 1.49523 2.6298 2.78727 3.3915-.01759.6284-.07885 1.331-.51708 1.8204-.19812.2212-.41901.418-.58788.6647-.25218.3685-.39167.8023-.39167 1.3669l.00001.9c.00001.4971.40295.9.9.9h5.99999c.497 0 .9-.4029.9-.9v-.9c0-.5646-.1395-.9984-.3917-1.3669-.1689-.2468-.3897-.4435-.5878-.6647-.4383-.4894-.4995-1.192-.5171-1.8204 1.292-.7617 2.1738-2.0507 2.7873-3.3915 2.6157-.3305 4.7093-2.4973 4.7093-4.85648 0-1.34044-.6991-2.31399-1.6907-2.71062-.4336-.17342-.909-.22828-1.3708-.16163.0078-.29267-.0083-.56933-.0795-.84726-.234-.91394-.977-1.71826-1.8695-2.02399zm-8.08949 1.64351c-.78782 0-.96699.01168-1.10618.05936-.31879.1092-.62553.44128-.70914.76772-.03714.14502-.03596.29679.01991.99995.22674 2.85363.81648 5.26534 1.71582 6.93294.89484 1.6593 2.00288 2.44 3.27958 2.44s2.3848-.7807 3.2796-2.44c.8993-1.6676 1.4891-4.07931 1.7158-6.93294.0559-.70316.0571-.85493.0199-.99995-.0836-.32644-.3903-.65852-.7091-.76772-.1392-.04768-.3184-.05936-1.1062-.05936zm-4.34076 3.06063c-.2584.10336-.55924.3798-.55924 1.03936 0 1.07729.85932 2.28228 2.16308 2.81748-.30462-1.04996-.53409-2.19763-.69248-3.41089-.01254-.09599-.0188-.14399-.05489-.21771-.15301-.31256-.56437-.34508-.85647-.22824zm15.08155 0c.2584.10336.5592.3798.5592 1.03936 0 1.07729-.8593 2.28228-2.1631 2.81748.3046-1.04997.5341-2.19763.6925-3.41089.0125-.09599.0188-.14399.0549-.21771.153-.31254.563-.34562.8565-.22824zm-9.1203 12.30854c-.1436.1603-.3216.3025-.44341.4805-.02907.0425-.07708.115-.07709.3503h4.2c0-.2353-.048-.3078-.0771-.3502-.1218-.1781-.2998-.3203-.4434-.4806-.602-.6723-.8595-1.5266-.9422-2.4102-.4134.0542-.8612.0542-1.2745 0-.0828.8836-.3403 1.7379-.9423 2.4102z" fill="currentColor" fill-rule="evenodd"/>
  </symbol>
  <symbol xmlns="http://www.w3.org/2000/svg" viewBox="0 0 24 24" id="activity">
    <path d="M8.462 4h7.076c.948 0 1.714 0 2.334.05.64.053 1.203.163 1.726.43a4.4 4.4 0 0 1 1.922 1.922c.282.553.39 1.153.438 1.84a.9.9 0 0 1-1.796.126c-.04-.586-.123-.908-.245-1.148a2.6 2.6 0 0 0-1.137-1.137c-.226-.115-.527-.195-1.055-.238-.538-.044-1.23-.045-2.225-.045h-7c-.995 0-1.687 0-2.226.045-.527.043-.828.123-1.054.238A2.6 2.6 0 0 0 4.083 7.22c-.115.226-.195.527-.238 1.054-.04.477-.044 1.073-.045 1.894l4.46-1.952c1.693-.74 3.552.628 3.348 2.464l-.241 2.17a.6.6 0 0 0 1.02.49l2.977-2.976a.9.9 0 1 1 1.272 1.272l-2.976 2.977c-1.604 1.604-4.333.292-4.082-1.962l.24-2.17a.6.6 0 0 0-.836-.616L3.8 12.132V13.5c0 .995 0 1.687.045 2.226.043.527.123.828.238 1.054a2.6 2.6 0 0 0 1.137 1.137c.226.115.527.195 1.054.238.539.044 1.231.045 2.226.045h2.17a.9.9 0 0 1 0 1.8H8.462c-.948 0-1.714 0-2.334-.05-.64-.053-1.203-.163-1.726-.43a4.4 4.4 0 0 1-1.922-1.922c-.267-.523-.377-1.087-.43-1.726C2 15.252 2 14.486 2 13.538v-3.076c0-.948 0-1.714.05-2.334.053-.64.163-1.203.43-1.726A4.4 4.4 0 0 1 4.402 4.48c.523-.267 1.087-.377 1.726-.43C6.748 4 7.514 4 8.462 4Zm13.537 7.293a1.001 1.001 0 0 0-1.416 0l-.708.708 2.124 2.124.708-.708a1.001 1.001 0 0 0 0-1.416l-.708-.708Zm-.981 3.812-2.124-2.124-4.338 4.338c-.44.44-.77.976-.967 1.566l-.573 1.72a.3.3 0 0 0 .38.38l1.719-.574a4.005 4.005 0 0 0 1.565-.968l4.338-4.338Z"/>
  </symbol>
  <symbol xmlns="http://www.w3.org/2000/svg" viewBox="0 0 24 24" id="flag">
    <path d="M7.9 2.998a.9.9 0 0 1 .9.9v.515l8.733 4.798a.9.9 0 0 1 0 1.578L8.8 15.587v5.515a.9.9 0 1 1-1.8 0V3.898a.9.9 0 0 1 .9-.9Z"/>
  </symbol>
  <symbol xmlns="http://www.w3.org/2000/svg" viewBox="0 0 24 24" id="circle">
    <path d="M12 1c6.075 0 11 4.925 11 11s-4.925 11-11 11S1 18.075 1 12 5.925 1 12 1Zm0 2a9 9 0 1 0 0 18 9 9 0 0 0 0-18Z"/>
  </symbol>
  <symbol xmlns="http://www.w3.org/2000/svg" viewBox="0 0 24 24" id="trash">
    <path fill-rule="evenodd" d="M5.012 4.1h3.192a3.902 3.902 0 0 1 7.592 0H21a.9.9 0 0 1 0 1.8h-1.18l-1.155 12.316c-.045.484-.084.898-.143 1.237-.062.359-.157.704-.35 1.03a2.9 2.9 0 0 1-1.25 1.137c-.342.162-.695.225-1.057.253-.344.027-.76.027-1.245.027H9.38c-.485 0-.901 0-1.245-.027-.362-.028-.715-.09-1.057-.253a2.9 2.9 0 0 1-1.249-1.137c-.194-.326-.289-.671-.35-1.03a17.1 17.1 0 0 1-.144-1.237L4.18 5.9H3a.9.9 0 0 1 0-1.8h2.012ZM12 2.9a2.1 2.1 0 0 0-1.898 1.2h3.796A2.1 2.1 0 0 0 12 2.9Zm-6.012 3 1.136 12.115c.05.526.082.869.128 1.13.043.252.088.356.124.417a1.1 1.1 0 0 0 .474.432c.064.03.172.065.426.085.265.02.61.021 1.138.021h5.172c.529 0 .873 0 1.138-.021.254-.02.362-.055.427-.085a1.1 1.1 0 0 0 .473-.432c.037-.06.08-.166.124-.416.046-.262.079-.605.128-1.131L18.012 5.9H5.988Z" clip-rule="evenodd"/>
  </symbol>
  <symbol xmlns="http://www.w3.org/2000/svg" viewBox="0 0 24 24" id="trash-2">
    <path fill-rule="evenodd" d="M14.556 8.102a.9.9 0 0 1 .842.954l-.5 8a.9.9 0 0 1-1.796-.112l.5-8a.9.9 0 0 1 .954-.842Zm-5.112 0a.9.9 0 0 0-.842.954l.5 8a.9.9 0 1 0 1.796-.112l-.5-8a.9.9 0 0 0-.954-.842Z" clip-rule="evenodd"/><path fill-rule="evenodd" d="M3 4.1a.9.9 0 1 0 0 1.8h1.18l1.155 12.316c.045.484.084.898.143 1.237.062.359.157.704.351 1.03a2.9 2.9 0 0 0 1.249 1.137c.342.162.695.225 1.057.253.344.027.76.027 1.246.027h5.238c.486 0 .902 0 1.246-.027.362-.028.715-.09 1.057-.253a2.9 2.9 0 0 0 1.249-1.137c.194-.326.289-.671.35-1.03.06-.34.099-.753.144-1.237L19.82 5.9H21a.9.9 0 1 0 0-1.8h-5.204a3.901 3.901 0 0 0-7.592 0H3Zm4.124 13.915c.05.526.082.869.128 1.13.043.252.087.356.124.417a1.1 1.1 0 0 0 .474.432c.064.03.172.065.426.085.265.02.61.021 1.138.021h5.172c.528 0 .873 0 1.138-.021.254-.02.362-.055.426-.085a1.1 1.1 0 0 0 .474-.432c.037-.06.08-.166.124-.416.046-.262.079-.605.128-1.131L18.012 5.9H5.988l1.136 12.115ZM12 2.9a2.1 2.1 0 0 0-1.898 1.2h3.796A2.1 2.1 0 0 0 12 2.9Z" clip-rule="evenodd"/>
  </symbol>
  <symbol xmlns="http://www.w3.org/2000/svg" viewBox="0 0 24 24" id="corner-down-right">
    <path fill-rule="evenodd" clip-rule="evenodd" d="M3.753 3a.75.75 0 0 1 .75.75v1.593c0 1.411 0 2.425.066 3.22.064.787.188 1.294.397 1.705a4.248 4.248 0 0 0 1.858 1.856c.411.21.919.333 1.706.397.796.065 1.81.065 3.223.065h2.616L12.65 10.96a.749.749 0 1 1 1.032-1.088l3.085 2.921a.749.749 0 0 1-.001 1.088l-3.085 2.915a.75.75 0 0 1-1.03-1.089l1.715-1.62H11.72c-1.372 0-2.448 0-3.312-.072-.88-.071-1.607-.22-2.265-.555a5.748 5.748 0 0 1-2.513-2.51c-.336-.658-.484-1.384-.556-2.264-.071-.863-.07-1.938-.07-3.308V3.749A.75.75 0 0 1 3.752 3z" fill="currentColor"/>
  </symbol>
  <symbol xmlns="http://www.w3.org/2000/svg" viewBox="0 0 24 24" id="chevron-right">
    <path d="m4.70581 7.70575c-.38979-.38979-.38766-1.02389.00031-1.41185l.08784-.08785c.38996-.38996 1.01959-.39257 1.41407.00191l5.08407 5.08404c.391.391.3944 1.0215 0 1.416l-5.08407 5.084c-.39101.391-1.0261.3899-1.41407.0019l-.08784-.0879c-.38996-.3899-.39331-1.0188-.00031-1.4118l4.29423-4.2942z" fill="currentColor"/>
  </symbol>
  <symbol xmlns="http://www.w3.org/2000/svg" viewBox="0 0 24 24" id="chevron-down">
    <path d="M12 13.698 6.64 9.232a1 1 0 0 0-1.28 1.536l6 5a1 1 0 0 0 1.28 0l6-5a1 1 0 1 0-1.28-1.536L12 13.698Z"/>
  </symbol>
  <symbol xmlns="http://www.w3.org/2000/svg" viewBox="0 0 24 24" id="chevrons-right">
    <path fill-rule="evenodd" d="M10.47 15.782a.75.75 0 0 1 0-1.06l4.716-4.723-4.717-4.721a.75.75 0 1 1 1.062-1.06l5.245 5.25a.75.75 0 0 1 0 1.06l-5.245 5.253a.75.75 0 0 1-1.061 0Z M4.47 15.782a.75.75 0 0 1 0-1.06l4.716-4.723-4.717-4.721a.75.75 0 0 1 1.062-1.06l5.245 5.25a.75.75 0 0 1 0 1.06l-5.245 5.253a.75.75 0 0 1-1.061 0Z" clip-rule="evenodd"/>
  </symbol>
  <symbol xmlns="http://www.w3.org/2000/svg" viewBox="0 0 24 24" id="sort-descending">
     <g clip-rule="evenodd" fill="currentColor" fill-rule="evenodd"><path d="m16.6 18.38c-.4971 0-.9-.4029-.9-.9v-8.44563l-2.0636 2.06363c-.3515.3514-.9214.3514-1.2728 0-.3515-.3515-.3515-.9213 0-1.27282l3.5293-3.52928c.3905-.39052 1.0237-.39053 1.4142 0l3.5293 3.52929c.3514.35151.3514.92131 0 1.27281-.3515.3515-.9214.3515-1.2728 0l-2.0636-2.06362v8.44562c0 .4971-.4029.9-.9.9z"/><path d="m6.59999 17.1-.00002-10.21842c0-.49705.40294-.9.9-.9s.9.40295.9.9l.00002 10.21842c0 .4971-.40295.9-.9.9-.49706 0-.9-.4029-.9-.9z"/><path d="m11.7364 13.2636c.3515.3515.3515.9213 0 1.2728l-3.52931 3.5293c-.39052.3905-1.02369.3905-1.41421 0l-3.52928-3.5293c-.35147-.3515-.35147-.9213.00001-1.2728.35147-.3515.92132-.3515 1.27279 0l2.96359 2.9636 2.96361-2.9636c.3515-.3515.9213-.3515 1.2728 0z"/></g>
  </symbol>
  <symbol xmlns="http://www.w3.org/2000/svg" viewBox="0 0 24 24" id="git-merge">
    <path fill-rule="evenodd" d="M16.777 3h1.419c.31 0 .596 0 .834.02.258.02.539.068.817.21.397.2.72.523.923.918.141.277.19.557.21.814.02.237.02.521.02.83V7.19c0 .31 0 .594-.02.831-.02.256-.069.537-.21.813a2.107 2.107 0 0 1-.923.92c-.278.14-.56.188-.817.21-.238.019-.524.019-.834.019h-1.419c-.31 0-.596 0-.834-.02a2.148 2.148 0 0 1-.817-.21 2.107 2.107 0 0 1-.923-.919 2.125 2.125 0 0 1-.21-.813 8.287 8.287 0 0 1-.02-.63l-2.198-.002c-.495-.001-.81 0-1.05.018-.23.019-.309.05-.343.067a.803.803 0 0 0-.352.35c-.017.034-.049.113-.068.341-.02.24-.02.554-.02 1.046v5.57c0 .49 0 .804.02 1.043.019.228.05.306.068.34.077.15.2.273.35.35.035.017.113.049.342.067.24.02.555.021 1.048.022l2.203.003a7.95 7.95 0 0 1 .02-.627c.02-.256.069-.537.21-.813.203-.396.526-.718.923-.92.278-.14.56-.189.817-.21.238-.019.524-.019.834-.019h1.419c.31 0 .596 0 .834.02.258.02.539.068.817.21.397.201.72.523.923.919.141.276.19.557.21.813.02.237.02.522.02.831v1.397c0 .31 0 .594-.02.831-.02.256-.069.537-.21.814a2.108 2.108 0 0 1-.923.919c-.278.14-.56.189-.817.21-.238.019-.524.019-.834.019h-1.419c-.31 0-.596 0-.834-.02a2.148 2.148 0 0 1-.817-.21 2.108 2.108 0 0 1-.923-.918 2.125 2.125 0 0 1-.21-.814 8.288 8.288 0 0 1-.02-.63l-2.24-.002c-.449 0-.839-.001-1.16-.028-.341-.028-.684-.09-1.016-.259a2.61 2.61 0 0 1-1.14-1.137c-.17-.33-.231-.672-.259-1.011-.026-.321-.026-.71-.026-1.156v-1.921H2.905A.903.903 0 0 1 2 11.992c0-.498.405-.901.905-.901h5.227V9.177c0-.448 0-.837.026-1.159.028-.34.09-.682.26-1.013a2.61 2.61 0 0 1 1.144-1.138c.332-.168.676-.23 1.017-.257.323-.025.714-.025 1.164-.024l2.23.003a7.95 7.95 0 0 1 .02-.627c.02-.257.069-.537.21-.814.203-.395.526-.717.923-.919.278-.14.56-.189.817-.21C16.18 3 16.467 3 16.777 3Zm-.836 1.839.002-.001Zm.003-.002a.76.76 0 0 1 .146-.02 9.83 9.83 0 0 1 .72-.014h1.354c.353 0 .563 0 .719.013a.76.76 0 0 1 .146.021.301.301 0 0 1 .126.126.75.75 0 0 1 .021.145c.013.156.014.365.014.716v1.334c0 .352 0 .561-.014.716a.75.75 0 0 1-.02.146.301.301 0 0 1-.127.125.76.76 0 0 1-.146.022c-.156.012-.366.013-.719.013H16.81c-.353 0-.563 0-.719-.013a.76.76 0 0 1-.146-.022.301.301 0 0 1-.126-.125.75.75 0 0 1-.021-.146 9.929 9.929 0 0 1-.014-.716V5.824c0-.351.001-.56.014-.716a.75.75 0 0 1 .021-.145.301.301 0 0 1 .126-.126Zm-.125.123v.002Zm0 3.063V8.02Zm.122.121h.002Zm3.09 0c.001 0 0 0 0 0Zm.123-.121V8.02Zm0-3.063v.002Zm-.124-.122h.002Zm-3.089 11.018h.002Zm.003-.001a.765.765 0 0 1 .146-.022c.156-.012.366-.013.72-.013h1.354c.353 0 .563 0 .719.013a.765.765 0 0 1 .146.022.3.3 0 0 1 .126.125.75.75 0 0 1 .021.146c.013.155.014.364.014.716v1.334c0 .351 0 .56-.014.716a.75.75 0 0 1-.02.145.3.3 0 0 1-.127.126.755.755 0 0 1-.146.02c-.156.014-.366.014-.719.014H16.81c-.353 0-.563 0-.719-.013a.755.755 0 0 1-.146-.021.3.3 0 0 1-.126-.126.75.75 0 0 1-.021-.145 9.93 9.93 0 0 1-.014-.716v-1.334c0-.352.001-.561.014-.716a.75.75 0 0 1 .021-.146.3.3 0 0 1 .126-.125Zm-.125.122v.002Zm0 3.063v-.002Zm.122.122h.002Zm3.09 0c.001 0 0 0 0 0Zm.123-.122v-.002Zm0-3.063v.002Z" clip-rule="evenodd"/>
  </symbol>
  <symbol xmlns="http://www.w3.org/2000/svg" viewBox="0 0 24 24" id="anchor">
    <path fill-rule="evenodd" clip-rule="evenodd" d="M16.806 3.965a.87.87 0 0 0-.67.12l-.006.005-3.632 2.307V12.6l3.638 2.306a.878.878 0 0 0 1.11-.125.942.942 0 0 0 .268-.664V4.875c0-.18-.05-.356-.144-.506a.896.896 0 0 0-.564-.404zm-5.808 8.563V6.463H5.477c-.814 0-1.552.335-2.09.884a3.057 3.057 0 0 0-.872 2.149c0 .842.334 1.6.872 2.15a2.921 2.921 0 0 0 2.09.882h5.521zm.96-7.565 3.365-2.138a2.37 2.37 0 0 1 1.814-.323 2.395 2.395 0 0 1 1.505 1.072c.243.39.372.841.372 1.3v9.243c0 .667-.266 1.274-.698 1.714a2.38 2.38 0 0 1-2.993.336l-3.373-2.139h-2.3l.187 1.043a2.434 2.434 0 0 1-.417 1.85 2.518 2.518 0 0 1-3.469.603 2.456 2.456 0 0 1-1.032-1.592l-.36-2a4.436 4.436 0 0 1-2.242-1.236 4.557 4.557 0 0 1-1.302-3.2c0-1.247.496-2.38 1.302-3.2a4.417 4.417 0 0 1 3.16-1.333h6.481zm-5.857 9.065.294 1.639a.956.956 0 0 0 .405.62A1.018 1.018 0 0 0 8.2 16.05a.933.933 0 0 0 .161-.712l-.235-1.309H6.101z" fill="currentColor"/>
  </symbol>
  <symbol xmlns="http://www.w3.org/2000/svg" viewBox="0 0 24 24" id="settings">
    <path d="m12.7225 2.21251c1.2079.0376 1.9933.70214 2.4074 1.9549l.0656.21424.0508.1918c.0184.07387.0414.15252.0684.2342l.0573.15936.034.017.069-.0228.1336-.05119.1559-.06782c1.4138-.6582 2.5014-.53604 3.387.43718l.1252.14483.8202 1.01651c.7309.96234.7087 1.99095-.0042 3.10117l-.1252.1858-.1172.16014c-.0467.06215-.0944.13107-.1418.20507l-.0709.1147-.0336.0574.004.02.0917.0605.1265.0764.1534.0833c1.3891.7089 1.9624 1.6412 1.7412 2.9362l-.037.1875-.2441 1.0582c-.1581.6849-.2823 1.0091-.7708 1.4539-.4746.4322-1.016.6105-1.7316.6697l-.2199.0144-.1983.0062c-.077.0014-.1597.0062-.2462.0143l-.1809.0214.0131.1424.0134.0958.0323.1787c.3232 1.5257-.0404 2.5579-1.1879 3.2019l-.1693.0894-1.175.5705c-1.1021.4957-2.0993.2427-3.0207-.7017l-.1529-.1638-.1297-.1501c-.0505-.0602-.1076-.1228-.1697-.1863l-.0969-.0958-.0497-.046-.0917.0872-.105.108-.1176.1329c-.9525 1.1336-1.9578 1.5406-3.17627 1.0667l-.17553-.0737-1.05141-.511-.31233-.1599c-.47606-.2599-.74321-.5089-1.00428-1.0602-.27483-.5804-.2933-1.1505-.16007-1.8832l.04442-.2249c.01591-.075.02982-.1565.04145-.2424l.01832-.1715-.004-.004-.10368-.0139-.14649-.0131-.1739-.0077c-1.55929-.0282-2.48325-.6147-2.85261-1.8777l-.04901-.185-.29158-1.2732c-.23507-1.1854.23575-2.1002 1.36325-2.7855l.19399-.1121.17547-.0926c.06877-.0351.14124-.0758.21579-.1211l.15477-.1011.004-.019-.06255-.1079-.08081-.1252-.10199-.14307c-.93777-1.2461-1.0444-2.33532-.27658-3.40394l.11564-.15253.82377-1.01362c.78935-.91502 1.80009-1.10721 3.03429-.64066l.20776.08385.18099.08127c.0681.0317.1426.06292.22189.09301l.13559.0478.036-.017.03362-.08864.04509-.13795.04603-.16597c.35912-1.43648 1.08427-2.24293 2.38936-2.35111l.1904-.0107zm-.056 1.79913h-1.333l-.1394.01021c-.2861.03725-.4729.19165-.6527.83168l-.0414.15648-.0565.20576c-.1049.35252-.2636.7492-.46791 1.13434-.40453.14496-.78896.33214-1.14736.55811-.42172-.08549-.82384-.21089-1.15941-.34959l-.35001-.15492c-.2489-.10662-.43534-.16101-.58308-.17425l-.08418-.00309c-.17762.00371-.29489.07666-.40818.1926l-.06795.07452-.78913.97224-.09471.12536c-.1834.26433-.21084.50002.19486 1.0754l.2282.31582c.2119.30973.42438.69149.59787 1.10139-.12942.3843-.22099.786-.27006 1.2014-.33387.2891-.68964.5367-1.01365.7208l-.34226.1831c-.61687.3393-.69554.5631-.64657.8811l.01338.0752.28029 1.2204.04048.1518c.09538.3072.26422.474.9674.5085l.38734.0145c.37095.0234.79796.0899 1.22309.2039.22477.349.48475.6732.77615.9674.01661.5266-.03209 1.04-.11797 1.4453-.2011.949-.01389 1.1019.3835 1.2994l1.12608.5476c.11932.0537.22596.0898.33678.0885l.06712-.0056c.18106-.0277.38147-.1618.67029-.4847l.2578-.2949c.2567-.2788.5846-.5744.9485-.837l.298.0222.3018.0074.3018-.0076.2982-.0228c.3637.2632.6916.559.9483.8378l.2578.2949c.3249.3633.5379.4876.7374.4903l.0661-.0036c.0586-.0068.1169-.0232.1776-.0461l.0931-.0388 1.1261-.5476.1388-.0736c.2993-.1745.4206-.3954.2447-1.2258-.0859-.4053-.1346-.9187-.1168-1.4452.2902-.2943.5502-.6185.7752-.9692.4255-.1127.8523-.1789 1.223-.2022l.3872-.0145c.8113-.0398.9113-.2557 1.0079-.6603l.2635-1.1414c.0906-.406.0953-.6438-.6164-1.0353l-.3423-.1831c-.3241-.1842-.6798-.4319-1.0134-.7215-.0493-.4147-.1409-.8164-.2708-1.2015.1739-.40924.3864-.79088.5984-1.10059l.2281-.31582c.4058-.57538.3783-.81107.1949-1.0754l-.0449-.06167-.787-.97403c-.1409-.17139-.2591-.29409-.452-.32276l-.0761-.00626c-.1598-.00334-.3685.04939-.6672.17734l-.3499.15486c-.3353.13858-.7371.26372-1.1584.34808-.3598-.22459-.745-.41212-1.1505-.55563-.1945-.37046-.3483-.75098-.4531-1.09273l-.1135-.41457c-.1918-.67739-.3922-.8044-.7131-.82821zm-.6665 4.18837c2.0987 0 3.8 1.70132 3.8 3.79999 0 2.0987-1.7013 3.8-3.8 3.8-2.09869 0-3.8-1.7013-3.8-3.8 0-2.09867 1.70131-3.79999 3.8-3.79999zm0 1.79999c-1.1046 0-2 .8954-2 2s.8954 2 2 2 2-.8954 2-2-.8954-2-2-2z" fill="currentColor"/>
  </symbol>
  <symbol xmlns="http://www.w3.org/2000/svg" viewBox="0 0 24 24" id="stop">
    <path fill-rule="evenodd" d="M4 8.825c0-1.283 1.02-2.411 2.394-2.411.13 0 .258.01.382.03v-.385c0-1.266 1-2.419 2.395-2.419.17 0 .336.017.494.05C9.964 2.74 10.834 2 11.949 2c1.238 0 2.187.916 2.365 2.035A2.388 2.388 0 0 1 17.122 6.4v3.151a2.377 2.377 0 0 1 1.39-.432c.989.008 1.712.6 2.114 1.222a2.4 2.4 0 0 1 .368 1.135c.021.317-.01.74-.206 1.164l-2.126 4.612c-.64 1.39-1.767 2.556-3.016 3.371C14.4 21.437 12.88 22 11.352 22h-.791c-3.68 0-6.562-3.061-6.562-6.727V8.825ZM15.321 6.4c0-.347-.266-.6-.595-.6a.593.593 0 0 0-.595.6v4.783c0 .386-.26.71-.61.795a.77.77 0 0 1-.48-.037.815.815 0 0 1-.498-.757V4.416a.604.604 0 0 0-.595-.616.605.605 0 0 0-.595.616v6.768a.824.824 0 0 1-.498.757.762.762 0 0 1-.508.03.795.795 0 0 1-.48-.388.837.837 0 0 1-.1-.4V6.056a.628.628 0 0 0-.214-.471.578.578 0 0 0-.382-.146.606.606 0 0 0-.595.617v5.534a.838.838 0 0 1-.37.69.764.764 0 0 1-.608.107.812.812 0 0 1-.61-.797V8.825a.627.627 0 0 0-.212-.467.58.58 0 0 0-.382-.144.602.602 0 0 0-.596.61v6.449c0 2.729 2.132 4.927 4.762 4.927h.791c2.201 0 4.734-1.657 5.676-3.701l2.125-4.613a.664.664 0 0 0-.04-.569c-.338-.525-.887-.532-1.225-.014l-.004.006-1.728 2.678c-.457.71-.834.596-.834-.264V6.4Z" clip-rule="evenodd"/>
  </symbol>
  <symbol xmlns="http://www.w3.org/2000/svg" viewBox="0 0 24 24" id="arrow-up">
    <path d="m13 19c0 .5523-.4477 1-1 1s-1-.4477-1-1v-11.58579l-4.29289 4.29289c-.39053.3905-1.02369.3905-1.41422 0-.39052-.3905-.39052-1.0237 0-1.4142l6.00001-6.00001c.3905-.39052 1.0237-.39052 1.4142 0l6 6.00001c.3905.3905.3905 1.0237 0 1.4142s-1.0237.3905-1.4142 0l-4.2929-4.29289z" fill="currentColor"/>
  </symbol>
  <symbol xmlns="http://www.w3.org/2000/svg" viewBox="0 0 24 24" id="mic">
    <g clip-rule="evenodd" fill="currentColor" fill-rule="evenodd"><path d="m16 4.8c-1.7673 0-3.2 1.43269-3.2 3.2s1.4327 3.2 3.2 3.2 3.2-1.43269 3.2-3.2-1.4327-3.2-3.2-3.2zm-5 3.2c0-2.76142 2.2386-5 5-5s5 2.23858 5 5c0 2.7614-2.2386 5-5 5s-5-2.2386-5-5z"/><path d="m9.68339 11.0141c.37901.3218.42511.8898.10313 1.2686l-4.80228 5.6486c-.25975.3055-.24135.7591.04231 1.0426.2838.2837.73798.3019 1.04365.042l5.6457-4.8014c.3788-.3221.9471-.2763 1.2694.1022.3223.3786.2765.9466-.1022 1.2687l-5.64579 4.8014c-1.02049.8678-2.53677.8069-3.48424-.1401-.94699-.9465-1.00845-2.461-.14126-3.481l4.80228-5.6485c.32203-.3788.89031-.425 1.2693-.1031z"/></g>
  </symbol>
  <symbol xmlns="http://www.w3.org/2000/svg" viewBox="0 0 24 24" id="x-octagon">
    <g fill="currentColor"><path clip-rule="evenodd" d="m9.48854 4.55004c1.11616-1.93334 3.90676-1.93334 5.02296 0l6.9282 11.99996c1.1162 1.9334-.2791 4.35-2.5115 4.35h-13.85639c-2.23242 0-3.62769-2.4166-2.51148-4.35zm3.46406.9c-.4234-.73334-1.4818-.73334-1.9052 0l-6.92822 11.99996c-.42339.7334.10585 1.65.95263 1.65h13.85639c.8468 0 1.376-.9166.9526-1.65z" fill-rule="evenodd"/><path clip-rule="evenodd" d="m12 8.00007c.4971 0 .9.37416.9.83571v4.82862c0 .4615-.403.8357-.9.8357-.4971 0-.9-.3742-.9-.8357v-4.82862c0-.46155.403-.83571.9-.83571z" fill-rule="evenodd"/><path d="m13 16.5001c0 .5523-.4477 1-1 1s-1-.4477-1-1 .4477-1 1-1 1 .4477 1 1z"/></g>
  </symbol>
  <symbol xmlns="http://www.w3.org/2000/svg" viewBox="0 0 24 24" id="mobile">
    <path fill-rule="evenodd" d="M11.18 3.9h1.64c1.094 0 1.806.001 2.35.046.522.042.728.116.838.172a2 2 0 0 1 .874.874c.056.11.13.316.172.839.045.543.046 1.255.046 2.349v7.64c0 1.094-.001 1.806-.046 2.35-.042.522-.116.728-.172.838a2 2 0 0 1-.874.874c-.11.056-.316.13-.839.172-.543.045-1.255.046-2.349.046h-1.64c-1.094 0-1.806-.001-2.35-.046-.522-.042-.728-.116-.838-.172a2 2 0 0 1-.874-.874c-.056-.11-.13-.316-.172-.839-.045-.543-.046-1.255-.046-2.349V8.18c0-1.094.001-1.806.046-2.35.042-.522.116-.728.172-.838a2 2 0 0 1 .874-.874c.11-.056.316-.13.839-.172.543-.045 1.255-.046 2.349-.046ZM5.1 8.18c0-2.128 0-3.192.414-4.005a3.8 3.8 0 0 1 1.66-1.66C7.989 2.1 9.053 2.1 11.18 2.1h1.64c2.128 0 3.192 0 4.005.414a3.8 3.8 0 0 1 1.66 1.66c.415.814.415 1.878.415 4.006v7.64c0 2.128 0 3.192-.414 4.005a3.8 3.8 0 0 1-1.66 1.66c-.814.415-1.878.415-4.006.415h-1.64c-2.128 0-3.192 0-4.005-.414a3.8 3.8 0 0 1-1.66-1.66C5.1 19.011 5.1 17.947 5.1 15.82V8.18Zm6.15 8.02a.9.9 0 1 0 0 1.8h1.5a.9.9 0 0 0 0-1.8h-1.5Z" clip-rule="evenodd"/>
  </symbol>
  <symbol xmlns="http://www.w3.org/2000/svg" viewBox="0 0 24 24" id="lock">
    <path fill-rule="evenodd" d="M12 13a1 1 0 0 1 1 1v2a1 1 0 1 1-2 0v-2a1 1 0 0 1 1-1Z" clip-rule="evenodd"/><path fill-rule="evenodd" d="M18.77 8.525c-.578-.295-1.23-.373-1.87-.403V7a4.9 4.9 0 1 0-9.8 0v1.122c-.64.03-1.292.108-1.87.403a3.9 3.9 0 0 0-1.705 1.704c-.239.47-.336.971-.381 1.527-.044.537-.044 1.198-.044 2.006v2.476c0 .808 0 1.469.044 2.006.045.556.142 1.058.381 1.526a3.9 3.9 0 0 0 1.704 1.705c.47.239.971.336 1.527.381.537.044 1.198.044 2.006.044h6.476c.808 0 1.469 0 2.006-.044.556-.045 1.058-.142 1.527-.381a3.9 3.9 0 0 0 1.704-1.705c.239-.468.336-.97.381-1.526.044-.537.044-1.198.044-2.006v-2.476c0-.808 0-1.469-.044-2.006-.045-.556-.142-1.058-.381-1.527a3.9 3.9 0 0 0-1.704-1.704ZM6.904 9.938c-.445.036-.684.103-.856.19a2.1 2.1 0 0 0-.918.919c-.088.172-.155.411-.191.856-.037.455-.038 1.042-.038 1.897v2.4c0 .855 0 1.442.038 1.897.036.445.103.683.19.856a2.1 2.1 0 0 0 .919.918c.172.088.411.155.856.191.455.037 1.042.038 1.897.038h6.4c.855 0 1.442 0 1.897-.038.445-.036.683-.103.856-.19a2.1 2.1 0 0 0 .918-.919c.088-.172.155-.411.191-.856.037-.455.038-1.042.038-1.897v-2.4c0-.855 0-1.442-.038-1.897-.036-.445-.103-.684-.19-.856a2.1 2.1 0 0 0-.919-.918c-.172-.088-.411-.155-.856-.191C16.642 9.9 16.055 9.9 15.2 9.9H8.8c-.855 0-1.442 0-1.897.038ZM15.1 7a3.1 3.1 0 1 0-6.2 0v1.1h6.2V7Z" clip-rule="evenodd"/><path fill-rule="evenodd" d="M13 14a1 1 0 1 0-2 0v2a1 1 0 1 0 2 0v-2Z" clip-rule="evenodd"/>
  </symbol>
  <symbol xmlns="http://www.w3.org/2000/svg" viewBox="0 0 24 24" id="selected">
     <path fill-rule="evenodd" d="M20.736 5.664a.9.9 0 0 1 0 1.272l-11.1 11.1a.9.9 0 0 1-1.272 0l-5.1-5.1a.9.9 0 0 1 1.272-1.272L9 16.127 19.464 5.664a.9.9 0 0 1 1.272 0Z" clip-rule="evenodd"/>
  </symbol>
  <symbol xmlns="http://www.w3.org/2000/svg" viewBox="0 0 24 24" id="github">
    <path stroke="none" d="M0 0h24v24H0z" fill="none"/><path d="M9 19c-4.3 1.4 -4.3 -2.5 -6 -3m12 5v-3.5c0 -1 .1 -1.4 -.5 -2c2.8 -.3 5.5 -1.4 5.5 -6a4.6 4.6 0 0 0 -1.3 -3.2a4.2 4.2 0 0 0 -.1 -3.2s-1.1 -.3 -3.5 1.3a12.3 12.3 0 0 0 -6.2 0c-2.4 -1.6 -3.5 -1.3 -3.5 -1.3a4.2 4.2 0 0 0 -.1 3.2a4.6 4.6 0 0 0 -1.3 3.2c0 4.6 2.7 5.7 5.5 6c-.6 .6 -.6 1.2 -.5 2v3.5" />
  </symbol>
  <symbol xmlns="http://www.w3.org/2000/svg" viewBox="0 0 24 24" id="discord">
    <path d="M18.8943 4.34399C17.5183 3.71467 16.057 3.256 14.5317 3C14.3396 3.33067 14.1263 3.77866 13.977 4.13067C12.3546 3.89599 10.7439 3.89599 9.14391 4.13067C8.99457 3.77866 8.77056 3.33067 8.58922 3C7.05325 3.256 5.59191 3.71467 4.22552 4.34399C1.46286 8.41865 0.716188 12.3973 1.08952 16.3226C2.92418 17.6559 4.69486 18.4666 6.4346 19C6.86126 18.424 7.24527 17.8053 7.57594 17.1546C6.9466 16.92 6.34927 16.632 5.77327 16.2906C5.9226 16.184 6.07194 16.0667 6.21061 15.9493C9.68793 17.5387 13.4543 17.5387 16.889 15.9493C17.0383 16.0667 17.177 16.184 17.3263 16.2906C16.7503 16.632 16.153 16.92 15.5236 17.1546C15.8543 17.8053 16.2383 18.424 16.665 19C18.4036 18.4666 20.185 17.6559 22.01 16.3226C22.4687 11.7787 21.2836 7.83202 18.8943 4.34399ZM8.05593 13.9013C7.01058 13.9013 6.15725 12.952 6.15725 11.7893C6.15725 10.6267 6.98925 9.67731 8.05593 9.67731C9.11191 9.67731 9.97588 10.6267 9.95454 11.7893C9.95454 12.952 9.11191 13.9013 8.05593 13.9013ZM15.065 13.9013C14.0196 13.9013 13.1652 12.952 13.1652 11.7893C13.1652 10.6267 13.9983 9.67731 15.065 9.67731C16.121 9.67731 16.985 10.6267 16.9636 11.7893C16.9636 12.952 16.1317 13.9013 15.065 13.9013Z" stroke-linejoin="round"/>
  </symbol> 
  <symbol xmlns="http://www.w3.org/2000/svg" viewBox="0 0 24 24" id="telegram">
    <path stroke="none" d="M0 0h24v24H0z" fill="none"/><path d="M15 10l-4 4l6 6l4 -16l-18 7l4 2l2 6l3 -4" />
  </symbol> 
  <symbol xmlns="http://www.w3.org/2000/svg" viewBox="0 0 24 24" id="vk">
   <path clip-rule="evenodd" d="m4.2653 4.2653c-1.2653 1.2653-1.2653 3.30177-1.2653 7.3747v.72c0 4.0729 0 6.1094 1.2653 7.3747s3.30176 1.2653 7.3747 1.2653h.72c4.0729 0 6.1094 0 7.3747-1.2653s1.2653-3.3018 1.2653-7.3747v-.72c0-4.07293 0-6.1094-1.2653-7.3747s-3.3018-1.2653-7.3747-1.2653h-.72c-4.07294 0-6.1094 0-7.3747 1.2653zm1.7347 4.2347c.09636 4.6823 2.55576 7.5 6.6095 7.5h.2351v-2.6787c1.4764.1499 2.5773 1.2536 3.0268 2.6787h2.1286c-.5775-2.1318-2.0747-3.3105-3.0052-3.7608.9298-.5569 2.2458-1.9071 2.5557-3.7392h-1.9365c-.4064 1.48991-1.6152 2.8401-2.7701 2.9683v-2.9683h-1.9675v5.1967c-1.19737-.2997-2.75931-1.7572-2.82331-5.1967z" fill="currentColor" fill-rule="evenodd"/>
  </symbol>
  <symbol xmlns="http://www.w3.org/2000/svg" viewBox="0 0 24 24" id="ok">
    <path d="M10.867 7.245a1.613 1.613 0 0 1 2.283 0 1.605 1.605 0 0 1 0 2.277 1.613 1.613 0 0 1-2.283 0 1.605 1.605 0 0 1-.475-1.139c0-.443.192-.846.475-1.138Z"/><path fill-rule="evenodd" d="M3.396 3.397C2 4.804 2 7.075 2 11.598v.804c0 4.533 0 6.794 1.406 8.201C4.813 22 7.083 22 11.603 22h.804c4.52 0 6.8 0 8.197-1.397C22 19.196 22 16.925 22 12.402v-.804c0-4.523 0-6.804-1.396-8.201C19.197 2 16.927 2 12.407 2h-.804c-4.53 0-6.79 0-8.207 1.397Zm8.602 8.533a3.547 3.547 0 0 0 3.545-3.537 3.547 3.547 0 0 0-3.545-3.536c-.98 0-1.868.403-2.505 1.038a3.494 3.494 0 0 0-1.04 2.498c0 .988.404 1.864 1.04 2.499a3.565 3.565 0 0 0 2.505 1.038Zm4.788 1.43-1.04-1.42a.17.17 0 0 0-.253-.02c-.98.836-2.192 1.38-3.495 1.38s-2.504-.544-3.494-1.38a.187.187 0 0 0-.253.02l-1.04 1.42a.17.17 0 0 0 .02.222 7.504 7.504 0 0 0 2.96 1.44l-2.202 3.869c-.061.11.02.252.141.252h2.151c.071 0 .132-.04.152-.111l1.535-3.425 1.535 3.425c.02.06.081.11.152.11h2.151c.131 0 .202-.13.141-.251l-2.201-3.869c1.06-.252 2.08-.715 2.959-1.44.131-.06.141-.151.08-.222Z" clip-rule="evenodd"/>
  </symbol>
  <symbol xmlns="http://www.w3.org/2000/svg" viewBox="0 0 24 24" id="tw">
    <path stroke="none" d="M0 0h24v24H0z" fill="none"/>
  <path d="M22 4.01c-1 .49 -1.98 .689 -3 .99c-1.121 -1.265 -2.783 -1.335 -4.38 -.737s-2.643 2.06 -2.62 3.737v1c-3.245 .083 -6.135 -1.395 -8 -4c0 0 -4.182 7.433 4 11c-1.872 1.247 -3.739 2.088 -6 2c3.308 1.803 6.913 2.423 10.034 1.517c3.58 -1.04 6.522 -3.723 7.651 -7.742a13.84 13.84 0 0 0 .497 -3.753c0 -.249 1.51 -2.772 1.818 -4.013z" />
  </symbol>
  <symbol xmlns="http://www.w3.org/2000/svg" viewBox="0 0 24 24" id="fb">
    <g id="Page-2" stroke="none" stroke-width="1" fill="none" fill-rule="evenodd">
        <g id="logo_facebook_24">
            <rect id="Rectangle-530" x="0" y="0" width="24" height="24"></rect>
            <path d="M3,5 L3,19 C3,20.1045695 3.8954305,21 5,21 L10.997,21 L10.997,14.9925 L8.995,14.9925 L8.995,11.991 L10.9975,11.991 L10.9975,9.959 C10.9975,7.763 12.4665356,6.00836182 15.0363598,6.00836182 C15.9743598,6.00836182 17.2635,6.137 17.4985,6.1685 L17.3998015,8.96400023 L15.7698005,8.92498779 C14.7800706,8.96400045 13.9870005,9.72391895 13.9870005,10.4669189 L13.987,11.991 L16.993,11.991 L16.662,14.9925 L13.987,14.9925 L13.987,21 L19,21 C20.1045695,21 21,20.1045695 21,19 L21,5 C21,3.8954305 20.1045695,3 19,3 L5,3 C3.8954305,3 3,3.8954305 3,5 Z" id="Mask" fill="currentColor"></path>
        </g>
    </g>
  </symbol>
  <symbol xmlns="http://www.w3.org/2000/svg" viewBox="0 0 24 24" id="share">
    <g id="Page-2" stroke="none" stroke-width="1" fill="none" fill-rule="evenodd">
        <g id="share_external_24">
            <polygon id="Shape" points="0 0 24 0 24 24 0 24"></polygon>
            <path d="M17,16.08 C16.24,16.08 15.56,16.38 15.04,16.85 L7.91,12.7 C7.96,12.47 8,12.24 8,12 C8,11.76 7.96,11.53 7.91,11.3 L14.96,7.19 C15.5,7.69 16.21,8 17,8 C18.66,8 20,6.66 20,5 C20,3.34 18.66,2 17,2 C15.34,2 14,3.34 14,5 C14,5.24 14.04,5.47 14.09,5.7 L7.04,9.81 C6.5,9.31 5.79,9 5,9 C3.34,9 2,10.34 2,12 C2,13.66 3.34,15 5,15 C5.79,15 6.5,14.69 7.04,14.19 L14.16,18.35 C14.11,18.56 14.08,18.78 14.08,19 C14.08,20.61 15.39,21.92 17,21.92 C18.61,21.92 19.92,20.61 19.92,19 C19.92,17.39 18.61,16.08 17,16.08 L17,16.08 Z" id="Mask" fill="currentColor"></path>
        </g>
    </g>
  </symbol>
</svg>