<svg xmlns="http://www.w3.org/2000/svg"
     xmlns:xlink="http://www.w3.org/1999/xlink"
     viewBox="0 0 200 200">
 <defs>
  <style type="text/css">
   <![CDATA[
    .fil3 {fill:#7690C9}
    .fil0 {fill:#A1BE74}
    .fil5 {fill:#D6AC72}
    .fil2 {fill:#FF786C}
    .fil1 {fill:#434242;fill-rule:nonzero}
    .fil4 {fill:#434242;fill-rule:nonzero}
   ]]>
  </style>
 </defs>
 <g id="Logo_Framework_HLEB">
  <metadata id="Layer_Id"/>
  <path class="fil0" d="M174.98 160.11c18.06,-5.49 12.59,-12.17 9.43,-14.35 -6.18,-4.26 20.39,-8.66 11.31,23.43 -6.77,0.79 -11.8,-3.95 -18.57,-3.16 -0.72,-1.97 -1.44,-3.95 -2.17,-5.92z"/>
  <path class="fil1" d="M174.72 159.26c4.85,-1.48 7.94,-3.03 9.8,-4.53 1.44,-1.17 2.11,-2.28 2.27,-3.28 0.15,-0.97 -0.15,-1.89 -0.65,-2.68 -0.6,-0.96 -1.49,-1.76 -2.24,-2.27 -0.99,-0.68 -1.39,-1.45 -1.33,-2.2 0.11,-1.4 2.04,-2.46 4.57,-2.39 2.23,0.06 5.01,0.94 7.27,3.19 3.65,3.66 5.96,10.97 2.17,24.33l-0.16 0.59 -0.6 0.06c-3.58,0.42 -6.62,-0.6 -9.67,-1.62 -2.85,-0.96 -5.71,-1.91 -8.9,-1.54l-0.7 0.08 -2.74 -7.47 0.91 -0.27zm10.93 -3.14c-1.89,1.54 -4.91,3.1 -9.5,4.57l1.61 4.38c3.27,-0.22 6.12,0.74 8.96,1.69 2.67,0.89 5.35,1.79 8.3,1.59 3.33,-12.2 1.33,-18.76 -1.89,-21.98 -1.88,-1.88 -4.19,-2.62 -6.03,-2.67 -1.55,-0.04 -2.7,0.29 -2.73,0.74 -0.01,0.12 0.15,0.31 0.55,0.58 0.9,0.62 1.99,1.59 2.74,2.8 0.71,1.12 1.13,2.45 0.9,3.91 -0.23,1.42 -1.08,2.92 -2.91,4.39z"/>
  <path class="fil2" d="M69.34 32.64c-2.36,-3.41 -4.72,-6.82 -7.08,-10.23 -2.36,-0.26 -4.72,-0.53 -7.09,-0.79 -0.08,-2.01 -0.17,-4.02 -0.26,-6.03 1.66,-5.07 8.05,0.87 12.07,1.31 -1.75,-10.71 0.09,-14.21 9.76,-14.01 -1.41,6.46 -3.06,7.85 -0.31,13.75 2.01,-0.18 5.33,-4.55 7.34,-4.72 2.54,0.08 6.65,0.69 7.87,7.6 -2.45,2.36 -9.09,0.53 -11.54,2.89 -5.97,6.22 -2.73,7.08 -10.76,10.23z"/>
  <path class="fil1" d="M68.6 33.15l-6.85 -9.89 -7.44 -0.83 -0.3 -6.97 0.05 -0.15c0.96,-2.94 3.06,-3.07 5.53,-2.26 1.04,0.34 2.14,0.86 3.23,1.37 1.06,0.51 2.13,1.01 3.07,1.32 -0.69,-4.87 -0.53,-8.22 0.94,-10.43 1.64,-2.49 4.76,-3.42 9.93,-3.31l1.09 0.02 -0.23 1.06c-0.31,1.44 -0.65,2.66 -0.95,3.74 -0.89,3.21 -1.37,4.96 0.25,8.73 0.72,-0.35 1.66,-1.15 2.6,-1.96 1.44,-1.23 2.89,-2.46 4.17,-2.57l0.11 0c1.39,0.05 3.22,0.24 4.91,1.4 1.67,1.15 3.16,3.21 3.82,6.95l0.08 0.47 -0.35 0.33c-1.46,1.41 -3.9,1.55 -6.34,1.69 -2.1,0.12 -4.2,0.25 -5.19,1.19 -2.17,2.27 -3.08,3.8 -3.79,4.99 -1.3,2.2 -1.99,3.36 -7.27,5.44l-0.66 0.26 -0.41 -0.59zm-5.6 -11.25l6.67 9.64c4.1,-1.68 4.68,-2.65 5.73,-4.41 0.75,-1.28 1.72,-2.91 4.05,-5.34l0.03 -0.03c1.46,-1.41 3.9,-1.55 6.34,-1.69 1.88,-0.11 3.75,-0.22 4.84,-0.91 -0.6,-2.84 -1.72,-4.4 -2.97,-5.26 -1.28,-0.87 -2.74,-1.04 -3.87,-1.09 -0.72,0.09 -1.93,1.12 -3.14,2.15 -1.44,1.23 -2.89,2.46 -4.18,2.57l-0.62 0.06 -0.27 -0.57c-2.27,-4.87 -1.72,-6.85 -0.67,-10.68 0.21,-0.75 0.44,-1.58 0.67,-2.56 -3.83,0.04 -6.14,0.79 -7.28,2.52 -1.31,1.97 -1.3,5.33 -0.46,10.46l0.19 1.16 -1.17 -0.13c-1.5,-0.16 -3.17,-0.95 -4.84,-1.74 -1.04,-0.49 -2.09,-0.99 -3.02,-1.29 -1.45,-0.47 -2.67,-0.47 -3.21,0.96l0.22 5.1 6.72 0.74 0.24 0.34z"/>
  <path class="fil2" d="M109.09 90.78c0.51,0.61 2.7,1.62 3.21,2.22 4.96,-7.22 1.02,-6.54 0.31,-12.47 -5.35,-0.46 -9.67,1.75 -9.72,3.73 0.98,3.8 1.64,7.66 6.2,6.52z"/>
  <path class="fil1" d="M109.78 90.2c0.16,0.19 0.77,0.56 1.38,0.93l0.93 0.57c2.4,-3.72 1.87,-4.82 1.06,-6.49 -0.47,-0.98 -1.02,-2.12 -1.32,-3.83l-0.21 -0.01c-2.26,-0.06 -4.27,0.38 -5.73,1.04 -1.22,0.55 -1.99,1.21 -2.09,1.77l0.13 0.53c0.79,3.12 1.53,6.05 4.94,5.2l0.54 -0.13 0.37 0.42zm0.46 2.47c-0.51,-0.31 -1.02,-0.61 -1.4,-0.91 -4.75,0.95 -5.67,-2.72 -6.65,-6.61l-0.21 -0.8 0.02 -0.25c0.1,-1.25 1.28,-2.48 3.15,-3.33 1.67,-0.76 3.96,-1.26 6.52,-1.19l1.02 0.06 0.73 0.06 0.08 0.73c0.22,1.84 0.79,3.01 1.27,4 1.14,2.36 1.86,3.86 -1.73,9.08l-0.67 0.97 -0.76 -0.9c-0.16,-0.19 -0.77,-0.55 -1.37,-0.91z"/>
  <path class="fil2" d="M22.61 87.64c4.65,0 8.43,4.44 8.43,9.9 0,5.47 -3.78,9.9 -8.43,9.9 -4.66,0 -8.44,-4.43 -8.44,-9.9 0,-5.46 3.78,-9.9 8.44,-9.9z"/>
  <path class="fil1" d="M22.61 86.74c2.6,0 4.95,1.24 6.64,3.22 1.66,1.95 2.69,4.64 2.69,7.58 0,2.95 -1.03,5.64 -2.69,7.58 -1.69,1.99 -4.04,3.22 -6.64,3.22 -2.6,0 -4.95,-1.23 -6.65,-3.22 -1.66,-1.94 -2.69,-4.63 -2.69,-7.58 0,-2.94 1.03,-5.63 2.69,-7.58 1.7,-1.98 4.05,-3.22 6.65,-3.22zm5.28 4.39c-1.36,-1.6 -3.23,-2.59 -5.28,-2.59 -2.06,0 -3.93,0.99 -5.28,2.58 -1.39,1.64 -2.26,3.91 -2.26,6.42 0,2.52 0.87,4.79 2.26,6.42 1.35,1.6 3.22,2.58 5.28,2.58 2.05,0 3.92,-0.98 5.28,-2.58 1.39,-1.63 2.25,-3.9 2.25,-6.42 0,-2.51 -0.86,-4.78 -2.25,-6.41z"/>
  <path class="fil2" d="M18.39 90.07c11.95,14.36 20.37,15.12 19.08,3.48 0,0 -18.97,-6.54 -19.18,-5.91 0.03,0.81 0.07,1.62 0.1,2.43z"/>
  <path class="fil1" d="M19.27 89.73c4.7,5.6 8.8,9.03 11.91,10.38 1.28,0.55 2.36,0.73 3.19,0.55 0.74,-0.16 1.32,-0.65 1.71,-1.45 0.54,-1.11 0.75,-2.78 0.55,-5.02 -2.89,-1.06 -16.42,-6.03 -17.43,-6.26l0.07 1.8zm11.2 12.03c-3.39,-1.47 -7.8,-5.15 -12.77,-11.12l-0.19 -0.23 -0.13 -2.89 0.06 -0.16c0.47,-1.42 20.27,5.32 20.33,5.34l0.53 0.19 0.07 0.56c0.31,2.86 0.06,5.05 -0.67,6.55 -0.64,1.32 -1.65,2.13 -2.95,2.41 -1.2,0.27 -2.65,0.05 -4.28,-0.65z"/>
  <path class="fil2" d="M18.67 88.49c1.81,12.3 -1.89,29.31 -11.06,14.24 8.76,-2.67 9.69,-13.88 10.61,-15.63l0.45 1.39z"/>
  <path class="fil1" d="M19.56 88.36c0.85,5.81 0.5,12.68 -1.07,16.88 -0.58,1.57 -1.34,2.8 -2.29,3.54 -1.08,0.83 -2.34,1.04 -3.76,0.42 -1.64,-0.7 -3.51,-2.58 -5.59,-6l-0.6 -0.99 1.1 -0.34c6.57,-1.99 8.46,-9.36 9.4,-13.02 0.26,-1 0.45,-1.75 0.68,-2.17l0.99 -1.89c0.27,0.83 1.04,2.81 1.14,3.57zm-2.75 16.25c1.27,-3.39 1.68,-8.7 1.24,-13.66 -1.12,3.99 -3.31,9.9 -9.08,12.25 1.62,2.48 3.01,3.85 4.17,4.35 0.76,0.33 1.42,0.23 1.96,-0.19 0.67,-0.52 1.25,-1.48 1.71,-2.75z"/>
  <path class="fil0" d="M72.07 197.24c-0.5,-0.37 -0.99,-0.74 -1.49,-1.11 -5.49,-9.87 -4.15,-7.49 -16.36,-9.15 3.28,-2.87 8.55,-3.15 11.3,-8.6 -14.45,8.97 -20.99,1.65 -25.88,-4.17 12.96,1.25 22.25,1.47 23.2,-9.98 -27.99,-4.53 -34.51,-2.32 -33.94,12.34 -11.95,-1.24 -8.78,-14.06 -2.68,-16.65 -11.74,-9.72 -12.86,-14.22 -4.21,-22.44 -1.22,9.08 9.8,17.14 21.08,16.89 15.85,-0.34 17.04,-6.6 20.65,-21.77 -1.22,-18.06 -18.84,-14.64 -27.37,-14.71 -12.05,3.13 -10.1,10.85 -7.14,13.87 -18.47,-3.07 -16.33,-36.84 36.29,-17.75 -0.39,-9.81 -0.79,-19.61 -1.19,-29.41 -9.88,-18.04 -40.11,-23.11 -46.11,-10.54 12.15,-0.61 12.89,4.98 21.12,19.14 -5.86,5.34 -14.96,-3.12 -21.12,-6.1 -3.32,5.15 -2.41,14.58 -14.28,16.64 -0.3,-2.5 -0.59,-4.99 -0.89,-7.49 0.22,-12.61 -3.41,-15.4 7.73,-20.81 12.6,-20.22 23.07,-17.36 53.26,-3.88 3.91,-19.29 -1.36,-24.67 -6.85,-28.86 -16.18,-9.1 -22.85,3.62 -20.82,11.1 -15.15,1.24 -12.22,-21.54 0.59,-24.14 -0.77,-3.73 -6.05,-8.72 2.38,-11.37 -0.83,4.52 1.81,6.34 4.5,7.13 16.66,5.05 11.51,1.75 25.25,13.95l0.11 -3.49c-5.35,-4.52 -4.28,-4.99 -6.22,-12.38 6.66,3.13 12.61,5.03 16.98,0.45 5.82,-6.09 -2.77,10.11 -6.6,11.42l-0.1 2.89c8.63,-4.71 15.06,-12.97 25.88,-14.15 1.36,-2.54 1,-5.26 -1.79,-6.93 9.52,-2.4 10.89,5.45 5.06,12.48 14.8,1.25 20.37,19.11 2.38,26.36 11.73,-26.88 -28.28,-11.17 -27.96,-0.55 -0.6,5.27 -1.19,10.54 -1.79,15.81 22.86,-9.4 22.75,-10.09 32.52,-1.66 2.58,3.33 1.68,7.55 7.74,9.98 4.7,1.5 1.24,-1.94 3.86,-3.88 7.17,0.18 4.97,7.51 -4.76,8.32 -3.17,-0.36 -5.44,-0.82 -7.43,-3.33 -2.82,6.11 -12.27,10.84 -15.77,2.22 -0.31,-2.99 3.42,-3.46 5.88,-2.45 1.42,0.58 -1.42,3.87 4.26,2.56 4.53,-3.27 3.12,-6.37 2.19,-9.04 -3.94,-11.33 -20.83,-0.39 -28.49,8.93 -0.1,9.07 0,13.7 -0.1,22.77 15.27,-2.92 25.13,-1.77 31.25,1.18 14.55,0.19 31.19,-1.98 37.65,-16.76 6.8,-12.53 14.51,-38.32 -1.04,-42.83 -4.21,-1.22 -9.52,-1.6 -16.09,-0.84 -0.37,-11.94 34.14,-15.78 40.7,16.6 20.99,0.94 30.96,19.73 15.19,30.91 -2.19,-1.03 -3.69,-48.88 -35.04,4.91 -4.99,7.43 -24.65,9.72 -33.55,15.78 2.62,6.29 -0.27,13.1 -3.61,13.49 3.13,-20.27 -29.37,-7.57 -33.57,0.85 0.59,5.73 1.19,3.82 1.78,9.56 9.44,-4.1 11.78,-9.33 18.21,4.36 2.11,4.49 -15.24,-7.78 -18.31,15.24 -0.49,3.71 2.57,7.27 -1.09,10.24 10.42,7.55 7.59,5.96 20.53,1.94 -1.33,8.93 -10.91,13.53 -19.18,8.73 -0.84,3.9 5.2,4.4 7.88,6.25 -10.31,4.34 -8.62,2.97 -14.58,11.93zm59.47 -64.1c-0.37,1.31 -0.74,1.94 -1.1,5.47 -9.44,-4.09 -11.78,-9.32 -18.21,4.36 -2.11,4.49 15.24,-7.78 18.31,15.25 0.49,3.7 -2.57,7.26 1.09,10.23 -10.42,7.56 -7.59,5.96 -20.53,1.94 1.33,8.93 10.91,13.53 19.18,8.74 0.85,3.89 -5.2,4.4 -7.87,6.25 10.3,4.33 8.61,2.97 14.57,11.93l1.49 -1.11c5.49,-9.88 4.15,-7.49 16.36,-9.16 -3.28,-2.87 -8.55,-3.14 -11.3,-8.6 14.45,8.97 20.99,1.66 25.88,-4.16 -31.25,-2.41 -22.92,-26.83 -23.87,-38.29 12.95,-4.24 23.24,-6.29 22.66,8.37 11.96,-1.25 8.78,-14.07 2.68,-16.65 11.74,-9.73 12.52,-18.69 3.87,-26.91 3.32,24.8 -32.51,31.7 -28.09,8.32 -1.74,-0.39 -3.4,19.36 -4.47,19.03l-10.65 4.99z"/>
  <path class="fil1" d="M71.53 197.96l-1.64 -1.22 -0.12 -0.22c-2.45,-4.41 -3.49,-6.28 -4.92,-7.07 -1.05,-0.59 -2.49,-0.72 -4.98,-0.95 -1.51,-0.14 -3.4,-0.31 -5.77,-0.63l-1.96 -0.27 1.49 -1.3c1.26,-1.1 2.74,-1.82 4.27,-2.57 1.4,-0.68 2.85,-1.38 4.14,-2.43 -5.54,2.58 -9.85,2.63 -13.34,1.39 -4.28,-1.51 -7.23,-4.9 -9.75,-7.9l-1.41 -1.68 2.18 0.21c6.39,0.61 11.86,0.98 15.77,-0.2 3.49,-1.05 5.77,-3.42 6.37,-8.14 -13.35,-2.13 -21.61,-2.66 -26.4,-0.93 -4.59,1.65 -5.93,5.6 -5.67,12.49l0.05 1.03 -1.03 -0.1c-3.28,-0.34 -5.52,-1.51 -6.95,-3.11 -1.19,-1.34 -1.79,-2.96 -1.94,-4.65 -0.14,-1.64 0.16,-3.35 0.79,-4.92 0.83,-2.06 2.22,-3.89 3.93,-5.02 -5.4,-4.58 -8.38,-8.06 -9.05,-11.46 -0.74,-3.73 1.23,-7.14 5.8,-11.48l1.85 -1.75 -0.34 2.51c-0.07,0.5 -0.09,0.99 -0.08,1.48 0.07,3.43 2.02,6.66 5.03,9.19 3.08,2.58 7.25,4.43 11.69,5.02 1.16,0.15 2.35,0.22 3.54,0.2 14.85,-0.33 16.24,-6.17 19.58,-20.25l0.17 -0.71c-1.07,-14.68 -13.95,-14.17 -22.67,-13.83 -1.33,0.05 -2.56,0.1 -3.68,0.1 -3.21,0.85 -5.35,2.02 -6.69,3.33 -0.96,0.94 -1.5,1.94 -1.74,2.93 -0.24,0.99 -0.19,1.99 0.05,2.91 0.33,1.27 1.01,2.4 1.77,3.18l1.92 1.96 -2.71 -0.45c-5.59,-0.93 -9.42,-4.52 -10.76,-8.73 -0.74,-2.31 -0.72,-4.82 0.17,-7.16 0.89,-2.34 2.64,-4.51 5.37,-6.18 6.76,-4.16 19.72,-5.26 40.71,2.14l-1.13 -27.87c-3.22,-5.77 -8.61,-10.17 -14.59,-13.02 -4.55,-2.17 -9.43,-3.45 -13.95,-3.75 -4.46,-0.3 -8.56,0.35 -11.59,2.01 -1.42,0.78 -2.61,1.78 -3.49,3.02 9.39,-0.05 11.66,4.07 16.9,13.58 1,1.82 2.12,3.86 3.4,6.06l0.37 0.63 -0.54 0.48c-4.98,4.54 -11.67,0.37 -17.44,-3.23 -1.39,-0.87 -2.73,-1.7 -3.94,-2.35 -0.63,1.18 -1.11,2.57 -1.6,4.01 -1.75,5.06 -3.7,10.74 -12.88,12.34l-0.93 0.16c-0.29,-2.38 -1.04,-6.43 -1.01,-8.55 0.05,-2.86 -0.1,-5.24 -0.23,-7.25 -0.46,-7.09 -0.64,-9.89 8.24,-14.24 6.43,-10.24 12.38,-14.65 20.64,-14.79 7.96,-0.12 17.93,3.8 32.57,10.32 1.68,-8.83 1.33,-14.53 -0.08,-18.51 -1.42,-4.02 -3.97,-6.31 -6.58,-8.31 -3.82,-2.14 -7.06,-3.02 -9.75,-3.02 -2.63,0 -4.72,0.85 -6.29,2.16 -1.59,1.32 -2.67,3.13 -3.25,5.04 -0.61,2.02 -0.67,4.14 -0.18,5.93l0.28 1.04 -1.08 0.09c-4.67,0.38 -7.79,-1.37 -9.54,-4.15 -0.95,-1.5 -1.48,-3.29 -1.62,-5.19 -0.14,-1.87 0.09,-3.85 0.65,-5.78 1.4,-4.74 4.86,-9.13 9.91,-10.57 -0.2,-0.57 -0.48,-1.18 -0.76,-1.79 -0.37,-0.81 -0.75,-1.64 -1.01,-2.47 -0.89,-2.85 -0.55,-5.58 5.01,-7.32l1.42 -0.44 -0.27 1.46c-0.37,1.96 0,3.32 0.75,4.25 0.75,0.94 1.92,1.51 3.11,1.86 3.14,0.94 5.38,1.57 7.16,2.06 3.41,0.95 5.2,1.45 6.94,2.41 1.93,1.07 3.66,2.63 7.33,5.93l2.74 2.46 0.03 -1.14c-4.13,-3.52 -4.39,-4.69 -5.27,-8.71 -0.24,-1.07 -0.52,-2.36 -0.91,-3.85l-0.49 -1.86 1.74 0.82c3.25,1.53 6.32,2.76 9.06,3.04 2.6,0.27 4.93,-0.33 6.89,-2.39 0.91,-0.94 1.57,-1.44 2.01,-1.58 1.37,-0.43 1.77,0.28 1.43,1.76 -0.14,0.59 -0.48,1.45 -0.97,2.44 -1.66,3.39 -5.13,8.56 -7.54,9.99l-0.03 0.74c2.3,-1.39 4.47,-3.01 6.65,-4.64 5.24,-3.91 10.49,-7.83 17.69,-8.76 0.44,-0.99 0.58,-1.98 0.35,-2.88 -0.24,-0.92 -0.89,-1.78 -2.01,-2.45l-1.85 -1.11 2.1 -0.53c2.53,-0.64 4.57,-0.59 6.1,-0.04 1.35,0.49 2.32,1.35 2.9,2.48 0.56,1.09 0.76,2.42 0.59,3.87 -0.22,1.95 -1.12,4.17 -2.66,6.35 4.1,0.69 7.43,2.63 9.67,5.22 1.63,1.88 2.69,4.1 3.07,6.45 0.38,2.35 0.08,4.82 -1.03,7.18 -1.65,3.52 -5.07,6.78 -10.66,9.03l-2.03 0.82 0.88 -2.01c2.48,-5.68 2.57,-9.28 1.21,-11.32 -1.04,-1.55 -3,-2.24 -5.4,-2.29 -2.57,-0.05 -5.62,0.62 -8.62,1.76 -6.93,2.62 -13.56,7.59 -13.44,11.63 0.11,3.16 -1.21,10.84 -1.61,14.43l2.21 -0.91c19.75,-8.17 20.18,-8.34 29.83,-0.02l0.12 0.13c0.94,1.21 1.44,2.48 1.93,3.75 0.88,2.22 1.75,4.45 5.38,5.93 1.18,0.38 1.49,0.45 1.5,0.42 0.04,-0.12 0.04,-0.38 0.04,-0.66 0.02,-1.07 0.03,-2.42 1.51,-3.51l0.25 -0.18 0.3 0c2.28,0.06 3.78,0.8 4.53,1.86 0.46,0.64 0.64,1.38 0.55,2.16 -0.08,0.72 -0.39,1.46 -0.92,2.17 -1.39,1.85 -4.41,3.56 -8.86,3.93l-0.18 0c-1.65,-0.19 -3.07,-0.41 -4.38,-0.92 -1,-0.39 -1.91,-0.94 -2.76,-1.76 -1.47,2.42 -3.86,4.52 -6.42,5.55 -1.03,0.42 -2.11,0.68 -3.17,0.72 -1.09,0.04 -2.16,-0.15 -3.15,-0.61 -1.64,-0.76 -3.08,-2.24 -4.05,-4.65l-0.05 -0.11 -0.01 -0.13c-0.07,-0.66 0.01,-1.24 0.22,-1.74 0.28,-0.68 0.78,-1.2 1.4,-1.56 0.57,-0.33 1.25,-0.52 1.97,-0.59 1.16,-0.12 2.45,0.07 3.53,0.51 1.02,0.43 1.02,1.21 1.02,2.04 0,0.22 0.01,0.43 0.03,0.56 0.06,0.26 0.51,0.4 2.48,-0.04 3.58,-2.67 2.67,-5.25 1.87,-7.5l-0.15 -0.42c-0.47,-1.36 -1.14,-2.35 -1.96,-3.02 -0.94,-0.78 -2.11,-1.15 -3.42,-1.2 -1.4,-0.05 -2.96,0.25 -4.6,0.82 -5.87,2.04 -12.61,7.41 -16.76,12.37 -0.05,4.4 -0.05,7.76 -0.05,11.12 -0.01,3.12 -0.01,6.26 -0.04,10.23 6.75,-1.22 12.44,-1.65 17.2,-1.46 5.65,0.21 10.02,1.27 13.35,2.83 7.13,0.09 14.75,-0.41 21.35,-2.71 6.57,-2.29 12.15,-6.38 15.26,-13.51l0.04 -0.07c2.08,-3.83 4.24,-8.92 5.78,-14.23 1.57,-5.4 2.49,-11.03 2.03,-15.83 -0.44,-4.63 -2.18,-8.47 -5.92,-10.5 -0.73,-0.4 -1.52,-0.73 -2.39,-0.98 -2.09,-0.6 -4.47,-1 -7.15,-1.13 -2.57,-0.14 -5.43,-0.04 -8.59,0.32l-0.96 0.11 -0.03 -0.97c-0.11,-3.3 2.07,-6.01 5.52,-7.71 2.25,-1.1 5.06,-1.78 8.12,-1.88 3.03,-0.1 6.33,0.36 9.59,1.51 8.17,2.88 16.12,10.12 19.09,23.79 6.59,0.42 12.09,2.57 16.06,5.68 2.92,2.28 5.03,5.08 6.13,8.1 1.12,3.05 1.23,6.32 0.15,9.51 -1.12,3.29 -3.51,6.48 -7.36,9.21l-0.43 0.3 -0.47 -0.22c-0.78,-0.36 -1.19,-2.16 -1.75,-4.67 -1.09,-4.88 -2.88,-12.84 -6.9,-15.18 -4.43,-2.59 -11.97,1.63 -25.24,24.4l-0.03 0.05c-3.04,4.53 -10.95,7.16 -18.86,9.79 -5.33,1.77 -10.67,3.54 -14.33,5.85 0.37,1.04 0.6,2.09 0.72,3.11 0.28,2.44 -0.09,4.78 -0.86,6.64 -0.8,1.95 -2.05,3.42 -3.45,4 -0.33,0.14 -0.67,0.23 -1.02,0.27l-1.17 0.13 0.18 -1.16c0.55,-3.53 -0.04,-5.94 -1.38,-7.47 -1.19,-1.36 -3.02,-2.07 -5.18,-2.3 -2.28,-0.23 -4.93,0.07 -7.64,0.73 -7.54,1.86 -15.48,6.46 -17.56,10.21 0.28,2.56 0.55,3.45 0.83,4.33 0.26,0.85 0.52,1.69 0.78,3.73 1.29,-0.61 2.45,-1.22 3.49,-1.78 0.85,-0.45 1.63,-0.87 2.45,-1.25 4.77,-2.25 7.56,-1.83 12.33,8.33 0.54,1.14 0.32,1.81 -0.5,2.2 -0.62,0.29 -1.57,0.16 -2.82,-0.01 -4.26,-0.57 -12.87,-1.73 -14.91,13.55l-0.58 10.03 0.12 0.08c4.07,2.96 5.85,4.25 7.52,4.41 1.28,0.12 2.76,-0.41 5.38,-1.35 1.51,-0.53 3.37,-1.2 5.84,-1.97l1.37 -0.42 -0.21 1.41c-0.27,1.81 -0.86,3.46 -1.7,4.9 -1.35,2.33 -3.35,4.13 -5.7,5.25 -2.34,1.11 -5.04,1.54 -7.79,1.13 -1.26,-0.19 -2.54,-0.56 -3.79,-1.11 0.63,1.08 2.35,1.75 4.02,2.4 1.2,0.46 2.38,0.92 3.27,1.54l1.35 0.93 -4.09 1.72c-3.27,1.35 -4.9,2.03 -6.11,3.02 -1.19,0.97 -2.12,2.38 -3.96,5.19l-2.05 3.1 -0.76 -0.57zm-0.26 -2.44l0.57 0.43 1 -1.51c1.93,-2.95 2.91,-4.43 4.32,-5.59 1.41,-1.16 3.13,-1.87 6.56,-3.29l0.81 -0.34 -1.3 -0.52c-2.98,-1.16 -6.09,-2.37 -5.34,-5.83l0.27 -1.2 1.06 0.62c1.54,0.89 3.13,1.44 4.69,1.67 2.4,0.36 4.73,-0.01 6.77,-0.98 2.02,-0.96 3.74,-2.51 4.91,-4.52 0.49,-0.86 0.89,-1.8 1.17,-2.81 -1.71,0.56 -3.13,1.06 -4.31,1.49 -2.86,1.02 -4.47,1.59 -6.16,1.43 -2.17,-0.2 -4.06,-1.58 -8.4,-4.73l-1.94 -1.41 0.91 -0.74c0.92,-4.51 0.32,-6.29 0.76,-9.65 2.28,-17.07 12.08,-15.75 16.92,-15.09 0.57,0.07 1.05,0.14 1.39,0.16 -4.05,-8.56 -6.24,-8.99 -9.87,-7.29 -0.66,0.31 -1.48,0.75 -2.37,1.22 -1.36,0.72 -2.91,1.54 -4.72,2.33l-1.12 0.49 -0.13 -1.22c-0.29,-2.77 -0.57,-3.69 -0.86,-4.6 -0.31,-1 -0.62,-2 -0.93,-4.96l-0.02 -0.26 0.11 -0.23c2.1,-4.2 10.73,-9.37 18.86,-11.37 2.9,-0.71 5.76,-1.03 8.25,-0.77 2.6,0.27 4.83,1.17 6.35,2.9 1.46,1.67 2.23,4.08 1.99,7.38 0.72,-0.55 1.36,-1.48 1.84,-2.65 0.66,-1.6 0.98,-3.62 0.74,-5.75 -0.13,-1.1 -0.41,-2.23 -0.87,-3.33l-0.28 -0.68 0.6 -0.41c3.86,-2.63 9.62,-4.54 15.38,-6.45 7.59,-2.52 15.19,-5.05 17.91,-9.07 13.97,-23.96 22.41,-28.1 27.68,-25.02 4.7,2.73 6.59,11.16 7.75,16.33l0.65 2.94c3.06,-2.36 4.98,-5.02 5.91,-7.74 0.94,-2.78 0.85,-5.64 -0.13,-8.32 -1,-2.71 -2.9,-5.23 -5.55,-7.3 -3.83,-3 -9.23,-5.04 -15.73,-5.33l-0.7 -0.03 -0.14 -0.69c-2.71,-13.38 -10.29,-20.39 -18.08,-23.14 -3.04,-1.07 -6.11,-1.5 -8.94,-1.41 -2.8,0.1 -5.35,0.71 -7.38,1.7 -2.45,1.2 -4.11,2.97 -4.46,5.06 2.84,-0.28 5.44,-0.34 7.82,-0.22 2.82,0.15 5.34,0.57 7.56,1.21 1.01,0.3 1.93,0.67 2.75,1.12 4.34,2.35 6.35,6.7 6.85,11.91 0.48,5.04 -0.48,10.91 -2.09,16.49 -1.59,5.47 -3.8,10.67 -5.93,14.59 -3.34,7.62 -9.3,11.99 -16.29,14.42 -6.9,2.41 -14.8,2.91 -22.16,2.81l-0.2 0 -0.18 -0.08c-3.15,-1.52 -7.34,-2.55 -12.81,-2.75 -4.89,-0.19 -10.79,0.28 -17.88,1.64l-1.08 0.2 0.01 -1.09c0.05,-4.5 0.05,-7.91 0.05,-11.31 0,-3.45 0.01,-6.9 0.06,-11.45l0 -0.32 0.2 -0.25c4.31,-5.23 11.49,-10.99 17.76,-13.16 1.85,-0.64 3.63,-0.98 5.25,-0.92 1.7,0.06 3.24,0.56 4.5,1.6 1.07,0.88 1.93,2.13 2.52,3.82l0.14 0.41c1.02,2.87 2.18,6.16 -2.66,9.66l-0.15 0.11 -0.17 0.04c-3.59,0.83 -4.53,-0.05 -4.81,-1.26 -0.07,-0.35 -0.08,-0.66 -0.08,-0.97 0.01,-0.21 0.18,-0.34 0.09,-0.38 -0.81,-0.33 -1.78,-0.48 -2.66,-0.39 -0.47,0.05 -0.91,0.17 -1.26,0.37 -0.29,0.17 -0.51,0.39 -0.63,0.69 -0.08,0.2 -0.12,0.45 -0.11,0.74 0.79,1.87 1.87,3.01 3.09,3.57 0.73,0.34 1.53,0.47 2.34,0.44 0.83,-0.03 1.7,-0.23 2.56,-0.58 2.55,-1.04 4.92,-3.3 6.08,-5.81l0.61 -1.32 0.9 1.14c0.89,1.11 1.84,1.77 2.91,2.19 1.09,0.42 2.36,0.62 3.84,0.79 3.85,-0.34 6.38,-1.72 7.5,-3.2 0.33,-0.45 0.52,-0.89 0.57,-1.29 0.03,-0.34 -0.04,-0.67 -0.23,-0.94 -0.41,-0.57 -1.32,-0.99 -2.77,-1.08 -0.55,0.55 -0.56,1.3 -0.56,1.9 -0.01,0.42 -0.01,0.81 -0.13,1.18 -0.35,1.11 -1.2,1.57 -3.77,0.75l-0.06 -0.02c-4.39,-1.77 -5.41,-4.37 -6.43,-6.97 -0.44,-1.12 -0.88,-2.25 -1.63,-3.24 -8.74,-7.53 -9.19,-7.35 -27.9,0.39l-5.02 2.07 1.95 -17.29c-0.05,-4.81 7.11,-10.44 14.6,-13.27 3.2,-1.21 6.48,-1.93 9.29,-1.87 2.97,0.06 5.46,0.98 6.86,3.09 1.49,2.24 1.67,5.77 -0.23,10.94 3.95,-1.98 6.44,-4.53 7.71,-7.22 0.95,-2.03 1.21,-4.14 0.88,-6.14 -0.32,-2.02 -1.24,-3.94 -2.65,-5.56 -2.24,-2.59 -5.73,-4.44 -10.05,-4.81l-1.72 -0.14 1.1 -1.33c1.91,-2.3 3,-4.67 3.23,-6.68 0.12,-1.09 -0.01,-2.07 -0.41,-2.84 -0.37,-0.73 -1.01,-1.29 -1.9,-1.61 -0.84,-0.3 -1.92,-0.41 -3.22,-0.25 0.61,0.68 1.01,1.44 1.22,2.25 0.37,1.47 0.1,3.06 -0.71,4.58l-0.22 0.42 -0.48 0.05c-6.96,0.76 -12.13,4.61 -17.29,8.47 -2.65,1.98 -5.31,3.96 -8.25,5.57l-1.39 0.76 0.19 -5.09 0.59 -0.2c1.94,-0.66 5.43,-5.96 7.09,-9.36l0.14 -0.28c-2.34,2.27 -5.07,2.94 -8.07,2.63 -2.49,-0.26 -5.15,-1.19 -7.94,-2.42l0.48 2.09c0.8,3.67 1.02,4.66 5,8.01l0.33 0.28 -0.18 5.85 -5.61 -5.02c-3.57,-3.21 -5.26,-4.73 -7,-5.7 -1.57,-0.86 -3.29,-1.34 -6.55,-2.25 -1.88,-0.52 -4.25,-1.18 -7.19,-2.07 -1.49,-0.44 -2.99,-1.18 -4.01,-2.47 -0.83,-1.03 -1.33,-2.39 -1.28,-4.18 -2.86,1.25 -3.03,2.9 -2.5,4.58 0.23,0.74 0.58,1.51 0.92,2.26 0.47,1.02 0.93,2.03 1.13,3.01l0.18 0.88 -0.88 0.18c-4.84,0.98 -8.17,5.09 -9.48,9.55 -0.51,1.71 -0.71,3.48 -0.59,5.13 0.13,1.62 0.57,3.13 1.35,4.38 1.27,2.02 3.51,3.36 6.85,3.35 -0.3,-1.84 -0.16,-3.88 0.43,-5.82 0.68,-2.23 1.95,-4.34 3.82,-5.9 1.88,-1.58 4.36,-2.59 7.44,-2.59 2.98,0 6.54,0.96 10.67,3.28l0.11 0.07c2.85,2.18 5.65,4.68 7.25,9.18 1.56,4.42 1.92,10.74 -0.08,20.56l-0.22 1.1 -1.02 -0.45c-14.98,-6.69 -25.06,-10.75 -32.84,-10.62 -7.61,0.12 -13.17,4.34 -19.28,14.16l-0.14 0.22 -0.24 0.11c-8.02,3.89 -7.87,6.34 -7.46,12.63 0.13,2 0.28,4.38 0.24,7.31l0.77 6.48c7.33,-1.63 9.03,-6.56 10.54,-10.96 0.64,-1.85 1.25,-3.61 2.21,-5.1l0.43 -0.67 0.71 0.34c1.5,0.73 3.14,1.75 4.85,2.82 5,3.12 10.75,6.71 14.72,3.88 -1.15,-1.99 -2.14,-3.79 -3.04,-5.42 -5.14,-9.34 -7.21,-13.09 -16.88,-12.61l-1.5 0.08 0.65 -1.36c1.06,-2.22 2.81,-3.93 5.04,-5.15 3.34,-1.83 7.78,-2.55 12.57,-2.23 4.74,0.31 9.85,1.64 14.6,3.91 6.35,3.03 12.09,7.75 15.5,13.97l0.1 0.18 1.25 30.95 -1.25 -0.45c-21.13,-7.66 -33.91,-6.74 -40.42,-2.74 -2.36,1.45 -3.87,3.31 -4.63,5.29 -0.75,1.95 -0.76,4.05 -0.14,5.98 0.95,3.01 3.43,5.65 7.06,6.92 -0.31,-0.59 -0.56,-1.22 -0.73,-1.89 -0.31,-1.19 -0.37,-2.48 -0.06,-3.78 0.32,-1.31 1.02,-2.61 2.24,-3.79 1.56,-1.53 4,-2.88 7.6,-3.82l0.12 -0.03 0.12 0.01c1.07,0 2.34,-0.05 3.71,-0.1 9.45,-0.38 23.43,-0.93 24.54,15.64l0.01 0.14 -0.23 0.97c-3.57,15.03 -5.05,21.26 -21.3,21.62 -1.28,0.03 -2.55,-0.05 -3.8,-0.21 -4.78,-0.64 -9.29,-2.63 -12.61,-5.42 -3.22,-2.71 -5.37,-6.18 -5.65,-9.94 -2.96,3.13 -4.21,5.67 -3.7,8.26 0.62,3.13 3.74,6.55 9.44,11.27l1.14 0.94 -1.36 0.58c-1.81,0.77 -3.35,2.58 -4.19,4.7 -0.53,1.31 -0.78,2.75 -0.66,4.11 0.11,1.32 0.57,2.58 1.49,3.6 0.99,1.12 2.54,1.99 4.76,2.38 -0.11,-7.11 1.62,-11.28 6.89,-13.18 5.22,-1.88 13.98,-1.31 28.13,0.98l0.82 0.13 -0.07 0.83c-0.51,6.17 -3.3,9.21 -7.74,10.54 -3.73,1.12 -8.6,0.96 -14.24,0.47 2.06,2.32 4.45,4.6 7.53,5.69 3.82,1.35 8.81,0.93 15.76,-3.39l2.71 -1.68 -1.44 2.85c-1.9,3.78 -4.86,5.22 -7.64,6.57 -0.69,0.34 -1.37,0.67 -2.01,1.03 1.3,0.15 2.41,0.25 3.36,0.33 2.74,0.26 4.33,0.4 5.7,1.17 1.85,1.04 2.96,3.01 5.54,7.64zm61.02 -61.74l-0.1 0.32c-0.29,0.92 -0.57,1.83 -0.86,4.6l-0.13 1.22 -1.12 -0.48c-1.81,-0.79 -3.36,-1.61 -4.72,-2.34 -0.86,-0.46 -1.64,-0.87 -2.36,-1.21 -3.63,-1.71 -5.83,-1.27 -9.88,7.29 0.34,-0.03 0.82,-0.1 1.39,-0.17 4.84,-0.66 14.65,-1.98 16.92,15.09l0.76 9.66 0.91 0.73 -1.94 1.41c-4.34,3.15 -6.23,4.53 -8.4,4.74 -1.69,0.16 -3.3,-0.42 -6.16,-1.44 -1.19,-0.42 -2.61,-0.93 -4.31,-1.49 0.28,1.02 0.68,1.96 1.17,2.81 1.17,2.01 2.89,3.57 4.91,4.53 2.03,0.96 4.37,1.33 6.77,0.97 1.56,-0.23 3.15,-0.78 4.69,-1.67l1.06 -0.62 0.27 1.21c0.75,3.45 -2.36,4.67 -5.34,5.82l-1.3 0.52 0.81 0.34c3.43,1.43 5.15,2.14 6.56,3.29 1.41,1.16 2.38,2.64 4.33,5.6l0.99 1.51 0.57 -0.43c2.58,-4.64 3.69,-6.61 5.54,-7.65 1.37,-0.76 2.96,-0.91 5.7,-1.16 0.95,-0.09 2.06,-0.19 3.36,-0.34 -0.64,-0.36 -1.32,-0.69 -2.01,-1.02 -2.79,-1.36 -5.74,-2.79 -7.64,-6.58l-1.44 -2.85 2.71 1.69c6.95,4.31 11.94,4.73 15.75,3.38 3.25,-1.15 5.73,-3.61 7.85,-6.05 -24.63,-2.64 -23.73,-19.33 -23.06,-31.7 0.14,-2.7 0.28,-5.2 0.11,-7.24l-0.06 -0.71 0.68 -0.22c6.59,-2.16 12.53,-3.76 16.84,-2.93 4.38,0.83 7.04,3.98 7.01,11.11 2.23,-0.39 3.78,-1.25 4.78,-2.38 0.91,-1.02 1.37,-2.28 1.49,-3.59 0.11,-1.37 -0.14,-2.8 -0.66,-4.12 -0.85,-2.12 -2.39,-3.93 -4.2,-4.69l-1.36 -0.58 1.14 -0.94c1.42,-1.18 2.67,-2.34 3.76,-3.49 3.42,-3.6 5.24,-7.05 5.55,-10.35 0.3,-3.27 -0.87,-6.45 -3.44,-9.55l-0.33 -0.39c0.28,8.64 -4.15,14.93 -9.68,18.3 -2.75,1.69 -5.8,2.64 -8.67,2.81 -2.93,0.16 -5.7,-0.5 -7.86,-2.05 -2.04,-1.47 -3.52,-3.72 -4.05,-6.79 -0.27,1.57 -0.54,3.29 -0.8,4.93 -0.48,3.11 -0.93,5.98 -1.33,7.29 -0.25,0.8 -0.6,1.27 -1.1,1.33l-10.07 4.72zm-1.82 -0.2l0.31 -1.08c3.72,-1.73 7.45,-3.47 11.16,-5.22 -0.12,-0.02 -0.21,-0.05 -0.2,-0.07 0.37,-1.2 0.81,-4.01 1.28,-7.04 0.45,-2.88 0.93,-5.96 1.43,-8.17 0.55,-2.44 1.3,-4 2.41,-3.75l0.84 0.19 -0.16 0.85c-1.1,5.8 0.41,9.58 3.15,11.55 1.81,1.3 4.18,1.86 6.71,1.71 2.59,-0.14 5.33,-1.01 7.84,-2.54 5.53,-3.37 9.84,-9.96 8.62,-19.1l-0.34 -2.51 1.85 1.75c0.81,0.77 1.55,1.55 2.2,2.34 2.87,3.47 4.18,7.08 3.83,10.85 -0.34,3.72 -2.32,7.53 -6.02,11.43 -0.88,0.92 -1.85,1.85 -2.92,2.78 1.71,1.13 3.11,2.96 3.93,5.02 0.63,1.57 0.93,3.29 0.79,4.93 -0.14,1.68 -0.75,3.31 -1.94,4.64 -1.42,1.6 -3.67,2.77 -6.94,3.11l-1.03 0.11 0.04 -1.04c0.26,-6.76 -1.89,-9.65 -5.54,-10.35 -3.78,-0.72 -9.2,0.69 -15.28,2.66 0.1,1.99 -0.03,4.29 -0.16,6.77 -0.64,11.91 -1.51,28.08 23.15,29.98l1.74 0.13 -1.12 1.34c-2.52,3 -5.47,6.39 -9.75,7.9 -3.49,1.24 -7.8,1.2 -13.33,-1.38 1.29,1.04 2.74,1.75 4.14,2.43 1.52,0.74 3.01,1.47 4.26,2.56l1.5 1.3 -1.97 0.27c-2.37,0.32 -4.26,0.5 -5.77,0.63 -2.49,0.23 -3.94,0.36 -4.98,0.95 -1.43,0.8 -2.47,2.66 -4.92,7.08l-0.12 0.21 -2.4 1.79 -2.05 -3.1c-1.84,-2.8 -2.76,-4.21 -3.96,-5.19 -1.21,-0.99 -2.84,-1.67 -6.11,-3.02l-4.09 -1.71 1.35 -0.93c0.89,-0.62 2.07,-1.08 3.27,-1.55 1.67,-0.65 3.39,-1.32 4.02,-2.4 -1.25,0.56 -2.53,0.92 -3.79,1.11 -2.75,0.41 -5.45,-0.02 -7.79,-1.13 -2.35,-1.11 -4.35,-2.91 -5.7,-5.25 -0.84,-1.44 -1.43,-3.09 -1.7,-4.9l-0.21 -1.41 1.36 0.43c2.5,0.77 4.36,1.44 5.85,1.97 2.62,0.93 4.09,1.46 5.38,1.34l7.52 -4.4 0.12 -0.09c-0.53,-3.71 -0.21,-7.27 -0.58,-10.03 -2.03,-15.28 -10.65,-14.12 -14.91,-13.54 -1.25,0.17 -2.19,0.29 -2.82,0 -0.82,-0.39 -1.04,-1.05 -0.5,-2.2 4.77,-10.15 7.56,-10.57 12.34,-8.33 0.76,0.36 1.57,0.79 2.44,1.26 1.04,0.55 2.2,1.17 3.49,1.77 0.26,-2.02 0.52,-2.87 0.78,-3.71z"/>
  <polygon class="fil2" points="61.99,145.52 76.7,145.52 76.7,170.14 61.99,170.14 "/>
  <polygon class="fil2" points="130.68,142.63 146.66,142.63 146.67,157.32 198.22,157.67 198.4,171.01 146.55,171.03 130.67,170.92 "/>
  <polygon class="fil3" points="130.68,142.63 146.66,142.63 146.65,76.78 130.69,76.79 130.67,100.74 77.57,100.72 77.62,77.07 62.01,77.03 61.98,147.91 77.59,148.13 77.68,114.5 130.68,114.49 "/>
  <polygon class="fil2" points="130.69,76.79 146.65,76.78 146.65,54.64 130.72,54.64 "/>
  <polygon class="fil2" points="62.01,77.03 77.62,77.07 77.67,54.98 62.02,54.74 "/>
  <path class="fil4" d="M146.5 55.5l-14.89 0.03 -0.04 46.11c-18.3,-0.02 -36.6,-0.02 -54.9,-0.02l0.1 -45.76 -13.85 -0.21 -0.04 114.3 13.82 0.19 0.08 -56.53c18.26,-0.02 36.53,-0.02 54.8,-0.02l-0.01 56.44 14.98 0.1 50.94 -0.02 -0.15 -11.55 -50.83 -0.34 -0.01 -102.72zm1.45 100.93l51.16 0.35 0.2 15.13 -52.76 0.02 -16.55 0.07 0 -57 -51.43 0.4 -0.08 56.57 -17.41 -0.25c0.04,-39.29 0.04,-78.6 0.04,-117.9l17.46 0.27 -0.11 45.73 51.53 0.18 0 -46 18 0 -0.05 102.43z"/>
  <polygon class="fil5" points="62.01,74.35 69.23,67.99 77.63,74.35 77.6,85.68 69.23,80.11 62.01,87.07 "/>
  <path class="fil1" d="M61.42 73.67l7.76 -6.84 9.35 7.07 -0.03 13.45 -9.17 -6.09 -8.22 7.93 0 -15.25 0.31 -0.27zm7.85 -4.52l-6.36 5.61 0 10.19 6.21 -5.99 7.59 5.04 0.02 -9.2 -7.46 -5.65z"/>
  <polygon class="fil5" points="130.78,74.35 138,67.99 146.4,74.35 146.37,85.68 138,80.11 130.78,87.07 "/>
  <path class="fil1" d="M130.34 73.54l7.61 -6.71 9.35 7.07 -0.03 13.45 -9.17 -6.09 -8.07 7.79 0 -15.24 0.31 -0.27zm7.7 -4.39l-6.36 5.61 0 10.19 6.21 -5.99 8.11 5.04 0.02 -9.2 -7.98 -5.65z"/>
  <polygon class="fil5" points="61.99,149.45 69.07,155.81 77.3,149.45 77.28,138.13 69.07,143.69 61.99,136.74 "/>
  <path class="fil1" d="M62.89 149.05l6.22 5.59 7.29 -5.63 -0.01 -9.19 -7.43 5.03 -6.07 -5.97 0 10.17zm5.57 7.44l-7.37 -6.63 0 -15.27 8.08 7.94 9.01 -6.09 0.02 13.46 -9.18 7.09 -0.56 -0.5z"/>
  <polygon class="fil5" points="146.45,148.69 139.23,155.05 130.83,148.69 130.86,137.36 139.23,142.92 146.45,135.97 "/>
  <path class="fil1" d="M131.74 148.28l6.36 5.6 7.46 -5.64 -0.03 -9.2 -7.58 5.03 -6.21 -5.99 0 10.2zm5.72 7.44l-7.52 -6.62 0 -15.25 8.22 7.92 9.16 -6.09 0.04 13.46 -9.35 7.07 -0.55 -0.49z"/>
 </g>
</svg>
