<svg id="loriup" enable-background="new 0 0 512.119 512.119" height="28" fill="#e7672e" viewBox="0 0 512.119 512.119" width="28" xmlns="http://www.w3.org/2000/svg"><g id="XMLID_1966_"><g id="XMLID_1989_"><g id="XMLID_615_"><path id="XMLID_661_" d="m192.56 135.999c-2.63 0-5.21 1.07-7.07 2.931-1.86 1.859-2.93 4.439-2.93 7.069s1.07 5.21 2.93 7.07 4.44 2.93 7.07 2.93 5.21-1.069 7.07-2.93c1.86-1.86 2.93-4.44 2.93-7.07s-1.07-5.21-2.93-7.069c-1.86-1.861-4.441-2.931-7.07-2.931z"/><path id="XMLID_685_" d="m319.56 135.999c-2.63 0-5.21 1.07-7.07 2.931-1.86 1.859-2.93 4.439-2.93 7.069s1.07 5.21 2.93 7.07 4.44 2.93 7.07 2.93 5.21-1.069 7.07-2.93c1.86-1.86 2.93-4.44 2.93-7.07s-1.07-5.21-2.93-7.069c-1.86-1.861-4.441-2.931-7.07-2.931z"/><path id="XMLID_688_" d="m256.06 146.667c-19.597 0-35.54 15.943-35.54 35.54v16.253c0 19.597 15.943 35.54 35.54 35.54s35.54-15.943 35.54-35.54v-16.253c0-19.597-15.944-35.54-35.54-35.54zm15.54 51.793c0 8.568-6.971 15.54-15.54 15.54s-15.54-6.972-15.54-15.54v-16.253c0-8.568 6.971-15.54 15.54-15.54s15.54 6.972 15.54 15.54z"/><path id="XMLID_691_" d="m412.06 0c-33.172 0-63.244 18.719-78.187 47.611-23.429-12.866-50.027-19.629-77.813-19.629-28.426 0-55.046 7.187-77.792 19.67-14.936-28.916-45.021-47.652-78.208-47.652-48.523 0-88 39.477-88 88s39.477 88 88 88c1.687 0 3.372-.064 5.055-.16 2.414 31.1 16.179 59.384 37.524 81.426-18.354 16.43-32.223 37.113-40.394 60.427-1.827 5.212.918 10.918 6.129 12.745 1.094.383 2.21.565 3.308.565 4.129 0 7.994-2.578 9.437-6.695 7.289-20.795 19.842-39.166 36.495-53.573 26.482 20.737 60.886 33.285 98.446 33.285h70.51c11.85 0 21.49 9.641 21.49 21.49s-9.641 21.49-21.491 21.49h-18.51c-5.523 0-10 4.478-10 10s4.477 10 10 10h1.313l-9.137 32.65c-7.925-23.152-29.887-39.85-55.69-39.85-5.523 0-10 4.478-10 10s4.477 10 10 10c21.426 0 38.857 17.432 38.857 38.858 0 11.487-4.906 22.064-13.543 29.46h-10.787c-5.523 0-10 4.478-10 10s4.477 10 10 10h30.462c15.269 0 28.22 10.117 32.5 24h-81.974c-53.74 0-101.619-34.109-119.139-84.877-1.802-5.22-7.495-7.993-12.715-6.19-5.221 1.802-7.992 7.495-6.191 12.716 20.303 58.827 75.779 98.352 138.045 98.352 0 0 94.373-.001 94.585-.001 11.409 0 21.651-7.664 24.764-18.792l21.589-77.144c8.902-2.491 27.036-9.666 37.103-28.373 11.012-20.463 8.826-47.669-6.498-80.86-.007-.015-.017-.028-.024-.043l39.135-139.844c30.131-14.72 49.347-45.226 49.347-79.062-.001-48.523-39.478-88-88.001-88zm-306.916 155.794c-1.69.125-3.386.206-5.084.206-37.495 0-68-30.505-68-68s30.505-68 68-68c26.271 0 50.029 15.186 61.262 38.46-6.292 4.62-12.171 9.688-17.579 15.151-6.057-18.337-23.344-31.611-43.683-31.611-25.364 0-46 20.636-46 46s20.636 46 46 46c3.084 0 6.096-.312 9.012-.893-1.978 7.35-3.303 14.931-3.928 22.687zm-5.084-41.794c-14.336 0-26-11.663-26-26s11.664-26 26-26 26 11.663 26 26-11.664 26-26 26zm240.227 142.533c-23.581 17.736-53.404 27.487-84.227 27.487-72.418 0-131.334-52.943-131.334-118.02 0-65.075 58.916-118.019 131.334-118.019 55.453 0 105.303 31.959 123.749 78.477-2.881 3.012-4.996 6.705-6.151 10.832zm.579 228.84c-5.298-16.2-18.061-29.042-34.208-34.456l19.063-68.121c.178 2.098.495 4.206.992 6.313 4.53 19.211 19.607 26.484 33.157 28.358zm59.714-107.211c-8.551 16.111-27.639 19.41-27.775 19.433-.047.008-.094.015-.141.022-.918.156-22.557 3.561-26.485-13.098-2.855-12.108 4.715-24.828 16.877-28.354 17.008-4.932 29.152-15.154 37.034-24.123 6.269 19.095 6.475 34.843.49 46.12zm33.003-224.101-44.842 160.238c-.006.02-.008.04-.014.061-4.192 5.668-11.222 13.317-21.351 18.604.441-2.42.684-4.909.684-7.454 0-13.703-6.681-25.87-16.952-33.429l41.809-149.4c.412-1.472 1.372-2.695 2.704-3.444 1.331-.749 2.876-.937 4.347-.523l29.649 8.297c3.036.849 4.816 4.012 3.966 7.05zm-47.523-66.061c0-14.337 11.664-26 26-26s26 11.663 26 26-11.664 26-26 26-26-11.663-26-26zm65.922 55.073c-2.85-7.188-8.886-13.02-16.872-15.291 13.708-7.974 22.949-22.815 22.949-39.782 0-25.364-20.636-46-46-46-20.321 0-37.596 13.251-43.666 31.562-5.396-5.466-11.269-10.546-17.564-15.171 11.247-23.235 34.986-38.391 61.231-38.391 37.495 0 68 30.505 68 68 0 22.155-10.66 42.465-28.078 55.073z"/></g></g><g id="XMLID_2485_"><g id="XMLID_2487_"><path id="XMLID_764_" d="m104.06 375.999c-2.63 0-5.21-1.069-7.07-2.93-1.86-1.86-2.93-4.44-2.93-7.07s1.07-5.21 2.93-7.069c1.86-1.86 4.44-2.931 7.07-2.931s5.21 1.07 7.07 2.931c1.86 1.859 2.93 4.44 2.93 7.069 0 2.63-1.07 5.21-2.93 7.07-1.86 1.861-4.441 2.93-7.07 2.93z"/></g></g></g></svg>